<svg xmlns="http://www.w3.org/2000/svg" xmlns:xlink="http://www.w3.org/1999/xlink" viewBox="0 0 203 49.000001" height="49" width="203"><defs><linearGradient id="a"><stop offset="0"/><stop offset="1" stop-opacity="0"/></linearGradient><linearGradient xlink:href="#a" id="b" gradientUnits="userSpaceOnUse" x1="99.522" y1="10.158" x2="99.522" y2="77.916"/></defs><g transform="translate(-284.256 -325.005)"><rect width="203" height="49" x="284.256" y="325.097" rx="0" fill="#75c759"/><path d="M20.52 10.158c-6.86 0-10.362 3.95-10.362 11.328v15.48l2.04 2.04-.022.018 10.068 10.07H139.68l-31.157-31.157a.822.822 0 0 0-.585-.24c-.466 0-.84.362-.84.827v2.174h-.436a.815.815 0 0 0-.826.826c0 .227.092.434.242.584l1.02 1.02v.51l-2.694-2.694a.796.796 0 0 0-.568-.23c-.75-.015-1.396.256-1.89.586-.035.023-.068.064-.104.096l-.438-.437a.847.847 0 0 0-.6-.247.788.788 0 0 0-.794.78v3.642l-3.463-3.463a3.315 3.315 0 0 0-2.35-.975c-1.035 0-1.905.436-2.58 1.14-.645.72-1.033 1.606-1.033 2.626 0 .258.023.51.068.75l-3.455-3.455a3.55 3.55 0 0 0-2.51-1.06c-.722 0-1.397.23-1.937.556l-.3-.3a.892.892 0 0 0-.63-.257.802.802 0 0 0-.795.797V25.487l-3.73-3.73a3.55 3.55 0 0 0-2.512-1.06c-.72 0-1.395.23-1.935.556l-.3-.3a.892.892 0 0 0-.63-.257.802.802 0 0 0-.795.797v2.756l-3.305-3.305a.818.818 0 0 0-.568-.248.79.79 0 0 0-.78.797v2.777l-3.343-3.34a.787.787 0 0 0-.56-.233c-.41 0-.742.34-.778.733l-2.743-2.742a.79.79 0 0 0-.108-.09c-.766-.495-1.83-1.2-3.27-1.2-.975 0-1.89.285-2.596.795-.69.51-1.2 1.29-1.2 2.19 0 .45.12.87.345 1.23.108.175.237.332.38.475l4.328 4.328c-.364.136-.78.223-1.23.223-1.064.014-2.204-.618-2.864-1.158a.772.772 0 0 0-.652-.148L37.008 10.16l-7.817-.002h-8.67zm106.156 7.54c-.45 0-.81.36-.81.81v.314c0 .23.092.44.243.59l3.486 3.486c-.04.093-.07.19-.104.286l-2.242-2.243a.8.8 0 0 0-.574-.227c-.45 0-.81.346-.81.826v2.503l-2.977-2.977a.89.89 0 0 0-.28-.187c-.39-.18-.84.028-1.006.433l-1.01 2.373-2.635-2.635a.786.786 0 0 0-.542-.238.62.62 0 0 0-.283.067c-.42.18-.616.613-.436 1.018l2.43 5.82a.244.244 0 0 0 .044.093l.015.016v.01l.042.04c.018.024.038.048.047.067l21.148 21.15h23.91L136.176 20.93a.786.786 0 0 0-.557-.233c-.39 0-.692.285-.782.66-.57-.405-1.244-.66-1.994-.66-.802 0-1.516.276-2.1.727l-3.494-3.494a.803.803 0 0 0-.574-.233zm18.18 0a.823.823 0 0 0-.823.825v8.85c0 .227.092.434.242.584l21.135 21.135H203V43.57l-22.63-22.627a.796.796 0 0 0-.567-.23c-.75-.015-1.396.256-1.89.586-.035.023-.068.064-.104.096l-.44-.437a.847.847 0 0 0-.6-.247.787.787 0 0 0-.665.38l-3.158-3.157a.822.822 0 0 0-.586-.24c-.464 0-.84.362-.84.827v2.174h-.434c-.13 0-.25.035-.36.086l-2.847-2.847a.822.822 0 0 0-.587-.24c-.465 0-.84.362-.84.827v2.174h-.435a.815.815 0 0 0-.827.826c0 .227.094.434.244.584l1.02 1.02v1.478l-3.677-3.675a.786.786 0 0 0-.556-.233c-.39 0-.69.285-.78.66-.57-.405-1.245-.66-1.995-.66a3.38 3.38 0 0 0-1.73.487l-3.238-3.24a.844.844 0 0 0-.598-.247.833.833 0 0 0-.825.826v2.135l-2.713-2.713a.828.828 0 0 0-.58-.248h-4.905z" transform="translate(284.256 325.005)" fill="url(#b)" opacity=".15"/><path d="M304.776 335.163c-6.86 0-10.36 3.95-10.36 11.328v15.48l6.72-6.727v-7.863c0-3.056.81-5 3.527-5.437.95-.186 2.923-.122 4.18-.122v4.67c0 .042.006.12.017.158.053.19.223.327.426.328.114 0 .22-.06.332-.168l11.646-11.643-7.816-.002h-8.672zm18.506 2.06l-6.72 6.73v7.86c0 3.057-.81 5-3.528 5.438-.95.187-2.924.122-4.18.122v-4.668a.776.776 0 0 0-.018-.158.445.445 0 0 0-.425-.328c-.114 0-.22.06-.33.168l-11.648 11.642 7.817.002h8.67c6.86 0 10.362-3.95 10.362-11.328v-15.478zm16.644 5.18c-.975 0-1.89.285-2.595.795-.69.51-1.2 1.29-1.2 2.19 0 .45.12.87.345 1.23.33.525.827.9 1.397 1.17.57.27 1.228.45 1.933.586h.03c.886.165 1.62.418 2.056.703.226.15.36.3.45.45.09.15.135.287.135.482 0 .374-.194.75-.644 1.08-.45.33-1.124.554-1.874.554-1.065.015-2.206-.617-2.866-1.157a.78.78 0 0 0-1.093.106.8.8 0 0 0 .12 1.096c.854.674 2.22 1.484 3.84 1.5 1.064 0 2.04-.317 2.774-.857.75-.54 1.29-1.364 1.29-2.324 0-.466-.134-.916-.36-1.276-.344-.555-.884-.947-1.5-1.247-.6-.285-1.305-.478-2.07-.628h-.03c-.81-.15-1.484-.392-1.874-.662a1.44 1.44 0 0 1-.404-.39.728.728 0 0 1-.106-.42c0-.315.166-.645.57-.945.406-.3 1.005-.51 1.68-.51.915 0 1.65.45 2.414.96a.76.76 0 0 0 1.067-.224c.24-.346.134-.827-.21-1.067-.766-.495-1.83-1.2-3.27-1.2zm52.268.3c-.465 0-.84.36-.84.825v2.174h-.435a.815.815 0 0 0-.828.826c0 .45.362.825.827.825h.434v4.185c0 .915.75 1.664 1.664 1.664.465 0 .824-.36.824-.824 0-.465-.36-.84-.824-.84v-4.185h.375c.45 0 .84-.375.84-.825a.836.836 0 0 0-.84-.826h-.375v-2.174a.814.814 0 0 0-.824-.826zm18.738 0c-.45 0-.81.36-.81.81v.314c0 .45.36.826.81.826a.81.81 0 0 0 .81-.826v-.314c0-.45-.345-.81-.81-.81zm18.182 0a.823.823 0 0 0-.824.825v8.85c0 .45.36.824.824.824.465 0 .84-.374.84-.824v-3.6h3.496c.45 0 .824-.374.824-.84a.843.843 0 0 0-.824-.826h-3.496v-2.744h4.064a.846.846 0 0 0 .826-.84c0-.45-.39-.826-.826-.826H429.114zm9.02 0a.833.833 0 0 0-.823.825v8.85a.83.83 0 0 0 1.665 0v-8.85a.836.836 0 0 0-.84-.826zm13.415 0c-.466 0-.84.36-.84.825v2.174h-.436a.815.815 0 0 0-.826.826c0 .45.36.825.826.825h.436v4.185c0 .915.75 1.664 1.664 1.664.465 0 .824-.36.824-.824 0-.465-.36-.84-.824-.84v-4.185h.375c.45 0 .838-.375.838-.825a.836.836 0 0 0-.84-.826h-.374v-2.174a.814.814 0 0 0-.825-.826zm5.068 0c-.465 0-.84.36-.84.825v2.174h-.436a.815.815 0 0 0-.826.826c0 .45.36.825.826.825h.436v4.185c0 .915.75 1.664 1.664 1.664.465 0 .824-.36.824-.824 0-.465-.36-.84-.824-.84v-4.185h.375c.45 0 .84-.375.84-.825a.836.836 0 0 0-.84-.826h-.375v-2.174a.814.814 0 0 0-.824-.826zm-109.793 3a.812.812 0 0 0-.795.796v3.583c0 1.71 1.41 3.12 3.12 3.12 1.726 0 3.165-1.41 3.165-3.12V346.5c0-.42-.39-.798-.81-.798a.79.79 0 0 0-.78.797v3.583a1.555 1.555 0 0 1-1.574 1.53c-.854 0-1.53-.675-1.53-1.53V346.5a.802.802 0 0 0-.795-.798zm9.35 0a.802.802 0 0 0-.796.796v8.714c0 .42.36.81.794.81.48 0 .856-.39.856-.81v-2.64c.54.39 1.26.615 2.01.615 1.995 0 3.63-1.667 3.63-3.722 0-2.055-1.635-3.766-3.63-3.766-.765 0-1.484.256-2.04.616-.06-.33-.406-.616-.826-.616zm9.902 0a.802.802 0 0 0-.795.796v8.714c0 .42.36.81.795.81.48 0 .855-.39.855-.81v-2.64c.54.39 1.26.615 2.01.615 1.995 0 3.63-1.667 3.63-3.722 0-2.055-1.635-3.766-3.63-3.766-.765 0-1.484.256-2.04.616-.06-.33-.405-.616-.825-.616zm12.377 0c-1.035 0-1.905.435-2.58 1.14-.645.72-1.034 1.605-1.034 2.625 0 1.05.39 1.98 1.034 2.64.675.706 1.545 1.14 2.58 1.14.99 0 1.89-.434 2.506-1.14.675-.66 1.05-1.59 1.05-2.64 0-1.02-.375-1.905-1.05-2.625a3.32 3.32 0 0 0-2.506-1.14zm38.646 0c-1.02 0-1.906.434-2.55 1.124-.646.675-1.02 1.606-1.02 2.64 0 1.02.374 1.952 1.02 2.642a3.485 3.485 0 0 0 2.55 1.092c.75 0 1.424-.24 1.994-.644.09.36.392.644.782.644a.8.8 0 0 0 .794-.795v-5.894c0-.45-.36-.81-.794-.81-.39 0-.692.284-.782.66-.57-.406-1.244-.66-1.994-.66zm26.602 0c-1.02 0-1.906.434-2.55 1.124-.646.675-1.02 1.606-1.02 2.64 0 1.02.374 1.952 1.02 2.642a3.485 3.485 0 0 0 2.55 1.092c.75 0 1.424-.24 1.994-.644.09.36.39.644.78.644a.8.8 0 0 0 .796-.795v-5.894c0-.45-.36-.81-.795-.81-.39 0-.69.284-.78.66-.57-.406-1.245-.66-1.995-.66zm-58.64.015a.788.788 0 0 0-.796.78v5.91a.8.8 0 0 0 .795.794c.45 0 .827-.36.827-.795v-2.85c.075-.21.254-.78.614-1.26.18-.284.407-.54.692-.72.255-.195.555-.283.9-.283a.8.8 0 0 0 .795-.795.78.78 0 0 0-.795-.782c-.75-.015-1.395.256-1.89.586a1.96 1.96 0 0 0-.315.3v-.105c0-.436-.376-.782-.826-.782zm25.87 0c-.45 0-.81.346-.81.826v5.85c0 .45.36.808.81.808.465 0 .81-.358.81-.808v-5.85c0-.48-.345-.826-.81-.826zm50.096 0a.788.788 0 0 0-.795.78v5.91a.8.8 0 0 0 .795.794c.45 0 .826-.36.826-.795v-2.85c.075-.21.253-.78.613-1.26.18-.284.407-.54.692-.72.254-.195.554-.283.9-.283a.8.8 0 0 0 .794-.795.78.78 0 0 0-.795-.782c-.75-.015-1.396.256-1.89.586a1.96 1.96 0 0 0-.316.3v-.105c0-.436-.376-.782-.826-.782zm-59.354.1a.62.62 0 0 0-.283.066c-.42.18-.614.614-.434 1.02l2.43 5.82c.014.045.03.088.06.103 0 .015 0 .016.015.016.03.03.06.075.076.105.015.015.014.016.03.016.03.045.06.06.09.09 0 0 .014 0 .014.013.06.03.09.062.135.077h.03v.013c.046 0 .075.017.12.032h.03c.06.014.107.012.137.012.045 0 .088 0 .148-.013h.03a.278.278 0 0 1 .12-.033v-.013h.032c.045-.015.073-.047.103-.077 0-.015.016-.013.016-.013.03-.03.06-.045.09-.09 0 0 .016 0 .016-.016.03-.03.06-.075.09-.105 0 0 .016 0 .016-.016a.313.313 0 0 0 .058-.103l2.46-5.82c.18-.406-.014-.84-.434-1.02-.39-.18-.84.03-1.006.433l-1.74 4.08-1.725-4.08c-.135-.303-.43-.497-.72-.5zm15.426 1.49c.525 0 1.035.21 1.395.615.36.375.586.915.586 1.545a2.26 2.26 0 0 1-.585 1.545 1.94 1.94 0 0 1-1.395.586c-.54 0-1.05-.212-1.394-.587-.36-.39-.57-.93-.57-1.545 0-.63.21-1.17.57-1.545.345-.405.854-.615 1.394-.615zm26.602 0c.525 0 1.034.21 1.394.615.36.375.586.915.586 1.545a2.26 2.26 0 0 1-.586 1.545 1.94 1.94 0 0 1-1.394.586c-.54 0-1.05-.212-1.395-.587-.36-.39-.57-.93-.57-1.545 0-.63.21-1.17.57-1.545.345-.405.855-.615 1.395-.615zm-84.662.03c.51 0 1.02.21 1.41.614.345.39.586.93.586 1.516 0 .585-.24 1.155-.586 1.5-.39.42-.9.63-1.41.63a1.86 1.86 0 0 1-1.426-.63c-.39-.345-.584-.915-.584-1.5s.194-1.126.584-1.516c.375-.405.87-.613 1.426-.613zm9.902 0c.51 0 1.02.21 1.41.614.345.39.586.93.586 1.516 0 .585-.24 1.155-.586 1.5-.39.42-.9.63-1.41.63a1.86 1.86 0 0 1-1.426-.63c-.39-.345-.584-.915-.584-1.5s.194-1.126.584-1.516c.375-.405.87-.613 1.426-.613zm9.512 0c.525 0 1.006.24 1.38.57.376.404.585.945.585 1.56 0 .645-.21 1.17-.585 1.59-.375.36-.856.554-1.38.554-.57 0-1.066-.194-1.44-.554-.346-.42-.54-.945-.54-1.59 0-.615.194-1.156.54-1.56.374-.33.87-.57 1.44-.57z" fill="#fff"/><path style="line-height:125%;-inkscape-font-specification:'Century Gothic Bold'" d="M409.722 126.745a1.12 1.12 0 0 0-.824.342 1.127 1.127 0 0 0-.344.826c0 .336.116.622.344.86.233.232.51.35.838.35.318 0 .592-.115.82-.343.228-.233.342-.513.342-.84 0-.33-.117-.613-.35-.845a1.116 1.116 0 0 0-.826-.35zm-24.826.188c-1.643 0-2.977.576-4.002 1.726-.864.966-1.297 2.102-1.297 3.41 0 .953.234 1.842.7 2.665a4.938 4.938 0 0 0 1.906 1.907c.805.443 1.72.664 2.746.664.956 0 1.79-.204 2.503-.612.71-.407 1.292-.997 1.74-1.77.447-.776.67-1.594.67-2.458l-.014-.416h-4.968v1.765h2.86c-.273.582-.633 1.01-1.08 1.282-.444.273-.99.41-1.64.41-.997 0-1.836-.332-2.517-.994a3.255 3.255 0 0 1-1.02-2.424c0-.923.326-1.706.98-2.35.657-.645 1.47-.968 2.443-.968.835 0 1.593.25 2.273.748.228.167.446.36.655.582l1.323-1.31c-.605-.654-1.22-1.114-1.852-1.383a6.095 6.095 0 0 0-2.41-.477zm20.195.128v2.693h-.94v1.578h.94v5.728h1.827v-5.727h1.086v-1.577h-1.086v-2.692zm-10.956 2.505a1.64 1.64 0 0 0-.928.282c-.282.188-.507.463-.677.826v-.92h-1.572v7.305h1.82v-2.954l-.007-.357c0-1.02.097-1.706.29-2.055.197-.35.435-.523.717-.523.07 0 .15.013.238.04.088.027.185.067.293.12l.57-1.577a1.71 1.71 0 0 0-.744-.188zm4.752 0c-.953 0-1.763.36-2.43 1.08-.666.72-1 1.646-1 2.774 0 1.087.344 1.997 1.034 2.73.69.73 1.506 1.095 2.45 1.095.422 0 .81-.073 1.17-.22.36-.153.72-.4 1.08-.74v.773h1.825v-7.305h-1.826v.807a3.682 3.682 0 0 0-.513-.436 3.124 3.124 0 0 0-.555-.31 3.097 3.097 0 0 0-1.236-.25zm17.55 0c-.438 0-.85.083-1.235.248a3.45 3.45 0 0 0-1.074.747v-.807h-1.818v9.976h1.818v-3.444c.358.34.72.586 1.082.738.363.148.753.22 1.174.22.945 0 1.762-.363 2.45-1.093.69-.733 1.037-1.643 1.037-2.73 0-1.13-.336-2.054-1.003-2.775-.667-.72-1.477-1.08-2.43-1.08zm8.044 0c-.238 0-.467.022-.688.067-.66.135-1.242.473-1.742 1.013-.667.72-1 1.646-1 2.774 0 1.087.344 1.997 1.033 2.73.69.73 1.507 1.095 2.452 1.095.42 0 .81-.073 1.168-.22.362-.153.722-.4 1.08-.74v.773h1.826v-7.305h-1.827v.806a3.682 3.682 0 0 0-.512-.436 3.123 3.123 0 0 0-.554-.31 3.097 3.097 0 0 0-1.236-.25zm-15.676.188v7.305h1.838v-7.305zm20.846 0l2.78 6.762-1.505 3.214h1.893l4.58-9.977h-1.88l-2.095 4.586-1.9-4.587zm-30.387 1.504c.582 0 1.063.198 1.443.592.38.392.57.906.57 1.542 0 .65-.19 1.175-.57 1.578-.38.398-.86.597-1.437.597-.14 0-.274-.013-.403-.04a1.87 1.87 0 0 1-1.014-.57c-.38-.408-.57-.927-.57-1.558 0-.627.186-1.14.562-1.54.376-.403.85-.603 1.418-.603zm16.79 0c.574 0 1.05.2 1.425.603.376.4.564.913.564 1.54 0 .63-.193 1.15-.578 1.556-.38.407-.85.61-1.41.61-.577 0-1.057-.198-1.437-.596-.38-.403-.57-.93-.57-1.578 0-.636.19-1.15.57-1.543.38-.395.86-.593 1.437-.593zm8.804 0c.582 0 1.063.198 1.443.592.38.392.57.906.57 1.542 0 .65-.19 1.175-.57 1.578-.38.398-.86.597-1.437.597-.14 0-.274-.013-.403-.04a1.87 1.87 0 0 1-1.013-.57c-.38-.408-.57-.927-.57-1.558 0-.627.186-1.14.562-1.54.375-.403.848-.603 1.417-.603z" font-weight="700" font-size="13.75" font-family="Century Gothic" letter-spacing="0" word-spacing="0" fill="#fff" fill-rule="evenodd"/></g></svg>
