<svg xmlns="http://www.w3.org/2000/svg" xmlns:xlink="http://www.w3.org/1999/xlink" viewBox="0 0 203 49.000001" height="49" width="203"><defs><linearGradient id="a"><stop offset="0"/><stop offset="1" stop-opacity="0"/></linearGradient><linearGradient xlink:href="#a" id="b" x1="106.826" y1="10.158" x2="106.826" y2="78.053" gradientUnits="userSpaceOnUse"/></defs><g transform="translate(-284.256 -325.005)"><rect rx="0" y="325.097" x="284.256" height="49" width="203" fill="#75c759"/><path d="M24.73 10.295c-7.973 0-14.435 6.462-14.435 14.434a14.39 14.39 0 0 0 4.226 10.206L28.68 49.092h99.285L97.53 18.658a.755.755 0 0 0-.54-.22c-.426 0-.77.33-.77.757v1.994h-.398a.745.745 0 0 0-.756.755c0 .21.085.4.223.537l.93.932v.47l-2.468-2.47a.73.73 0 0 0-.522-.21c-.687-.015-1.278.234-1.732.536-.03.023-.06.06-.094.09l-.402-.402a.775.775 0 0 0-.55-.225c-.398 0-.727.316-.727.715v3.338l-3.174-3.174a3.04 3.04 0 0 0-2.154-.893c-.948 0-1.746.398-2.365 1.044-.59.66-.946 1.472-.946 2.407 0 .237.02.466.062.686L77.98 22.16c-.6-.6-1.41-.97-2.302-.97a3.47 3.47 0 0 0-1.774.51l-.28-.278a.812.812 0 0 0-.573-.233c-.398 0-.728.33-.728.728v3.663l-3.42-3.42c-.6-.6-1.412-.97-2.302-.97a3.46 3.46 0 0 0-1.772.51l-.28-.278a.812.812 0 0 0-.573-.233c-.4 0-.73.33-.73.728v2.527l-3.028-3.03a.752.752 0 0 0-.524-.226.72.72 0 0 0-.714.728v2.547l-3.064-3.063a.72.72 0 0 0-.512-.213c-.378 0-.683.31-.715.67l-2.514-2.512a.722.722 0 0 0-.1-.082c-.7-.454-1.676-1.102-2.996-1.102-.894 0-1.733.263-2.38.73-.63.468-1.098 1.18-1.098 2.006 0 .413.108.8.314 1.13.1.16.218.304.35.435l3.966 3.967a3.225 3.225 0 0 1-1.125.203c-.976.014-2.022-.564-2.627-1.06a.71.71 0 0 0-.62-.13L34.935 14.52a14.39 14.39 0 0 0-10.207-4.225zm109.997 7.87c-2.792 0-5.075 2.2-5.075 4.964 0 1.345.547 2.555 1.432 3.44l22.52 22.522H203v-12.38l-15.303-15.304a.752.752 0 0 0-.53-.22c-.413 0-.716.317-.716.73v2.53l-3.052-3.052a.726.726 0 0 0-1.236.522v2.268l-2.783-2.784a.72.72 0 0 0-.51-.213c-.358 0-.633.26-.716.605a3.133 3.133 0 0 0-1.828-.606c-.935 0-1.746.398-2.338 1.03-.59.62-.935 1.472-.935 2.42 0 .08.016.154.02.23l-2.71-2.71c-.6-.6-1.412-.97-2.302-.97a3.47 3.47 0 0 0-1.773.51l-.28-.278a.812.812 0 0 0-.573-.233c-.212 0-.4.095-.534.242l-2.78-2.78a.736.736 0 0 0-.526-.213.74.74 0 0 0-.742.742v.29c0 .208.084.4.222.538l3.63 3.63v.356l-2.583-2.584a.733.733 0 0 0-.526-.21.734.734 0 0 0-.742.757v.456l-3.754-3.754a.75.75 0 0 0-.54-.223c-.428 0-.77.33-.77.755v1.994h-.4a.745.745 0 0 0-.757.755c0 .21.085.4.224.537l.933.934v1.357l-3.37-3.37a.72.72 0 0 0-.51-.214c-.358 0-.633.26-.716.605a3.133 3.133 0 0 0-1.827-.606c-.935 0-1.746.398-2.338 1.03a3.275 3.275 0 0 0-.45.614l-1.42-1.42a.73.73 0 0 0-.522-.21c-.688-.015-1.28.234-1.733.536-.03.023-.06.06-.093.09l-.403-.402a.775.775 0 0 0-.55-.225c-.397 0-.727.316-.727.715v.572l-3.176-3.176a.773.773 0 0 0-.09-.076 5.084 5.084 0 0 0-3.133-1.074zm-20.56.274a.74.74 0 0 0-.74.742v.29c0 .208.083.4.22.538l3.2 3.197a3.482 3.482 0 0 0-.097.26l-2.055-2.055a.733.733 0 0 0-.527-.21.734.734 0 0 0-.742.757v2.296l-2.73-2.73a.814.814 0 0 0-.255-.17c-.356-.166-.77.027-.92.398l-.928 2.172-2.412-2.412a.724.724 0 0 0-.498-.22c-.09 0-.178.02-.26.06-.385.166-.564.564-.4.935l2.228 5.335c.01.033.024.065.043.084l.006.005.007.01c0 .003 0 .006.002.007l.034.038c.016.02.036.043.045.06l21.26 21.262h21.914l-27.69-27.69a.72.72 0 0 0-.51-.213c-.356 0-.63.26-.714.605a3.133 3.133 0 0 0-1.828-.606c-.735 0-1.39.25-1.926.664l-3.2-3.202a.736.736 0 0 0-.528-.213z" transform="translate(284.256 325.005)" opacity=".15" fill="url(#b)" fill-rule="evenodd"/><path d="M308.848 335.163c-7.97 0-14.433 6.462-14.433 14.434 0 7.972 6.462 14.433 14.433 14.433 7.974 0 14.434-6.46 14.434-14.433 0-7.972-6.46-14.434-14.434-14.434zm24.352 7.87c-.894 0-1.733.262-2.38.73-.632.467-1.1 1.18-1.1 2.006 0 .41.11.798.316 1.128.302.48.757.824 1.28 1.072.522.247 1.126.41 1.772.535h.028c.81.15 1.486.385 1.885.647.207.137.33.274.413.412a.79.79 0 0 1 .123.44c0 .345-.178.69-.59.99-.413.304-1.03.51-1.72.51-.975.013-2.02-.565-2.626-1.06a.717.717 0 0 0-1.004.096.732.732 0 0 0 .11 1.004c.783.62 2.036 1.36 3.52 1.375.977 0 1.87-.29 2.544-.784.688-.495 1.184-1.25 1.184-2.13 0-.427-.124-.84-.33-1.17-.317-.51-.812-.867-1.375-1.142-.55-.26-1.2-.44-1.9-.578h-.027c-.743-.137-1.36-.356-1.72-.603a1.323 1.323 0 0 1-.37-.358.673.673 0 0 1-.096-.386c0-.29.15-.592.522-.867.37-.275.92-.466 1.54-.466.84 0 1.51.41 2.213.88.33.22.77.122.976-.208.22-.318.122-.756-.194-.976-.7-.454-1.676-1.102-2.996-1.102zm85.646 0c-2.79 0-5.074 2.2-5.074 4.964 0 2.75 2.283 4.936 5.074 4.936 1.17 0 2.255-.4 3.12-1.072a.654.654 0 0 0 .263-.33v-.013c.013-.028.013-.04.026-.07.014-.08.04-.137.04-.233v-3.04c0-.44-.355-.77-.795-.77h-2.735a.773.773 0 0 0-.785.77c0 .427.358.786.784.786h1.965v1.883a3.79 3.79 0 0 1-1.884.523c-.99 0-1.856-.37-2.474-1.004a3.268 3.268 0 0 1-1.032-2.365c0-.935.385-1.774 1.032-2.392.618-.633 1.484-1.004 2.474-1.004.825 0 1.58.29 2.172.743a.8.8 0 0 0 1.113-.123.79.79 0 0 0-.15-1.113 5.084 5.084 0 0 0-3.134-1.075zm-37.736.275c-.426 0-.77.33-.77.756v1.994h-.398a.745.745 0 0 0-.756.756c0 .412.33.757.756.757h.398v3.837c0 .84.69 1.526 1.528 1.526.426 0 .756-.33.756-.756s-.33-.77-.756-.77v-3.836h.344c.412 0 .77-.344.77-.756a.765.765 0 0 0-.77-.756h-.344v-1.994a.747.747 0 0 0-.758-.756zm17.178 0a.74.74 0 0 0-.743.742v.29a.742.742 0 0 0 1.484 0v-.29a.73.73 0 0 0-.742-.742zm42.388 0c-.426 0-.77.33-.77.756v1.994h-.4a.745.745 0 0 0-.755.756c0 .412.33.757.756.757h.4v3.837c0 .84.687 1.526 1.526 1.526.426 0 .756-.33.756-.756s-.33-.77-.756-.77v-3.836h.344c.412 0 .77-.344.77-.756a.765.765 0 0 0-.77-.756h-.344v-1.994a.745.745 0 0 0-.756-.756zm5.037 0a.74.74 0 0 0-.742.742v.29a.742.742 0 0 0 1.484 0l.002-.29a.73.73 0 0 0-.743-.742zm-140.76.347c.92.06 1.706.616 2.212 1.204.302.35.83.743 1.804.743.976 0 1.477-.394 1.78-.744.807-.942 2.343-1.772 3.967-.7 1.908 1.257 1.374 3.532.82 4.187l-6.568 8.9-6.57-8.9c-.554-.655-1.11-2.93.796-4.188.61-.402 1.204-.54 1.756-.505zm34.57 2.403c-.398 0-.728.343-.728.728v3.287a2.874 2.874 0 0 0 2.86 2.86c1.58 0 2.9-1.292 2.9-2.86v-3.287c0-.385-.357-.728-.742-.728a.72.72 0 0 0-.715.728v3.287a1.426 1.426 0 0 1-1.443 1.403 1.39 1.39 0 0 1-1.402-1.403v-3.287a.733.733 0 0 0-.73-.728zm8.57 0c-.397 0-.727.33-.727.728V354.776c0 .385.33.742.728.742.44 0 .784-.358.784-.743v-2.42c.495.357 1.154.562 1.84.562 1.83 0 3.33-1.527 3.33-3.41 0-1.885-1.5-3.452-3.33-3.452-.7 0-1.36.234-1.868.564-.055-.302-.37-.564-.756-.564zm9.077 0c-.398 0-.728.33-.728.728V354.776c0 .385.33.742.728.742.44 0 .784-.358.784-.743v-2.42c.495.357 1.156.562 1.843.562 1.83 0 3.33-1.527 3.33-3.41 0-1.885-1.5-3.452-3.33-3.452-.7 0-1.362.234-1.87.564-.056-.302-.372-.564-.757-.564zm11.346 0c-.95 0-1.746.398-2.365 1.045-.59.66-.946 1.47-.946 2.406 0 .96.356 1.814.947 2.42.62.645 1.417 1.044 2.366 1.044.908 0 1.733-.4 2.297-1.045.62-.606.963-1.46.963-2.42 0-.936-.344-1.747-.963-2.407a3.042 3.042 0 0 0-2.297-1.045zm35.426 0c-.935 0-1.747.4-2.338 1.03-.59.62-.935 1.472-.935 2.42 0 .936.343 1.788.934 2.42a3.195 3.195 0 0 0 2.338 1.005 3.12 3.12 0 0 0 1.828-.59c.083.33.357.59.715.59.4 0 .728-.33.728-.73V346.8a.736.736 0 0 0-.728-.742c-.358 0-.632.26-.715.605a3.133 3.133 0 0 0-1.828-.605zm29.54 0c-.934 0-1.746.4-2.337 1.03-.59.62-.935 1.472-.935 2.42 0 .936.344 1.788.935 2.42a3.195 3.195 0 0 0 2.338 1.005 3.12 3.12 0 0 0 1.828-.59c.084.33.358.59.716.59.4 0 .728-.33.728-.73V346.8a.736.736 0 0 0-.728-.742c-.358 0-.632.26-.715.605a3.133 3.133 0 0 0-1.827-.605zm16.07 0c-.397 0-.727.33-.727.728V354.776c0 .385.33.742.728.742.44 0 .783-.358.783-.743v-2.42c.495.357 1.157.562 1.844.562 1.83 0 3.328-1.527 3.328-3.41 0-1.885-1.5-3.452-3.328-3.452-.7 0-1.362.234-1.87.564-.056-.302-.372-.564-.757-.564zm10.894 0c-.935 0-1.747.4-2.338 1.03-.59.62-.936 1.472-.936 2.42 0 .936.345 1.788.936 2.42a3.195 3.195 0 0 0 2.338 1.005 3.12 3.12 0 0 0 1.828-.59c.082.33.357.59.715.59.398 0 .727-.33.727-.73V346.8a.736.736 0 0 0-.728-.742c-.36 0-.634.26-.716.605a3.133 3.133 0 0 0-1.828-.605zm6.55 0a.73.73 0 0 0-.714.728v3.246c0 1.582 1.292 2.887 2.873 2.887.454 0 .92-.11 1.306-.33-.22.714-.906 1.237-1.717 1.25-.275 0-.536-.07-.797-.192-.33-.18-.798-.028-.977.302-.166.385-.028.812.357.977.412.206.92.344 1.416.344a3.26 3.26 0 0 0 3.285-3.286v-5.198a.736.736 0 0 0-.742-.728c-.413 0-.715.316-.715.728v3.246c0 .798-.63 1.403-1.415 1.403-.784 0-1.43-.605-1.43-1.403v-3.246a.708.708 0 0 0-.728-.728zm-92.423.013c-.4 0-.73.318-.73.716v5.418c0 .4.33.73.73.73.412 0 .756-.33.756-.73v-2.61c.067-.194.233-.717.563-1.157.165-.262.372-.495.633-.66.234-.18.508-.26.824-.26.413 0 .73-.346.73-.73 0-.4-.317-.716-.73-.716-.687-.012-1.28.236-1.732.54-.096.067-.207.178-.29.274v-.098c0-.398-.343-.715-.755-.715zm23.715 0a.734.734 0 0 0-.743.757v5.364c0 .413.33.743.743.743a.73.73 0 0 0 .742-.742v-5.363c0-.44-.316-.756-.742-.756zm27.687 0c-.4 0-.728.318-.728.716v5.418c0 .4.33.73.728.73.413 0 .756-.33.756-.73v-2.61c.07-.194.235-.717.565-1.157.165-.262.37-.495.63-.66.235-.18.51-.26.828-.26.412 0 .728-.346.728-.73 0-.4-.315-.716-.727-.716-.688-.012-1.28.236-1.733.54-.096.067-.206.178-.29.274v-.098c0-.398-.342-.715-.755-.715zm19.738 0a.734.734 0 0 0-.742.757v5.364c0 .413.33.743.743.743a.73.73 0 0 0 .743-.742v-5.363c0-.44-.316-.756-.743-.756zm-55.912.093a.57.57 0 0 0-.258.06c-.385.166-.564.563-.4.934l2.228 5.336c.013.042.03.082.056.096 0 .013 0 .013.014.013a.417.417 0 0 1 .068.096c.014.012.014.014.028.014.027.04.054.055.082.082 0 0 .013 0 .013.014.056.027.085.054.126.068h.028v.014c.04 0 .068.014.11.027h.026c.055.013.096.013.124.013.04 0 .083 0 .138-.014h.027a.256.256 0 0 1 .11-.028v-.014h.026a.25.25 0 0 0 .098-.068c0-.014.014-.014.014-.014.027-.027.054-.04.082-.082 0 0 .013-.002.013-.015.028-.03.055-.07.082-.097 0 0 .014 0 .014-.014a.293.293 0 0 0 .054-.097l2.256-5.336c.165-.37-.014-.768-.4-.933-.356-.165-.77.027-.92.398l-1.596 3.74-1.58-3.74a.758.758 0 0 0-.663-.46zm14.142 1.367c.48 0 .95.192 1.28.563.33.344.534.838.534 1.416a2.07 2.07 0 0 1-.535 1.415 1.78 1.78 0 0 1-1.278.537c-.495 0-.963-.193-1.28-.537-.33-.358-.52-.852-.52-1.416 0-.58.19-1.073.52-1.417.317-.37.785-.563 1.28-.563zm29.54 0c.482 0 .95.192 1.28.563.33.344.535.838.535 1.416a2.07 2.07 0 0 1-.535 1.415 1.78 1.78 0 0 1-1.28.537c-.494 0-.962-.193-1.278-.537-.33-.358-.522-.852-.522-1.416 0-.58.192-1.073.522-1.417.316-.37.784-.563 1.28-.563zm26.964 0c.48 0 .95.192 1.28.563.33.344.534.838.534 1.416a2.07 2.07 0 0 1-.535 1.415 1.78 1.78 0 0 1-1.28.537c-.494 0-.962-.193-1.278-.537-.33-.358-.522-.852-.522-1.416 0-.58.192-1.073.522-1.417.316-.37.784-.563 1.28-.563zm-109.727.028c.467 0 .935.19 1.292.562.317.358.537.853.537 1.39 0 .535-.22 1.058-.538 1.374a1.76 1.76 0 0 1-1.293.578 1.7 1.7 0 0 1-1.305-.578c-.358-.316-.537-.84-.537-1.375 0-.537.18-1.032.537-1.39.343-.37.796-.562 1.304-.562zm9.077 0c.468 0 .936.19 1.293.562.317.358.536.853.536 1.39 0 .535-.22 1.058-.536 1.374a1.76 1.76 0 0 1-1.293.578c-.508 0-.962-.193-1.306-.578-.357-.316-.536-.84-.536-1.375 0-.537.18-1.032.537-1.39.345-.37.8-.562 1.307-.562zm8.72 0c.48 0 .92.22 1.265.52.344.373.537.867.537 1.43 0 .592-.194 1.075-.538 1.46a1.8 1.8 0 0 1-1.266.508c-.522 0-.976-.178-1.32-.508-.316-.385-.494-.868-.494-1.46 0-.563.178-1.057.494-1.43a2 2 0 0 1 1.32-.52zm83.663 0c.468 0 .936.19 1.293.562.316.358.535.853.535 1.39 0 .535-.22 1.058-.535 1.374a1.76 1.76 0 0 1-1.293.578c-.51 0-.963-.193-1.306-.578-.358-.316-.538-.84-.538-1.375 0-.537.18-1.032.538-1.39.343-.37.797-.562 1.306-.562z" fill="#fff" fill-rule="evenodd"/></g></svg>
