<?xml version="1.0" encoding="UTF-8" standalone="no"?>
<!-- Created with Inkscape (http://www.inkscape.org/) -->

<svg
   xmlns:dc="http://purl.org/dc/elements/1.1/"
   xmlns:cc="http://creativecommons.org/ns#"
   xmlns:rdf="http://www.w3.org/1999/02/22-rdf-syntax-ns#"
   xmlns:svg="http://www.w3.org/2000/svg"
   xmlns="http://www.w3.org/2000/svg"
   xmlns:xlink="http://www.w3.org/1999/xlink"
   xmlns:sodipodi="http://sodipodi.sourceforge.net/DTD/sodipodi-0.dtd"
   xmlns:inkscape="http://www.inkscape.org/namespaces/inkscape"
   sodipodi:docname="support-via-gratipay.svg"
   inkscape:version="0.91 r13725"
   version="1.1"
   id="svg2"
   viewBox="0 0 203 49.000001"
   height="49"
   width="203"
   inkscape:export-filename="./support-via-gratipay-49px.png"
   inkscape:export-xdpi="90"
   inkscape:export-ydpi="90">
  <sodipodi:namedview
     showguides="false"
     gridtolerance="10"
     inkscape:bbox-paths="true"
     inkscape:snap-others="true"
     inkscape:snap-nodes="true"
     inkscape:bbox-nodes="true"
     inkscape:snap-bbox="true"
     guidetolerance="20"
     inkscape:window-maximized="1"
     inkscape:window-y="-8"
     inkscape:window-x="-8"
     inkscape:window-height="1017"
     inkscape:window-width="1920"
     fit-margin-bottom="0"
     fit-margin-right="0"
     fit-margin-left="0"
     fit-margin-top="0"
     units="px"
     showgrid="false"
     inkscape:current-layer="layer1"
     inkscape:document-units="px"
     inkscape:cy="24.5"
     inkscape:cx="-197.5"
     inkscape:zoom="1"
     inkscape:pageshadow="2"
     inkscape:pageopacity="0.0"
     borderopacity="1.0"
     bordercolor="#666666"
     pagecolor="#ffffff"
     id="base">
    <sodipodi:guide
       position="0,0"
       orientation="0,203"
       id="guide8134" />
    <sodipodi:guide
       position="203,0"
       orientation="-49,0"
       id="guide8136" />
    <sodipodi:guide
       position="203,49.000001"
       orientation="0,-203"
       id="guide8138" />
    <sodipodi:guide
       position="0,49.000001"
       orientation="49,0"
       id="guide8140" />
    <inkscape:grid
       id="grid20188"
       type="xygrid" />
    <sodipodi:guide
       id="guide20196"
       orientation="0,28.868286"
       position="10.462177,9.9740038" />
    <sodipodi:guide
       id="guide20200"
       orientation="0,-28.868286"
       position="39.330464,38.842291" />
    <sodipodi:guide
       id="guide20210"
       orientation="-50.385986,0"
       position="10.157704,-1.3859818" />
    <sodipodi:guide
       id="guide20216"
       orientation="-28.868286,0"
       position="39.02599,9.9740038" />
    <sodipodi:guide
       id="guide8151"
       orientation="0,203"
       position="0,0" />
    <sodipodi:guide
       id="guide8153"
       orientation="-49,0"
       position="203,0" />
    <sodipodi:guide
       id="guide8155"
       orientation="0,-203"
       position="203,49.000001" />
    <sodipodi:guide
       id="guide8157"
       orientation="49,0"
       position="0,49.000001" />
    <sodipodi:guide
       id="guide8182"
       orientation="0,5.8495178"
       position="119.54549,20.801763" />
    <sodipodi:guide
       id="guide8186"
       orientation="0,-5.8495178"
       position="125.39501,28.198217" />
    <sodipodi:guide
       id="guide8212"
       orientation="0,-6.27"
       position="70.475831,18.251793" />
    <sodipodi:guide
       id="guide8241"
       orientation="49,0"
       position="192.8423,49.000006" />
    <sodipodi:guide
       id="guide8243"
       orientation="0,10.157715"
       position="192.8423,4.5996095e-006" />
    <sodipodi:guide
       id="guide8245"
       orientation="-49,0"
       position="203.00002,4.5996095e-006" />
    <sodipodi:guide
       id="guide8247"
       orientation="0,-10.157715"
       position="203.00002,49.000006" />
  </sodipodi:namedview>
  <defs
     id="defs4">
    <linearGradient
       inkscape:collect="always"
       id="linearGradient13828">
      <stop
         style="stop-color:#000000;stop-opacity:1"
         offset="0"
         id="stop13830" />
      <stop
         style="stop-color:#000000;stop-opacity:0;"
         offset="1"
         id="stop13832" />
    </linearGradient>
    <linearGradient
       y2="98.716949"
       x2="-0.24565184"
       y1="-1.0177006"
       x1="49.621674"
       id="linearGradient-1"
       gradientTransform="matrix(2.035401,0,0,0.49130368,2.6911564,63.074968)"
       gradientUnits="userSpaceOnUse">
      <stop
         id="stop8073"
         offset="0%"
         stop-color="rgb(138, 221, 109)" />
      <stop
         id="stop8075"
         offset="100%"
         stop-color="rgb(96, 176, 68)"
         style="stop-color:#75c759;stop-opacity:1" />
    </linearGradient>
    <filter
       filterUnits="objectBoundingBox"
       height="2"
       width="2"
       y="-0.5"
       x="-0.5"
       id="filter-2">
      <feOffset
         id="feOffset8078"
         dy="-1"
         dx="0"
         in="SourceAlpha"
         result="shadowOffsetOuter1" />
      <feGaussianBlur
         id="feGaussianBlur8080"
         stdDeviation="0"
         in="shadowOffsetOuter1"
         result="shadowBlurOuter1" />
      <feColorMatrix
         id="feColorMatrix8082"
         values="0 0 0 0 0 0 0 0 0 0 0 0 0 0 0 0 0 0 0.35 0"
         type="matrix"
         in="shadowBlurOuter1"
         result="shadowMatrixOuter1" />
      <feMerge
         id="feMerge8084">
        <feMergeNode
           id="feMergeNode8086"
           in="shadowMatrixOuter1" />
        <feMergeNode
           id="feMergeNode8088"
           in="SourceGraphic" />
      </feMerge>
    </filter>
    <linearGradient
       spreadMethod="pad"
       gradientTransform="matrix(0,134.75244,134.75244,0,150.74951,247.73047)"
       gradientUnits="userSpaceOnUse"
       id="linearGradient2840"
       y2="0"
       x2="1"
       y1="0"
       x1="0">
      <stop
         offset="0"
         style="stop-color:#ea5f29;stop-opacity:1"
         id="stop2842" />
      <stop
         offset="1"
         style="stop-color:#fabd1f;stop-opacity:1"
         id="stop2844" />
    </linearGradient>
    <linearGradient
       spreadMethod="pad"
       gradientTransform="matrix(0,-134.75195,-134.75195,0,160.87451,372.12109)"
       gradientUnits="userSpaceOnUse"
       id="linearGradient2860"
       y2="0"
       x2="1"
       y1="0"
       x1="0">
      <stop
         offset="0"
         style="stop-color:#abd33c;stop-opacity:1"
         id="stop2862" />
      <stop
         offset="1"
         style="stop-color:#6cb02f;stop-opacity:1"
         id="stop2864" />
    </linearGradient>
    <clipPath
       id="clipPath2872">
      <path
         inkscape:connector-curvature="0"
         id="path2874"
         d="m 0,595.276 841.89,0 L 841.89,0 0,0 0,595.276 Z" />
    </clipPath>
    <linearGradient
       inkscape:collect="always"
       xlink:href="#linearGradient13828"
       id="linearGradient13834"
       x1="106.82645"
       y1="10.1582"
       x2="106.82645"
       y2="78.052528"
       gradientUnits="userSpaceOnUse" />
  </defs>
  <metadata
     id="metadata7">
    <rdf:RDF>
      <cc:Work
         rdf:about="">
        <dc:format>image/svg+xml</dc:format>
        <dc:type
           rdf:resource="http://purl.org/dc/dcmitype/StillImage" />
        <dc:title />
      </cc:Work>
    </rdf:RDF>
  </metadata>
  <g
     inkscape:label="Layer 1"
     inkscape:groupmode="layer"
     id="layer1"
     transform="translate(-284.25642,-325.00504)">
    <rect
       rx="0"
       y="325.09689"
       x="284.25641"
       height="49"
       width="203"
       id="rect8142"
       style="opacity:1;fill:#75c759;fill-opacity:1;fill-rule:nonzero;stroke:none;stroke-width:2;stroke-linecap:round;stroke-linejoin:miter;stroke-miterlimit:4;stroke-dasharray:none;stroke-dashoffset:0;stroke-opacity:1" />
    <path
       style="opacity:0.15;fill:url(#linearGradient13834);fill-opacity:1;fill-rule:evenodd;stroke:none;stroke-width:1"
       d="M 24.728516 10.294922 C 16.757016 10.294922 10.294922 16.757016 10.294922 24.728516 C 10.294922 28.714646 11.909664 32.323737 14.521484 34.935547 L 28.677734 49.091797 L 127.96289 49.091797 L 97.529297 18.658203 C 97.393057 18.521963 97.203844 18.439453 96.990234 18.439453 C 96.563984 18.439453 96.220703 18.769063 96.220703 19.195312 L 96.220703 21.189453 L 95.822266 21.189453 C 95.396016 21.189453 95.066406 21.519063 95.066406 21.945312 C 95.066406 22.153732 95.150802 22.344182 95.289062 22.482422 L 96.220703 23.414062 L 96.220703 23.882812 L 93.751953 21.414062 C 93.621163 21.283273 93.438439 21.203125 93.230469 21.203125 C 92.542969 21.189425 91.951797 21.437734 91.498047 21.740234 C 91.466747 21.762634 91.437097 21.800878 91.404297 21.830078 L 91.001953 21.427734 C 90.863353 21.289134 90.668045 21.203125 90.453125 21.203125 C 90.054375 21.203125 89.724609 21.519219 89.724609 21.917969 L 89.724609 25.255859 L 86.550781 22.082031 C 85.994811 21.526071 85.230334 21.189453 84.396484 21.189453 C 83.447734 21.189453 82.65 21.588125 82.03125 22.234375 C 81.44 22.894375 81.083984 23.705625 81.083984 24.640625 C 81.083984 24.876525 81.105484 25.105512 81.146484 25.326172 L 77.980469 22.160156 C 77.381189 21.560886 76.568584 21.189453 75.677734 21.189453 C 75.018154 21.189453 74.399477 21.401922 73.904297 21.701172 L 73.625 21.421875 C 73.48522 21.282105 73.280781 21.189453 73.050781 21.189453 C 72.652031 21.189453 72.322266 21.519219 72.322266 21.917969 L 72.322266 24.640625 L 72.322266 24.654297 L 72.322266 25.580078 L 68.902344 22.160156 C 68.303064 21.560886 67.490459 21.189453 66.599609 21.189453 C 65.940029 21.189453 65.323095 21.401922 64.828125 21.701172 L 64.548828 21.421875 C 64.409058 21.282105 64.204609 21.189453 63.974609 21.189453 C 63.575859 21.189453 63.246094 21.519219 63.246094 21.917969 L 63.246094 24.445312 L 60.216797 21.416016 C 60.078687 21.277906 59.889269 21.189453 59.693359 21.189453 C 59.280859 21.189453 58.978516 21.532969 58.978516 21.917969 L 58.978516 24.464844 L 55.916016 21.402344 C 55.785966 21.272294 55.606997 21.189453 55.404297 21.189453 C 55.026177 21.189453 54.721133 21.501068 54.689453 21.861328 L 52.175781 19.347656 C 52.145681 19.317556 52.112072 19.290525 52.076172 19.265625 C 51.374922 18.811875 50.400078 18.164062 49.080078 18.164062 C 48.186328 18.164062 47.347422 18.427031 46.701172 18.894531 C 46.068672 19.362031 45.601562 20.075391 45.601562 20.900391 C 45.601562 21.312891 45.709766 21.699297 45.916016 22.029297 C 46.016636 22.189377 46.134495 22.333714 46.265625 22.464844 L 50.232422 26.431641 C 49.899632 26.555601 49.518992 26.634766 49.107422 26.634766 C 48.131172 26.648566 47.085469 26.071172 46.480469 25.576172 C 46.301089 25.429402 46.070635 25.394882 45.859375 25.445312 L 34.935547 14.521484 C 32.323877 11.909814 28.715016 10.294922 24.728516 10.294922 z M 134.72656 18.164062 C 131.93531 18.164062 129.65236 20.365156 129.65234 23.128906 C 129.65234 24.474626 130.19856 25.684892 131.08398 26.570312 L 153.60547 49.091797 L 203 49.091797 L 203 36.710938 L 187.69727 21.408203 C 187.56075 21.271683 187.37044 21.189453 187.16602 21.189453 C 186.75352 21.189453 186.45117 21.505469 186.45117 21.917969 L 186.45117 24.449219 L 183.39844 21.396484 C 183.26978 21.267824 183.08833 21.189453 182.87695 21.189453 C 182.5057 21.189453 182.16211 21.505469 182.16211 21.917969 L 182.16211 24.185547 L 179.37891 21.402344 C 179.2469 21.270344 179.06685 21.189453 178.86914 21.189453 C 178.51164 21.189453 178.2368 21.451172 178.1543 21.794922 C 177.6318 21.423672 177.01367 21.189453 176.32617 21.189453 C 175.39117 21.189453 174.57953 21.588203 173.98828 22.220703 C 173.39703 22.839453 173.05273 23.691875 173.05273 24.640625 C 173.05273 24.719425 173.06932 24.793534 173.07422 24.871094 L 170.36328 22.160156 C 169.764 21.560886 168.9514 21.189453 168.06055 21.189453 C 167.40097 21.189453 166.78229 21.401922 166.28711 21.701172 L 166.00781 21.421875 C 165.86804 21.282105 165.66358 21.189453 165.43359 21.189453 C 165.22225 21.189453 165.03415 21.285251 164.90039 21.431641 L 162.12109 18.652344 C 161.98904 18.520294 161.80513 18.439453 161.59375 18.439453 C 161.18125 18.439453 160.85156 18.769141 160.85156 19.181641 L 160.85156 19.470703 C 160.85156 19.680373 160.93626 19.871836 161.07422 20.009766 L 164.70508 23.640625 L 164.70508 23.996094 L 162.12109 21.412109 C 161.98903 21.280049 161.8052 21.203125 161.59375 21.203125 C 161.18125 21.203125 160.85156 21.518984 160.85156 21.958984 L 160.85156 22.416016 L 157.09766 18.662109 C 156.96169 18.523919 156.77196 18.439453 156.55664 18.439453 C 156.13039 18.439453 155.78711 18.769063 155.78711 19.195312 L 155.78711 21.189453 L 155.38672 21.189453 C 154.96047 21.189453 154.63086 21.519063 154.63086 21.945312 C 154.63086 22.153732 154.71536 22.344182 154.85352 22.482422 L 155.78711 23.416016 L 155.78711 24.773438 L 152.41602 21.402344 C 152.28401 21.270344 152.10396 21.189453 151.90625 21.189453 C 151.54875 21.189453 151.27391 21.451172 151.19141 21.794922 C 150.66891 21.423672 150.05078 21.189453 149.36328 21.189453 C 148.42828 21.189453 147.61664 21.588203 147.02539 22.220703 C 146.85016 22.404083 146.70353 22.613134 146.57422 22.833984 L 145.1543 21.414062 C 145.02351 21.283273 144.84079 21.203125 144.63281 21.203125 C 143.94531 21.189425 143.35414 21.437734 142.90039 21.740234 C 142.86909 21.762634 142.83944 21.800878 142.80664 21.830078 L 142.4043 21.427734 C 142.2657 21.289134 142.07039 21.203125 141.85547 21.203125 C 141.45672 21.203125 141.12695 21.519219 141.12695 21.917969 L 141.12695 22.490234 L 137.95117 19.314453 C 137.92377 19.287053 137.89363 19.261981 137.86133 19.238281 C 137.00883 18.564531 135.89531 18.164062 134.72656 18.164062 z M 114.16797 18.439453 C 113.75547 18.439453 113.42578 18.769141 113.42578 19.181641 L 113.42578 19.470703 C 113.42578 19.680373 113.51048 19.871836 113.64844 20.009766 L 116.8457 23.207031 C 116.8094 23.291631 116.7798 23.378607 116.75 23.466797 L 114.69531 21.412109 C 114.56325 21.280049 114.37942 21.203125 114.16797 21.203125 C 113.75547 21.203125 113.42578 21.518984 113.42578 21.958984 L 113.42578 24.255859 L 110.69727 21.527344 C 110.62747 21.457544 110.54152 21.398369 110.44141 21.355469 C 110.08391 21.190469 109.67078 21.382676 109.51953 21.753906 L 108.5918 23.925781 L 106.17969 21.513672 C 106.04247 21.376452 105.86072 21.296222 105.68164 21.294922 C 105.59274 21.294282 105.50437 21.314169 105.42188 21.355469 C 105.03688 21.520469 104.85844 21.917813 105.02344 22.289062 L 107.25 27.625 C 107.2611 27.6582 107.27427 27.690284 107.29297 27.708984 L 107.29883 27.714844 L 107.30664 27.724609 C 107.30678 27.727609 107.30717 27.731422 107.30859 27.732422 L 107.34375 27.769531 C 107.36015 27.791031 107.37987 27.812578 107.38867 27.830078 L 128.65039 49.091797 L 150.56445 49.091797 L 122.875 21.402344 C 122.743 21.270344 122.56293 21.189453 122.36523 21.189453 C 122.00773 21.189453 121.73289 21.451172 121.65039 21.794922 C 121.12789 21.423672 120.50977 21.189453 119.82227 21.189453 C 119.08738 21.189453 118.43184 21.440976 117.89648 21.853516 L 114.69531 18.652344 C 114.56326 18.520294 114.37935 18.439453 114.16797 18.439453 z "
       transform="translate(284.25642,325.00504)"
       id="path11984" />
    <path
       inkscape:connector-curvature="0"
       id="path11933"
       d="m 308.84822,335.16324 c -7.9715,0 -14.4336,6.4621 -14.4336,14.4336 0,7.9725 6.4621,14.43359 14.4336,14.43359 7.97351,0 14.43359,-6.46109 14.43359,-14.43359 0,-7.9715 -6.46009,-14.4336 -14.43359,-14.4336 z m 24.35156,7.86914 c -0.89375,0 -1.73266,0.26297 -2.37891,0.73047 -0.6325,0.4675 -1.09961,1.18086 -1.09961,2.00586 0,0.4125 0.10821,0.79891 0.31446,1.12891 0.3025,0.48125 0.75679,0.82476 1.27929,1.07226 0.5225,0.2475 1.12719,0.41141 1.77344,0.53516 l 0.0273,0 c 0.81125,0.15125 1.48602,0.38523 1.88477,0.64648 0.20625,0.1375 0.32961,0.27461 0.41211,0.41211 0.0825,0.1375 0.12304,0.26266 0.12304,0.44141 0,0.34375 -0.17734,0.68773 -0.58984,0.99023 -0.4125,0.3025 -1.03125,0.50782 -1.71875,0.50782 -0.97625,0.0138 -2.02195,-0.5636 -2.62695,-1.0586 -0.3025,-0.2475 -0.75641,-0.20674 -1.00391,0.0957 -0.23375,0.3025 -0.19312,0.75641 0.10937,1.00391 0.78375,0.61875 2.03649,1.36125 3.52149,1.375 0.97625,0 1.86922,-0.2882 2.54297,-0.7832 0.6875,-0.495 1.18359,-1.25086 1.18359,-2.13086 0,-0.42625 -0.12383,-0.83992 -0.33008,-1.16992 -0.31625,-0.50876 -0.81125,-0.86563 -1.375,-1.14063 -0.54999,-0.26125 -1.19718,-0.44062 -1.89843,-0.57812 l -0.0273,0 c -0.7425,-0.1375 -1.36125,-0.35602 -1.71875,-0.60352 -0.17875,-0.12375 -0.30234,-0.24742 -0.37109,-0.35742 -0.0688,-0.11 -0.0957,-0.22172 -0.0957,-0.38672 0,-0.28875 0.15023,-0.59023 0.52148,-0.86523 0.37125,-0.275 0.92227,-0.4668 1.54102,-0.4668 0.83875,0 1.51164,0.41141 2.21289,0.87891 0.33,0.22 0.77031,0.12297 0.97656,-0.20703 0.22,-0.31625 0.12289,-0.75461 -0.19336,-0.97461 -0.70125,-0.45375 -1.67609,-1.10157 -2.99609,-1.10157 z m 85.64648,0 c -2.79125,0 -5.07421,2.2011 -5.07422,4.96485 0,2.75 2.28297,4.93554 5.07422,4.93554 1.16875,0 2.25485,-0.39851 3.1211,-1.07226 0.1375,-0.0963 0.22047,-0.20633 0.26172,-0.33008 l 0,-0.0137 c 0.0138,-0.0275 0.0136,-0.0409 0.0273,-0.0684 0.0138,-0.0825 0.041,-0.13812 0.041,-0.23437 l 0,-3.03907 c 0,-0.44 -0.35688,-0.76953 -0.79688,-0.76953 l -0.0156,0 -0.0137,0 -2.70703,0 c -0.42625,0 -0.78515,0.32953 -0.78515,0.76953 0,0.42625 0.3589,0.78516 0.78515,0.78516 l 1.96485,0 0,1.88281 c -0.55,0.31625 -1.19532,0.52344 -1.88282,0.52344 -0.99,0 -1.85586,-0.37141 -2.47461,-1.00391 -0.64625,-0.61875 -1.03125,-1.45773 -1.03125,-2.36523 0,-0.935 0.385,-1.77383 1.03125,-2.39258 0.61875,-0.6325 1.48461,-1.0039 2.47461,-1.0039 0.825,0 1.58063,0.28843 2.17188,0.74218 0.34375,0.275 0.85203,0.20696 1.11328,-0.12304 0.26125,-0.34375 0.20711,-0.85203 -0.15039,-1.11329 -0.8525,-0.67374 -1.96602,-1.07421 -3.13477,-1.07421 z m -37.73632,0.27539 c -0.42625,0 -0.76954,0.32961 -0.76954,0.75586 l 0,1.99414 -0.39843,0 c -0.42625,0 -0.75586,0.32961 -0.75586,0.75586 0,0.4125 0.32961,0.75782 0.75586,0.75782 l 0.39843,0 0,3.83593 c 0,0.83875 0.6886,1.52539 1.52735,1.52539 0.42625,0 0.75586,-0.32961 0.75586,-0.75586 0,-0.42624 -0.32961,-0.76953 -0.75586,-0.76953 l 0,-3.83593 0.34375,0 c 0.4125,0 0.76953,-0.34532 0.76953,-0.75782 0,-0.42625 -0.35703,-0.75586 -0.76953,-0.75586 l -0.34375,0 0,-1.99414 c 0,-0.42625 -0.33156,-0.75586 -0.75781,-0.75586 z m 17.17773,0 c -0.4125,0 -0.74219,0.32969 -0.74219,0.74219 l 0,0.28906 c 0,0.4125 0.32969,0.75586 0.74219,0.75586 0.42625,0 0.74219,-0.34336 0.74219,-0.75586 l 0,-0.28906 c 0,-0.4125 -0.31594,-0.74219 -0.74219,-0.74219 z m 42.38867,0 c -0.42625,0 -0.76953,0.32961 -0.76953,0.75586 l 0,1.99414 -0.40039,0 c -0.42625,0 -0.75586,0.32961 -0.75586,0.75586 0,0.4125 0.32961,0.75782 0.75586,0.75782 l 0.40039,0 0,3.83593 c 0,0.83875 0.68664,1.52539 1.52539,1.52539 0.42625,0 0.75586,-0.32961 0.75586,-0.75586 0,-0.42624 -0.32961,-0.76953 -0.75586,-0.76953 l 0,-3.83593 0.34375,0 c 0.4125,0 0.76953,-0.34532 0.76953,-0.75782 0,-0.42625 -0.35703,-0.75586 -0.76953,-0.75586 l -0.34375,0 0,-1.99414 c 0,-0.42625 -0.32961,-0.75586 -0.75586,-0.75586 z m 5.03711,0 c -0.4125,0 -0.74219,0.32969 -0.74219,0.74219 l 0,0.28906 c 0,0.4125 0.32969,0.75586 0.74219,0.75586 0.42625,0 0.74219,-0.34336 0.74219,-0.75586 l 0,-0.28906 c 0,-0.4125 -0.31594,-0.74219 -0.74219,-0.74219 z m -140.76172,0.34766 c 0.9198,0.059 1.70769,0.61553 2.21289,1.20313 0.3021,0.3503 0.82989,0.74414 1.80469,0.74414 0.9767,0 1.4781,-0.39384 1.7793,-0.74414 0.80831,-0.9402 2.34445,-1.77032 3.96875,-0.69922 1.9072,1.2577 1.37366,3.5331 0.81836,4.1875 l -6.56641,8.90039 -6.56836,-8.90039 c -0.5552,-0.6544 -1.11239,-2.9298 0.79492,-4.1875 0.60909,-0.4016 1.20395,-0.53941 1.75586,-0.50391 z m 34.57227,2.40234 c -0.39875,0 -0.72852,0.34352 -0.72852,0.72852 l 0,3.28711 c 0,1.5675 1.29188,2.85937 2.85938,2.85937 1.58125,0 2.90039,-1.29187 2.90039,-2.85937 l 0,-3.28711 c 0,-0.385 -0.35719,-0.72852 -0.74219,-0.72852 -0.4125,0 -0.71484,0.34352 -0.71484,0.72852 l 0,3.28711 c -0.0138,0.78375 -0.64586,1.40234 -1.44336,1.40234 -0.78375,0 -1.40235,-0.61859 -1.40235,-1.40234 l 0,-3.28711 c 0,-0.385 -0.31601,-0.72852 -0.72851,-0.72852 z m 8.57031,0 c -0.39875,0 -0.72852,0.32977 -0.72852,0.72852 l 0,2.72266 0,0.0137 0,5.2539 c 0,0.385 0.32977,0.74219 0.72852,0.74219 0.44,0 0.7832,-0.35719 0.7832,-0.74219 l 0,-2.41992 c 0.495,0.3575 1.1543,0.5625 1.8418,0.5625 1.82875,0 3.32813,-1.52641 3.32813,-3.41016 0,-1.88375 -1.49938,-3.45117 -3.32813,-3.45117 -0.70125,0 -1.36039,0.23446 -1.86914,0.56446 -0.055,-0.30251 -0.37086,-0.56446 -0.75586,-0.56446 z m 9.07617,0 c -0.39875,0 -0.72851,0.32977 -0.72851,0.72852 l 0,2.72266 0,0.0137 0,5.2539 c 0,0.385 0.32976,0.74219 0.72851,0.74219 0.44,0 0.78321,-0.35719 0.78321,-0.74219 l 0,-2.41992 c 0.495,0.3575 1.15625,0.5625 1.84375,0.5625 1.82875,0 3.32812,-1.52641 3.32812,-3.41016 0,-1.88375 -1.49937,-3.45117 -3.32812,-3.45117 -0.70125,0 -1.36235,0.23446 -1.8711,0.56446 -0.055,-0.30251 -0.37086,-0.56446 -0.75586,-0.56446 z m 11.34571,0 c -0.94875,0 -1.74649,0.39868 -2.36524,1.04493 -0.59125,0.66 -0.94726,1.47125 -0.94726,2.40625 0,0.9625 0.35601,1.81492 0.94726,2.41992 0.61875,0.64625 1.41649,1.04492 2.36524,1.04492 0.9075,0 1.73312,-0.39867 2.29687,-1.04492 0.61875,-0.605 0.96289,-1.45742 0.96289,-2.41992 0,-0.935 -0.34414,-1.74625 -0.96289,-2.40625 -0.56375,-0.64625 -1.38937,-1.04493 -2.29687,-1.04493 z m 35.42578,0 c -0.935,0 -1.74664,0.39875 -2.33789,1.03125 -0.59125,0.61875 -0.93555,1.47118 -0.93555,2.41993 0,0.935 0.3443,1.78742 0.93555,2.41992 0.59125,0.61875 1.40289,1.0039 2.33789,1.0039 0.6875,0 1.30562,-0.21859 1.82812,-0.58984 0.0825,0.33 0.35735,0.58984 0.71485,0.58984 0.39875,0 0.72851,-0.32976 0.72851,-0.72851 l 0,-2.69531 0,-2.70899 c 0,-0.4125 -0.32976,-0.74219 -0.72851,-0.74219 -0.3575,0 -0.63235,0.26172 -0.71485,0.60547 -0.5225,-0.37125 -1.14062,-0.60547 -1.82812,-0.60547 z m 29.54101,0 c -0.935,0 -1.74664,0.39875 -2.33789,1.03125 -0.59125,0.61875 -0.93555,1.47118 -0.93555,2.41993 0,0.935 0.3443,1.78742 0.93555,2.41992 0.59125,0.61875 1.40289,1.0039 2.33789,1.0039 0.6875,0 1.30563,-0.21859 1.82813,-0.58984 0.0825,0.33 0.35734,0.58984 0.71484,0.58984 0.39875,0 0.72852,-0.32976 0.72852,-0.72851 l 0,-2.69531 0,-2.70899 c 0,-0.4125 -0.32977,-0.74219 -0.72852,-0.74219 -0.3575,0 -0.63234,0.26172 -0.71484,0.60547 -0.5225,-0.37125 -1.14063,-0.60547 -1.82813,-0.60547 z m 16.07032,0 c -0.39876,0 -0.72852,0.32977 -0.72852,0.72852 l 0,2.72266 0,0.0137 0,5.2539 c 0,0.385 0.32976,0.74219 0.72852,0.74219 0.43999,0 0.7832,-0.35719 0.7832,-0.74219 l 0,-2.41992 c 0.495,0.3575 1.15625,0.5625 1.84375,0.5625 1.82875,0 3.32812,-1.52641 3.32812,-3.41016 0,-1.88375 -1.49937,-3.45117 -3.32812,-3.45117 -0.70125,0 -1.36235,0.23446 -1.8711,0.56446 -0.055,-0.30251 -0.37085,-0.56446 -0.75585,-0.56446 z m 10.89257,0 c -0.935,0 -1.74664,0.39875 -2.33789,1.03125 -0.59125,0.61875 -0.93554,1.47118 -0.93554,2.41993 0,0.935 0.34429,1.78742 0.93554,2.41992 0.59125,0.61875 1.40289,1.0039 2.33789,1.0039 0.6875,0 1.30563,-0.21859 1.82813,-0.58984 0.0825,0.33 0.35734,0.58984 0.71484,0.58984 0.39875,0 0.72852,-0.32976 0.72852,-0.72851 l 0,-2.69531 0,-2.70899 c 0,-0.4125 -0.32977,-0.74219 -0.72852,-0.74219 -0.3575,0 -0.63234,0.26172 -0.71484,0.60547 -0.5225,-0.37125 -1.14063,-0.60547 -1.82813,-0.60547 z m 6.55078,0 c -0.37125,0 -0.71484,0.31602 -0.71484,0.72852 l 0,3.24609 c 0,1.58125 1.2918,2.88672 2.87305,2.88672 0.45375,0 0.92164,-0.11008 1.30664,-0.33008 -0.22,0.715 -0.9075,1.23821 -1.71875,1.25196 -0.275,0 -0.53563,-0.0696 -0.79688,-0.19336 -0.33,-0.17875 -0.79781,-0.0273 -0.97656,0.30273 -0.165,0.385 -0.0276,0.81156 0.35742,0.97656 0.4125,0.20626 0.92102,0.34375 1.41602,0.34375 1.82875,0 3.28515,-1.4446 3.28515,-3.2871 l 0,-1.95118 0,-3.24609 c 0,-0.4125 -0.34343,-0.72852 -0.74218,-0.72852 -0.4125,0 -0.71485,0.31602 -0.71485,0.72852 l 0,3.24609 c 0,0.7975 -0.63226,1.40235 -1.41601,1.40235 -0.78375,0 -1.42969,-0.60485 -1.42969,-1.40235 l 0,-3.24609 c 0,-0.4125 -0.30227,-0.72852 -0.72852,-0.72852 z m -92.42382,0.0137 c -0.39875,0 -0.72852,0.3161 -0.72852,0.71485 l 0,5.41797 c 0,0.39875 0.32977,0.72851 0.72852,0.72851 0.4125,0 0.75586,-0.32976 0.75586,-0.72851 l 0,-2.61133 c 0.0687,-0.1925 0.23445,-0.71625 0.56445,-1.15625 0.165,-0.26125 0.37156,-0.49516 0.63281,-0.66016 0.23375,-0.17875 0.50797,-0.25976 0.82422,-0.25976 0.4125,0 0.72852,-0.34547 0.72852,-0.73047 0,-0.39875 -0.31602,-0.71485 -0.72852,-0.71485 -0.6875,-0.0137 -1.27867,0.23461 -1.73242,0.53711 -0.0962,0.0688 -0.20656,0.17914 -0.28906,0.27539 l 0,-0.0977 c 0,-0.39875 -0.34336,-0.71484 -0.75586,-0.71484 z m 23.71484,0 c -0.4125,0 -0.74219,0.31586 -0.74219,0.75586 l 0,5.36328 c 0,0.41251 0.32969,0.74219 0.74219,0.74219 0.42625,0 0.74219,-0.32968 0.74219,-0.74219 l 0,-5.36328 c 0,-0.44 -0.31594,-0.75586 -0.74219,-0.75586 z m 27.6875,0 c -0.39875,0 -0.72852,0.3161 -0.72852,0.71485 l 0,5.41797 c 0,0.39875 0.32977,0.72851 0.72852,0.72851 0.4125,0 0.75586,-0.32976 0.75586,-0.72851 l 0,-2.61133 c 0.0688,-0.1925 0.23445,-0.71625 0.56445,-1.15625 0.165,-0.26125 0.36961,-0.49516 0.63086,-0.66016 0.23375,-0.17875 0.50992,-0.25976 0.82617,-0.25976 0.4125,0 0.72852,-0.34547 0.72852,-0.73047 0,-0.39875 -0.31602,-0.71485 -0.72852,-0.71485 -0.6875,-0.0137 -1.27867,0.23461 -1.73242,0.53711 -0.0962,0.0688 -0.20656,0.17914 -0.28906,0.27539 l 0,-0.0977 c 0,-0.39875 -0.34336,-0.71484 -0.75586,-0.71484 z m 19.73828,0 c -0.4125,0 -0.74219,0.31586 -0.74219,0.75586 l 0,5.36328 c 0,0.41251 0.32969,0.74219 0.74219,0.74219 0.42625,0 0.74219,-0.32968 0.74219,-0.74219 l 0,-5.36328 c 0,-0.44 -0.31594,-0.75586 -0.74219,-0.75586 z m -55.91211,0.0918 c -0.0889,-6.4e-4 -0.17726,0.0193 -0.25976,0.0606 -0.385,0.165 -0.56344,0.56235 -0.39844,0.9336 l 2.22656,5.33594 c 0.0138,0.0412 0.0291,0.082 0.0566,0.0957 0,0.0137 -1.3e-4,0.0137 0.0137,0.0137 0.0275,0.0275 0.0546,0.0683 0.0684,0.0957 0.0137,0.0138 0.0136,0.0156 0.0274,0.0156 0.0275,0.0412 0.0545,0.0545 0.082,0.082 0,0 0.0137,-1.3e-4 0.0137,0.0137 0.055,0.0275 0.0837,0.0546 0.125,0.0684 l 0.0273,0 0,0.0137 c 0.0412,0 0.0682,0.0136 0.10938,0.0274 l 0.0273,0 c 0.055,0.0138 0.0955,0.0137 0.12305,0.0137 0.0412,0 0.0837,1.2e-4 0.13867,-0.0137 l 0.0273,0 c 0.0275,-0.0138 0.0682,-0.0274 0.10938,-0.0274 l 0,-0.0137 0.0273,0 c 0.0413,-0.0138 0.0702,-0.0408 0.0977,-0.0684 0,-0.0138 0.0137,-0.0137 0.0137,-0.0137 0.0275,-0.0275 0.0545,-0.0407 0.082,-0.082 0,0 0.0137,-0.002 0.0137,-0.0156 0.0275,-0.0275 0.0545,-0.0682 0.082,-0.0957 0,0 0.0137,2e-5 0.0137,-0.0137 0.0138,-0.0138 0.0409,-0.0545 0.0547,-0.0957 l 2.25585,-5.33594 c 0.16501,-0.37125 -0.0134,-0.7686 -0.39843,-0.9336 -0.3575,-0.165 -0.77063,0.0272 -0.92188,0.39844 l -1.5957,3.74024 -1.58008,-3.74024 c -0.12375,-0.27844 -0.39527,-0.45705 -0.66211,-0.45898 z m 14.14063,1.36719 c 0.48125,0 0.94929,0.19125 1.27929,0.5625 0.33,0.34375 0.53516,0.83852 0.53516,1.41602 0,0.56375 -0.20516,1.05851 -0.53516,1.41601 -0.33,0.34375 -0.79804,0.53711 -1.27929,0.53711 -0.495,0 -0.96305,-0.19336 -1.2793,-0.53711 -0.33,-0.3575 -0.52148,-0.85226 -0.52148,-1.41601 0,-0.5775 0.19148,-1.07227 0.52148,-1.41602 0.31625,-0.37125 0.7843,-0.5625 1.2793,-0.5625 z m 29.54101,0 c 0.48125,0 0.9493,0.19125 1.2793,0.5625 0.33,0.34375 0.53516,0.83852 0.53516,1.41602 0,0.56375 -0.20516,1.05851 -0.53516,1.41601 -0.33,0.34375 -0.79805,0.53711 -1.2793,0.53711 -0.495,0 -0.96304,-0.19336 -1.27929,-0.53711 -0.33,-0.3575 -0.52149,-0.85226 -0.52149,-1.41601 0,-0.5775 0.19149,-1.07227 0.52149,-1.41602 0.31625,-0.37125 0.78429,-0.5625 1.27929,-0.5625 z m 26.96289,0 c 0.48125,0 0.9493,0.19125 1.2793,0.5625 0.33,0.34375 0.53516,0.83852 0.53516,1.41602 0,0.56375 -0.20516,1.05851 -0.53516,1.41601 -0.33,0.34375 -0.79805,0.53711 -1.2793,0.53711 -0.495,0 -0.96304,-0.19336 -1.27929,-0.53711 -0.33,-0.3575 -0.52149,-0.85226 -0.52149,-1.41601 0,-0.5775 0.19149,-1.07227 0.52149,-1.41602 0.31625,-0.37125 0.78429,-0.5625 1.27929,-0.5625 z m -109.72656,0.0273 c 0.4675,0 0.93547,0.19125 1.29297,0.5625 0.31625,0.3575 0.53711,0.85242 0.53711,1.38867 0,0.53625 -0.22086,1.05875 -0.53711,1.375 -0.3575,0.385 -0.82547,0.57813 -1.29297,0.57813 -0.50875,0 -0.96094,-0.19313 -1.30469,-0.57813 -0.3575,-0.31625 -0.53711,-0.83875 -0.53711,-1.375 0,-0.53625 0.17961,-1.03117 0.53711,-1.38867 0.34375,-0.37125 0.79594,-0.5625 1.30469,-0.5625 z m 9.07813,0 c 0.4675,0 0.93546,0.19125 1.29296,0.5625 0.31625,0.3575 0.53516,0.85242 0.53516,1.38867 0,0.53625 -0.21891,1.05875 -0.53516,1.375 -0.3575,0.385 -0.82546,0.57813 -1.29296,0.57813 -0.50875,0 -0.96289,-0.19313 -1.30664,-0.57813 -0.3575,-0.31625 -0.53711,-0.83875 -0.53711,-1.375 0,-0.53625 0.17961,-1.03117 0.53711,-1.38867 0.34375,-0.37125 0.79789,-0.5625 1.30664,-0.5625 z m 8.71875,0 c 0.48125,0 0.92187,0.21899 1.26562,0.52149 0.34375,0.37125 0.53711,0.86593 0.53711,1.42968 0,0.59125 -0.19336,1.07399 -0.53711,1.45899 -0.34375,0.33 -0.78437,0.50781 -1.26562,0.50781 -0.5225,0 -0.97657,-0.17781 -1.32032,-0.50781 -0.31625,-0.385 -0.49414,-0.86774 -0.49414,-1.45899 0,-0.56375 0.17789,-1.05843 0.49414,-1.42968 0.34375,-0.3025 0.79782,-0.52149 1.32032,-0.52149 z m 83.66406,0 c 0.4675,0 0.93547,0.19125 1.29297,0.5625 0.31625,0.3575 0.53515,0.85242 0.53515,1.38867 0,0.53625 -0.2189,1.05875 -0.53515,1.375 -0.3575,0.385 -0.82547,0.57813 -1.29297,0.57813 -0.50875,0 -0.96289,-0.19313 -1.30664,-0.57813 -0.3575,-0.31625 -0.53711,-0.83875 -0.53711,-1.375 0,-0.53625 0.17961,-1.03117 0.53711,-1.38867 0.34375,-0.37125 0.79789,-0.5625 1.30664,-0.5625 z"
       style="fill:#ffffff;fill-rule:evenodd;stroke:none;stroke-width:1" />
  </g>
</svg>
