<?xml version="1.0" encoding="UTF-8" standalone="no"?>
<!-- Created with Inkscape (http://www.inkscape.org/) -->

<svg
   xmlns:dc="http://purl.org/dc/elements/1.1/"
   xmlns:cc="http://creativecommons.org/ns#"
   xmlns:rdf="http://www.w3.org/1999/02/22-rdf-syntax-ns#"
   xmlns:svg="http://www.w3.org/2000/svg"
   xmlns="http://www.w3.org/2000/svg"
   xmlns:xlink="http://www.w3.org/1999/xlink"
   xmlns:sodipodi="http://sodipodi.sourceforge.net/DTD/sodipodi-0.dtd"
   xmlns:inkscape="http://www.inkscape.org/namespaces/inkscape"
   sodipodi:docname="support-via-flattr.svg"
   inkscape:version="0.91 r13725"
   version="1.1"
   id="svg2"
   viewBox="0 0 203 49.000001"
   height="49"
   width="203"
   inkscape:export-filename="support-via-flattr-49px.png"
   inkscape:export-xdpi="90"
   inkscape:export-ydpi="90">
  <sodipodi:namedview
     showguides="false"
     gridtolerance="10"
     inkscape:bbox-paths="true"
     inkscape:snap-others="true"
     inkscape:snap-nodes="true"
     inkscape:bbox-nodes="true"
     inkscape:snap-bbox="true"
     guidetolerance="20"
     inkscape:window-maximized="1"
     inkscape:window-y="-8"
     inkscape:window-x="-8"
     inkscape:window-height="1017"
     inkscape:window-width="1920"
     fit-margin-bottom="0"
     fit-margin-right="0"
     fit-margin-left="0"
     fit-margin-top="0"
     units="px"
     showgrid="false"
     inkscape:current-layer="layer1"
     inkscape:document-units="px"
     inkscape:cy="24.5"
     inkscape:cx="-48"
     inkscape:zoom="2.8284271"
     inkscape:pageshadow="2"
     inkscape:pageopacity="0.0"
     borderopacity="1.0"
     bordercolor="#666666"
     pagecolor="#ffffff"
     id="base">
    <sodipodi:guide
       id="guide8134"
       orientation="0,203"
       position="0,0" />
    <sodipodi:guide
       id="guide8136"
       orientation="-49,0"
       position="203,0" />
    <sodipodi:guide
       id="guide8138"
       orientation="0,-203"
       position="203,49.000001" />
    <sodipodi:guide
       id="guide8140"
       orientation="49,0"
       position="0,49.000001" />
    <inkscape:grid
       type="xygrid"
       id="grid20188" />
    <sodipodi:guide
       position="10.462177,9.9740038"
       orientation="0,28.868286"
       id="guide20196" />
    <sodipodi:guide
       position="39.330464,38.842291"
       orientation="0,-28.868286"
       id="guide20200" />
    <sodipodi:guide
       position="10.157704,-1.3859818"
       orientation="-50.385986,0"
       id="guide20210" />
    <sodipodi:guide
       position="39.02599,9.9740038"
       orientation="-28.868286,0"
       id="guide20216" />
    <sodipodi:guide
       position="0,0"
       orientation="0,203"
       id="guide8151" />
    <sodipodi:guide
       position="203,0"
       orientation="-49,0"
       id="guide8153" />
    <sodipodi:guide
       position="203,49.000001"
       orientation="0,-203"
       id="guide8155" />
    <sodipodi:guide
       position="0,49.000001"
       orientation="49,0"
       id="guide8157" />
    <sodipodi:guide
       position="119.54549,20.801763"
       orientation="0,5.8495178"
       id="guide8182" />
    <sodipodi:guide
       position="125.39501,28.198217"
       orientation="0,-5.8495178"
       id="guide8186" />
    <sodipodi:guide
       position="70.475831,18.251793"
       orientation="0,-6.27"
       id="guide8212" />
    <sodipodi:guide
       position="192.8423,49.000006"
       orientation="49,0"
       id="guide8241" />
    <sodipodi:guide
       position="192.8423,4.5996095e-006"
       orientation="0,10.157715"
       id="guide8243" />
    <sodipodi:guide
       position="203.00002,4.5996095e-006"
       orientation="-49,0"
       id="guide8245" />
    <sodipodi:guide
       position="203.00002,49.000006"
       orientation="0,-10.157715"
       id="guide8247" />
  </sodipodi:namedview>
  <defs
     id="defs4">
    <linearGradient
       inkscape:collect="always"
       id="linearGradient10702">
      <stop
         style="stop-color:#000000;stop-opacity:1"
         offset="0"
         id="stop10704" />
      <stop
         style="stop-color:#000000;stop-opacity:0;"
         offset="1"
         id="stop10706" />
    </linearGradient>
    <linearGradient
       gradientUnits="userSpaceOnUse"
       gradientTransform="matrix(2.035401,0,0,0.49130368,2.6911564,63.074968)"
       id="linearGradient-1"
       x1="49.621674"
       y1="-1.0177006"
       x2="-0.24565184"
       y2="98.716949">
      <stop
         stop-color="rgb(138, 221, 109)"
         offset="0%"
         id="stop8073" />
      <stop
         style="stop-color:#75c759;stop-opacity:1"
         stop-color="rgb(96, 176, 68)"
         offset="100%"
         id="stop8075" />
    </linearGradient>
    <filter
       id="filter-2"
       x="-0.5"
       y="-0.5"
       width="2"
       height="2"
       filterUnits="objectBoundingBox">
      <feOffset
         result="shadowOffsetOuter1"
         in="SourceAlpha"
         dx="0"
         dy="-1"
         id="feOffset8078" />
      <feGaussianBlur
         result="shadowBlurOuter1"
         in="shadowOffsetOuter1"
         stdDeviation="0"
         id="feGaussianBlur8080" />
      <feColorMatrix
         result="shadowMatrixOuter1"
         in="shadowBlurOuter1"
         type="matrix"
         values="0 0 0 0 0 0 0 0 0 0 0 0 0 0 0 0 0 0 0.35 0"
         id="feColorMatrix8082" />
      <feMerge
         id="feMerge8084">
        <feMergeNode
           in="shadowMatrixOuter1"
           id="feMergeNode8086" />
        <feMergeNode
           in="SourceGraphic"
           id="feMergeNode8088" />
      </feMerge>
    </filter>
    <linearGradient
       x1="0"
       y1="0"
       x2="1"
       y2="0"
       id="linearGradient2840"
       gradientUnits="userSpaceOnUse"
       gradientTransform="matrix(0,134.75244,134.75244,0,150.74951,247.73047)"
       spreadMethod="pad">
      <stop
         id="stop2842"
         style="stop-color:#ea5f29;stop-opacity:1"
         offset="0" />
      <stop
         id="stop2844"
         style="stop-color:#fabd1f;stop-opacity:1"
         offset="1" />
    </linearGradient>
    <linearGradient
       x1="0"
       y1="0"
       x2="1"
       y2="0"
       id="linearGradient2860"
       gradientUnits="userSpaceOnUse"
       gradientTransform="matrix(0,-134.75195,-134.75195,0,160.87451,372.12109)"
       spreadMethod="pad">
      <stop
         id="stop2862"
         style="stop-color:#abd33c;stop-opacity:1"
         offset="0" />
      <stop
         id="stop2864"
         style="stop-color:#6cb02f;stop-opacity:1"
         offset="1" />
    </linearGradient>
    <clipPath
       id="clipPath2872">
      <path
         d="m 0,595.276 841.89,0 L 841.89,0 0,0 0,595.276 Z"
         id="path2874"
         inkscape:connector-curvature="0" />
    </clipPath>
    <linearGradient
       inkscape:collect="always"
       xlink:href="#linearGradient10702"
       id="linearGradient10710"
       gradientUnits="userSpaceOnUse"
       x1="99.522423"
       y1="10.158203"
       x2="99.522423"
       y2="77.916016" />
  </defs>
  <metadata
     id="metadata7">
    <rdf:RDF>
      <cc:Work
         rdf:about="">
        <dc:format>image/svg+xml</dc:format>
        <dc:type
           rdf:resource="http://purl.org/dc/dcmitype/StillImage" />
        <dc:title />
      </cc:Work>
    </rdf:RDF>
  </metadata>
  <g
     transform="translate(-284.25642,-325.00504)"
     id="layer1"
     inkscape:groupmode="layer"
     inkscape:label="Layer 1">
    <rect
       style="opacity:1;fill:#75c759;fill-opacity:1;fill-rule:nonzero;stroke:none;stroke-width:2;stroke-linecap:round;stroke-linejoin:miter;stroke-miterlimit:4;stroke-dasharray:none;stroke-dashoffset:0;stroke-opacity:1"
       id="rect8142"
       width="203"
       height="49"
       x="284.25641"
       y="325.09689"
       rx="0" />
    <path
       style="fill:url(#linearGradient10710);fill-opacity:1;stroke:none;opacity:0.15"
       d="M 20.519531 10.158203 C 13.658831 10.158203 10.158203 14.108658 10.158203 21.486328 L 10.158203 26.640625 L 10.158203 36.964844 L 12.197266 39.003906 L 12.175781 39.023438 L 22.244141 49.091797 L 139.67969 49.091797 L 108.52344 17.935547 C 108.37558 17.787687 108.16951 17.697266 107.9375 17.697266 C 107.4725 17.697266 107.09766 18.058438 107.09766 18.523438 L 107.09766 20.697266 L 106.66211 20.697266 C 106.19711 20.697266 105.83594 21.058438 105.83594 21.523438 C 105.83594 21.749797 105.92811 21.957402 106.07812 22.107422 L 107.09766 23.126953 L 107.09766 23.636719 L 104.4043 20.943359 C 104.26162 20.800669 104.06251 20.712891 103.83594 20.712891 C 103.08594 20.697891 102.44031 20.968828 101.94531 21.298828 C 101.91087 21.323432 101.8778 21.364482 101.8418 21.396484 L 101.4043 20.958984 C 101.25269 20.807364 101.03919 20.712891 100.80469 20.712891 C 100.36969 20.712891 100.00977 21.059141 100.00977 21.494141 L 100.00977 25.134766 L 96.546875 21.671875 C 95.940355 21.065365 95.106846 20.697266 94.197266 20.697266 C 93.162266 20.697266 92.292187 21.132891 91.617188 21.837891 C 90.972188 22.557891 90.583984 23.442891 90.583984 24.462891 C 90.583984 24.720669 90.607492 24.971739 90.652344 25.212891 L 87.197266 21.757812 C 86.543486 21.104042 85.657247 20.697266 84.685547 20.697266 C 83.965175 20.697266 83.29027 20.926901 82.75 21.253906 L 82.449219 20.953125 C 82.296259 20.800155 82.071854 20.697266 81.820312 20.697266 C 81.385312 20.697266 81.025391 21.059141 81.025391 21.494141 L 81.025391 24.462891 L 81.025391 24.478516 L 81.025391 25.488281 L 77.294922 21.757812 C 76.641152 21.104042 75.754913 20.697266 74.783203 20.697266 C 74.062831 20.697266 73.387926 20.926901 72.847656 21.253906 L 72.546875 20.953125 C 72.393915 20.800165 72.169509 20.697266 71.917969 20.697266 C 71.482969 20.697266 71.123047 21.059141 71.123047 21.494141 L 71.123047 24.25 L 67.818359 20.945312 C 67.668119 20.795073 67.46293 20.697266 67.25 20.697266 C 66.8 20.697266 66.46875 21.074141 66.46875 21.494141 L 66.46875 24.271484 L 63.126953 20.929688 C 62.985103 20.787838 62.788979 20.697266 62.568359 20.697266 C 62.156822 20.697266 61.825011 21.037661 61.789062 21.429688 L 59.046875 18.6875 C 59.014175 18.6548 58.978373 18.624756 58.939453 18.597656 C 58.174453 18.102656 57.109922 17.398438 55.669922 17.398438 C 54.694922 17.398438 53.779219 17.683359 53.074219 18.193359 C 52.384219 18.703359 51.875 19.482812 51.875 20.382812 C 51.875 20.832812 51.99375 21.253281 52.21875 21.613281 C 52.32833 21.787611 52.456719 21.945011 52.599609 22.087891 L 56.927734 26.416016 C 56.564457 26.551682 56.148626 26.638672 55.699219 26.638672 C 54.634219 26.653672 53.493984 26.022422 52.833984 25.482422 C 52.645308 25.32805 52.404951 25.287888 52.181641 25.333984 L 37.007812 10.160156 L 29.191406 10.158203 L 20.519531 10.158203 z M 126.67578 17.697266 C 126.22578 17.697266 125.86523 18.057813 125.86523 18.507812 L 125.86523 18.822266 C 125.86523 19.051166 125.95847 19.261199 126.10938 19.412109 L 129.5957 22.898438 C 129.55596 22.991112 129.52471 23.086931 129.49219 23.183594 L 127.25 20.941406 C 127.10629 20.797696 126.9058 20.712891 126.67578 20.712891 C 126.22578 20.712891 125.86523 21.059062 125.86523 21.539062 L 125.86523 24.042969 L 122.88867 21.066406 C 122.81247 20.990206 122.71852 20.925686 122.60938 20.878906 C 122.21937 20.698906 121.76852 20.90751 121.60352 21.3125 L 120.59375 23.685547 L 117.95898 21.050781 C 117.80983 20.901631 117.61309 20.81391 117.41797 20.8125 C 117.32097 20.8118 117.22477 20.833906 117.13477 20.878906 C 116.71477 21.058906 116.51922 21.493438 116.69922 21.898438 L 119.12891 27.71875 C 119.14101 27.75515 119.15373 27.790347 119.17383 27.810547 L 119.18945 27.826172 C 119.1896 27.830175 119.19008 27.834497 119.19141 27.835938 L 119.23242 27.876953 C 119.2498 27.900412 119.26984 27.92447 119.2793 27.943359 L 140.42773 49.091797 L 164.33789 49.091797 L 136.17578 20.929688 C 136.03177 20.785667 135.83464 20.697266 135.61914 20.697266 C 135.22914 20.697266 134.92789 20.982422 134.83789 21.357422 C 134.26789 20.952422 133.59375 20.697266 132.84375 20.697266 C 132.04169 20.697266 131.32841 20.973409 130.74414 21.423828 L 127.25 17.929688 C 127.10627 17.785957 126.90588 17.697266 126.67578 17.697266 z M 144.85742 17.697266 C 144.39242 17.697266 144.0332 18.073438 144.0332 18.523438 L 144.0332 27.373047 C 144.0332 27.599887 144.12531 27.806931 144.27539 27.957031 L 165.41016 49.091797 L 203 49.091797 L 203 43.570312 L 180.37109 20.943359 C 180.22841 20.800679 180.0293 20.712891 179.80273 20.712891 C 179.05273 20.697891 178.40711 20.968828 177.91211 21.298828 C 177.87766 21.323432 177.8446 21.364482 177.80859 21.396484 L 177.37109 20.958984 C 177.21946 20.807364 177.00599 20.712891 176.77148 20.712891 C 176.48699 20.712891 176.24605 20.869579 176.10547 21.09375 L 172.94727 17.935547 C 172.79941 17.787687 172.59334 17.697266 172.36133 17.697266 C 171.89633 17.697266 171.52148 18.058438 171.52148 18.523438 L 171.52148 20.697266 L 171.08594 20.697266 C 170.95506 20.697266 170.83525 20.731715 170.72656 20.783203 L 167.87891 17.935547 C 167.73105 17.787687 167.52498 17.697266 167.29297 17.697266 C 166.82797 17.697266 166.45313 18.058438 166.45312 18.523438 L 166.45312 20.697266 L 166.01758 20.697266 C 165.55258 20.697266 165.19141 21.058438 165.19141 21.523438 C 165.19141 21.749797 165.28357 21.957402 165.43359 22.107422 L 166.45312 23.126953 L 166.45312 24.605469 L 162.77734 20.929688 C 162.63333 20.785667 162.4362 20.697266 162.2207 20.697266 C 161.8307 20.697266 161.52945 20.982422 161.43945 21.357422 C 160.86945 20.952422 160.19531 20.697266 159.44531 20.697266 C 158.80355 20.697266 158.2238 20.884025 157.71484 21.183594 L 154.47656 17.945312 C 154.32449 17.793243 154.11298 17.697266 153.87891 17.697266 C 153.42891 17.697266 153.05469 18.073438 153.05469 18.523438 L 153.05469 20.658203 L 150.3418 17.945312 C 150.18927 17.792793 149.98106 17.697266 149.76172 17.697266 L 144.90234 17.697266 L 144.87305 17.697266 L 144.85742 17.697266 z "
       transform="translate(284.25642,325.00504)"
       id="path9088" />
    <path
       inkscape:connector-curvature="0"
       style="fill:#ffffff;stroke:none"
       d="m 304.77595,335.16324 c -6.8607,0 -10.36133,3.95046 -10.36133,11.32813 l 0,5.15429 0,10.32422 6.72071,-6.72656 0,-7.86328 c 0,-3.05642 0.81004,-5.00084 3.52734,-5.4375 0.94927,-0.18561 2.92356,-0.12109 4.17969,-0.12109 l 0,4.66796 c 0,0.0426 0.007,0.11922 0.0176,0.15821 0.0526,0.18899 0.22333,0.32772 0.42578,0.32812 0.11457,1.6e-4 0.22144,-0.0589 0.33203,-0.16797 l 11.64648,-11.64257 -7.8164,-0.002 -8.67188,0 z m 18.50586,2.06055 -6.7207,6.72852 0,7.86132 c 0,3.05642 -0.81025,5.00084 -3.52735,5.4375 -0.94927,0.18541 -2.92355,0.1211 -4.17968,0.1211 l 0,-4.66797 c 0,-0.0424 -0.007,-0.11921 -0.0176,-0.1582 -0.0526,-0.18919 -0.22314,-0.32773 -0.42579,-0.32813 -0.11457,-3.2e-4 -0.22144,0.0591 -0.33203,0.16797 l -11.64648,11.64258 7.81641,0.002 8.67187,0 c 6.8607,0 10.36133,-3.95066 10.36133,-11.32813 l 0,-5.15429 0,-10.32422 z m 16.64453,5.17969 c -0.975,0 -1.8907,0.28492 -2.5957,0.79492 -0.69,0.51 -1.19922,1.28945 -1.19922,2.18945 0,0.45 0.11875,0.87047 0.34375,1.23047 0.33,0.525 0.82648,0.89992 1.39648,1.16992 0.57,0.27 1.2286,0.45094 1.9336,0.58594 l 0.0312,0 c 0.885,0.165 1.61969,0.41813 2.05469,0.70313 0.225,0.15 0.35921,0.30117 0.44921,0.45117 0.09,0.15 0.13477,0.28547 0.13477,0.48047 0,0.375 -0.19453,0.75007 -0.64453,1.08007 -0.45,0.33 -1.125,0.55469 -1.875,0.55469 -1.065,0.015 -2.20524,-0.61625 -2.86524,-1.15625 -0.33,-0.27 -0.82375,-0.22453 -1.09375,0.10547 -0.255,0.33 -0.21086,0.8257 0.11914,1.0957 0.855,0.675 2.21985,1.485 3.83985,1.5 1.065,0 2.04039,-0.31547 2.77539,-0.85547 0.75,-0.54 1.28906,-1.36421 1.28906,-2.32421 0,-0.465 -0.13437,-0.91539 -0.35937,-1.27539 -0.345,-0.555 -0.885,-0.9461 -1.5,-1.2461 -0.6,-0.285 -1.30532,-0.4789 -2.07032,-0.6289 l -0.0293,0 c -0.81,-0.15 -1.485,-0.39016 -1.875,-0.66016 -0.195,-0.135 -0.32929,-0.27063 -0.40429,-0.39063 -0.075,-0.12 -0.10547,-0.23992 -0.10547,-0.41992 0,-0.315 0.16531,-0.64531 0.57031,-0.94531 0.405,-0.3 1.00469,-0.50977 1.67969,-0.50977 0.915,0 1.64906,0.45094 2.41406,0.96094 0.36,0.24 0.84141,0.13539 1.06641,-0.22461 0.24,-0.345 0.13406,-0.8264 -0.21094,-1.0664 -0.765,-0.495 -1.82953,-1.19922 -3.26953,-1.19922 z m 52.26758,0.29883 c -0.465,0 -0.83984,0.36117 -0.83984,0.82617 l 0,2.17383 -0.43555,0 c -0.465,0 -0.82617,0.36117 -0.82617,0.82617 0,0.45 0.36117,0.82422 0.82617,0.82422 l 0.43555,0 0,4.18554 c 0,0.915 0.74906,1.66407 1.66406,1.66407 0.465,0 0.82422,-0.35922 0.82422,-0.82422 0,-0.465 -0.35922,-0.83985 -0.82422,-0.83985 l 0,-4.18554 0.375,0 c 0.45,0 0.83984,-0.37422 0.83984,-0.82422 0,-0.465 -0.38984,-0.82617 -0.83984,-0.82617 l -0.375,0 0,-2.17383 c 0,-0.465 -0.35922,-0.82617 -0.82422,-0.82617 z m 18.73828,0 c -0.45,0 -0.81055,0.36054 -0.81055,0.81054 l 0,0.31446 c 0,0.45 0.36055,0.82617 0.81055,0.82617 0.465,0 0.8086,-0.37617 0.8086,-0.82617 l 0,-0.31446 c 0,-0.45 -0.3436,-0.81054 -0.8086,-0.81054 z m 18.18164,0 c -0.465,0 -0.82422,0.37617 -0.82422,0.82617 l 0,8.84961 c 0,0.45 0.35922,0.82422 0.82422,0.82422 0.465,0 0.83985,-0.37422 0.83985,-0.82422 l 0,-3.59961 3.49609,0 c 0.45,0 0.82422,-0.37485 0.82422,-0.83985 0,-0.435 -0.37422,-0.82617 -0.82422,-0.82617 l -3.49609,0 0,-2.74414 4.06445,0 c 0.435,0 0.82617,-0.37484 0.82617,-0.83984 0,-0.45 -0.39117,-0.82617 -0.82617,-0.82617 l -4.85938,0 -0.0293,0 -0.0156,0 z m 9.02149,0 c -0.45,0 -0.82422,0.37617 -0.82422,0.82617 l 0,8.84961 c 0,0.45 0.37422,0.82422 0.82422,0.82422 0.465,0 0.83984,-0.37422 0.83984,-0.82422 l 0,-8.84961 c 0,-0.45 -0.37484,-0.82617 -0.83984,-0.82617 z m 13.41406,0 c -0.465,0 -0.83985,0.36117 -0.83985,0.82617 l 0,2.17383 -0.43554,0 c -0.465,0 -0.82617,0.36117 -0.82617,0.82617 0,0.45 0.36117,0.82422 0.82617,0.82422 l 0.43554,0 0,4.18554 c 0,0.915 0.74907,1.66407 1.66407,1.66407 0.465,0 0.82422,-0.35922 0.82422,-0.82422 0,-0.465 -0.35922,-0.83985 -0.82422,-0.83985 l 0,-4.18554 0.375,0 c 0.45,0 0.83984,-0.37422 0.83984,-0.82422 0,-0.465 -0.38984,-0.82617 -0.83984,-0.82617 l -0.375,0 0,-2.17383 c 0,-0.465 -0.35922,-0.82617 -0.82422,-0.82617 z m 5.06836,0 c -0.465,0 -0.83985,0.36117 -0.83985,0.82617 l 0,2.17383 -0.43554,0 c -0.465,0 -0.82617,0.36117 -0.82617,0.82617 0,0.45 0.36117,0.82422 0.82617,0.82422 l 0.43554,0 0,4.18554 c 0,0.915 0.74907,1.66407 1.66407,1.66407 0.465,0 0.82422,-0.35922 0.82422,-0.82422 0,-0.465 -0.35922,-0.83985 -0.82422,-0.83985 l 0,-4.18554 0.375,0 c 0.45,0 0.83984,-0.37422 0.83984,-0.82422 0,-0.465 -0.38984,-0.82617 -0.83984,-0.82617 l -0.375,0 0,-2.17383 c 0,-0.465 -0.35922,-0.82617 -0.82422,-0.82617 z m -109.79297,3 c -0.435,0 -0.79492,0.37687 -0.79492,0.79687 l 0,3.58398 c 0,1.71 1.41109,3.11915 3.12109,3.11915 1.725,0 3.16406,-1.40915 3.16406,-3.11915 l 0,-3.58398 c 0,-0.42 -0.38859,-0.79687 -0.80859,-0.79687 -0.45,0 -0.78125,0.37687 -0.78125,0.79687 l 0,3.58398 c -0.015,0.85501 -0.70422,1.5293 -1.57422,1.5293 -0.855,0 -1.53125,-0.67429 -1.53125,-1.5293 l 0,-3.58398 c 0,-0.42 -0.34492,-0.79687 -0.79492,-0.79687 z m 9.34961,0 c -0.435,0 -0.79492,0.36187 -0.79492,0.79687 l 0,2.96875 0,0.0156 0,5.73047 c 0,0.42 0.35992,0.80859 0.79492,0.80859 0.48,0 0.85547,-0.38859 0.85547,-0.80859 l 0,-2.64063 c 0.54,0.39 1.25976,0.61524 2.00976,0.61524 1.995,0 3.63086,-1.6657 3.63086,-3.7207 0,-2.055 -1.63586,-3.76563 -3.63086,-3.76563 -0.765,0 -1.48406,0.25523 -2.03906,0.61523 -0.06,-0.33 -0.40617,-0.61523 -0.82617,-0.61523 z m 9.90234,0 c -0.435,0 -0.79492,0.36187 -0.79492,0.79687 l 0,2.96875 0,0.0156 0,5.73047 c 0,0.42 0.35992,0.80859 0.79492,0.80859 0.48,0 0.85547,-0.38859 0.85547,-0.80859 l 0,-2.64063 c 0.54,0.39 1.25977,0.61524 2.00977,0.61524 1.995,0 3.63086,-1.6657 3.63086,-3.7207 0,-2.055 -1.63586,-3.76563 -3.63086,-3.76563 -0.765,0 -1.48407,0.25523 -2.03907,0.61523 -0.06,-0.33 -0.40617,-0.61523 -0.82617,-0.61523 z m 12.37696,0 c -1.035,0 -1.90508,0.43562 -2.58008,1.14062 -0.645,0.72 -1.03321,1.605 -1.03321,2.625 0,1.05 0.38821,1.98063 1.03321,2.64063 0.675,0.705 1.54508,1.14062 2.58008,1.14062 0.99,0 1.89086,-0.43562 2.50585,-1.14062 0.675,-0.66 1.05079,-1.59063 1.05079,-2.64063 0,-1.02 -0.37579,-1.905 -1.05079,-2.625 -0.61499,-0.705 -1.51585,-1.14062 -2.50585,-1.14062 z m 38.64648,0 c -1.02,0 -1.90578,0.435 -2.55078,1.125 -0.645,0.675 -1.01953,1.60562 -1.01953,2.64062 0,1.02 0.37453,1.95063 1.01953,2.64063 0.645,0.675 1.53078,1.09375 2.55078,1.09375 0.75,0 1.42414,-0.23954 1.99414,-0.64454 0.09,0.36 0.39125,0.64454 0.78125,0.64454 0.435,0 0.79492,-0.35993 0.79492,-0.79493 l 0,-2.93945 0,-2.95508 c 0,-0.45 -0.35992,-0.81054 -0.79492,-0.81054 -0.39,0 -0.69125,0.28515 -0.78125,0.66015 -0.57,-0.405 -1.24414,-0.66015 -1.99414,-0.66015 z m 26.60156,0 c -1.02,0 -1.90578,0.435 -2.55078,1.125 -0.645,0.675 -1.01953,1.60562 -1.01953,2.64062 0,1.02 0.37453,1.95063 1.01953,2.64063 0.645,0.675 1.53078,1.09375 2.55078,1.09375 0.75,0 1.42414,-0.23954 1.99414,-0.64454 0.09,0.36 0.39125,0.64454 0.78125,0.64454 0.435,0 0.79492,-0.35993 0.79492,-0.79493 l 0,-2.93945 0,-2.95508 c 0,-0.45 -0.35992,-0.81054 -0.79492,-0.81054 -0.39,0 -0.69125,0.28515 -0.78125,0.66015 -0.57,-0.405 -1.24414,-0.66015 -1.99414,-0.66015 z m -58.64062,0.0156 c -0.435,0 -0.79492,0.34625 -0.79492,0.78125 l 0,5.9082 c 0,0.435 0.35992,0.79492 0.79492,0.79492 0.45,0 0.82617,-0.35992 0.82617,-0.79492 l 0,-2.84961 c 0.075,-0.21 0.25328,-0.77977 0.61328,-1.25977 0.18,-0.285 0.40641,-0.5407 0.69141,-0.7207 0.255,-0.195 0.55539,-0.2832 0.90039,-0.2832 0.45,0 0.79492,-0.37492 0.79492,-0.79492 0,-0.435 -0.34492,-0.78125 -0.79492,-0.78125 -0.75,-0.015 -1.39563,0.25593 -1.89063,0.58593 -0.105,0.075 -0.22445,0.19383 -0.31445,0.29883 l 0,-0.10351 c 0,-0.435 -0.37617,-0.78125 -0.82617,-0.78125 z m 25.87109,0 c -0.45,0 -0.81055,0.34617 -0.81055,0.82617 l 0,5.84961 c 0,0.45 0.36055,0.80859 0.81055,0.80859 0.465,0 0.8086,-0.35859 0.8086,-0.80859 l 0,-5.84961 c 0,-0.48 -0.3436,-0.82617 -0.8086,-0.82617 z m 50.0957,0 c -0.435,0 -0.79492,0.34625 -0.79492,0.78125 l 0,5.9082 c 0,0.435 0.35992,0.79492 0.79492,0.79492 0.45,0 0.82618,-0.35992 0.82618,-0.79492 l 0,-2.84961 c 0.075,-0.21 0.25328,-0.77977 0.61328,-1.25977 0.18,-0.285 0.4064,-0.5407 0.6914,-0.7207 0.255,-0.195 0.55539,-0.2832 0.90039,-0.2832 0.45,0 0.79493,-0.37492 0.79493,-0.79492 0,-0.435 -0.34493,-0.78125 -0.79493,-0.78125 -0.75,-0.015 -1.39562,0.25593 -1.89062,0.58593 -0.105,0.075 -0.22445,0.19383 -0.31445,0.29883 l 0,-0.10351 c 0,-0.435 -0.37618,-0.78125 -0.82618,-0.78125 z m -59.35351,0.0996 c -0.097,-7.1e-4 -0.1932,0.0214 -0.2832,0.0664 -0.42,0.18 -0.61555,0.61453 -0.43555,1.01953 l 2.42969,5.82031 c 0.015,0.045 0.0305,0.0885 0.0605,0.10352 0,0.015 6.3e-4,0.0156 0.0156,0.0156 0.03,0.03 0.0592,0.0755 0.0742,0.10546 0.015,0.015 0.0143,0.0156 0.0293,0.0156 0.03,0.045 0.0618,0.0598 0.0918,0.0898 0,0 0.0137,-0.001 0.0137,0.0137 0.06,0.03 0.0898,0.0612 0.13477,0.0762 l 0.0312,0 0,0.0137 c 0.045,0 0.0741,0.0162 0.11914,0.0312 l 0.0293,0 c 0.06,0.015 0.10671,0.0137 0.13671,0.0137 0.045,0 0.0884,0.001 0.14844,-0.0137 l 0.0312,0 c 0.03,-0.015 0.0741,-0.0312 0.11914,-0.0312 l 0,-0.0137 0.0312,0 c 0.045,-0.015 0.0735,-0.0462 0.10352,-0.0762 0,-0.015 0.0156,-0.0137 0.0156,-0.0137 0.03,-0.03 0.0599,-0.0448 0.0899,-0.0898 0,0 0.0156,-6.2e-4 0.0156,-0.0156 0.03,-0.03 0.0598,-0.0755 0.0898,-0.10546 0,0 0.0156,-6.3e-4 0.0156,-0.0156 0.015,-0.015 0.0436,-0.0585 0.0586,-0.10352 l 2.46094,-5.82031 c 0.18,-0.405 -0.0155,-0.83953 -0.43554,-1.01953 -0.39,-0.18 -0.84086,0.0286 -1.00586,0.43359 l -1.73829,4.08008 -1.72656,-4.08008 c -0.135,-0.30375 -0.42961,-0.49789 -0.7207,-0.5 z m 15.42578,1.49023 c 0.525,0 1.03453,0.21023 1.39453,0.61524 0.36,0.375 0.58594,0.91492 0.58594,1.54492 0,0.615 -0.22594,1.15492 -0.58594,1.54492 -0.36,0.375 -0.86953,0.58594 -1.39453,0.58594 -0.54,0 -1.04953,-0.21094 -1.39453,-0.58594 -0.36,-0.39 -0.57031,-0.92992 -0.57031,-1.54492 0,-0.63 0.21031,-1.16992 0.57031,-1.54492 0.345,-0.40501 0.85453,-0.61524 1.39453,-0.61524 z m 26.60156,0 c 0.525,0 1.03453,0.21023 1.39453,0.61524 0.36,0.375 0.58594,0.91492 0.58594,1.54492 0,0.615 -0.22594,1.15492 -0.58594,1.54492 -0.36,0.375 -0.86953,0.58594 -1.39453,0.58594 -0.54,0 -1.04953,-0.21094 -1.39453,-0.58594 -0.36,-0.39 -0.57031,-0.92992 -0.57031,-1.54492 0,-0.63 0.21031,-1.16992 0.57031,-1.54492 0.345,-0.40501 0.85453,-0.61524 1.39453,-0.61524 z m -84.66211,0.0312 c 0.51,0 1.02016,0.20828 1.41016,0.61328 0.345,0.39 0.58594,0.93063 0.58594,1.51563 0,0.585 -0.24094,1.155 -0.58594,1.5 -0.39,0.42 -0.90016,0.63086 -1.41016,0.63086 -0.555,0 -1.05078,-0.21086 -1.42578,-0.63086 -0.39,-0.345 -0.58398,-0.915 -0.58398,-1.5 0,-0.585 0.19398,-1.12563 0.58398,-1.51563 0.375,-0.405 0.87078,-0.61328 1.42578,-0.61328 z m 9.90235,0 c 0.51,0 1.02015,0.20828 1.41015,0.61328 0.345,0.39 0.58594,0.93063 0.58594,1.51563 0,0.585 -0.24094,1.155 -0.58594,1.5 -0.39,0.42 -0.90015,0.63086 -1.41015,0.63086 -0.555,0 -1.05078,-0.21086 -1.42578,-0.63086 -0.39,-0.345 -0.58399,-0.915 -0.58399,-1.5 0,-0.585 0.19399,-1.12563 0.58399,-1.51563 0.375,-0.405 0.87078,-0.61328 1.42578,-0.61328 z m 9.51172,0 c 0.525,0 1.00585,0.23836 1.38085,0.56836 0.375,0.405 0.58399,0.94555 0.58399,1.56055 0,0.645 -0.20899,1.16984 -0.58399,1.58984 -0.375,0.36 -0.85585,0.55469 -1.38085,0.55469 -0.57,0 -1.06446,-0.19469 -1.43946,-0.55469 -0.345,-0.42 -0.53906,-0.94484 -0.53906,-1.58984 0,-0.615 0.19406,-1.15555 0.53906,-1.56055 0.375,-0.33 0.86946,-0.56836 1.43946,-0.56836 z"
       id="path2846" />
    <g
       id="g9154" />
    <path
       sodipodi:nodetypes="scscscscsccsccscsccccccssscssccccccccccccccccccccccccccccscccccscscscccccccssssccccccccscsssccsscsccccccccscccccccccccccccccsscsccscccscscscssscsscsccsccc"
       inkscape:connector-curvature="0"
       style="font-style:normal;font-variant:normal;font-weight:bold;font-stretch:normal;font-size:13.75px;line-height:125%;font-family:'Century Gothic';-inkscape-font-specification:'Century Gothic Bold';letter-spacing:0px;word-spacing:0px;fill:#ffffff;fill-opacity:1;fill-rule:evenodd;stroke:none;stroke-width:1px;stroke-linecap:butt;stroke-linejoin:miter;stroke-opacity:1"
       d="m 409.72208,126.74505 c -0.32227,0 -0.59595,0.11353 -0.82422,0.3418 -0.22828,0.22827 -0.34375,0.5039 -0.34375,0.82617 0,0.33569 0.11547,0.62215 0.34375,0.85937 0.23274,0.23275 0.51115,0.34961 0.83789,0.34961 0.31779,0 0.59204,-0.11352 0.82031,-0.34179 0.22827,-0.23275 0.3418,-0.51311 0.3418,-0.83985 0,-0.33121 -0.11686,-0.61295 -0.34961,-0.8457 -0.22827,-0.23275 -0.50391,-0.34961 -0.82617,-0.34961 z m -24.82618,0.1875 c -1.64265,0 -2.97696,0.57625 -4.00195,1.72656 -0.86385,0.9668 -1.29687,2.10319 -1.29687,3.41016 0,0.95337 0.23372,1.84245 0.69922,2.66601 0.46996,0.82357 1.10506,1.45866 1.90625,1.90625 0.80566,0.44312 1.7211,0.66407 2.74609,0.66407 0.95784,0 1.79223,-0.20402 2.50391,-0.61133 0.71166,-0.40731 1.29264,-0.99715 1.74023,-1.77149 0.44759,-0.77433 0.66992,-1.59318 0.66992,-2.45703 l -0.0137,-0.41601 -4.9668,0 0,1.76562 2.85938,0 c -0.27303,0.58187 -0.63249,1.00822 -1.08008,1.28125 -0.44311,0.27303 -0.98967,0.41016 -1.63867,0.41016 -0.99813,0 -1.83724,-0.33171 -2.51758,-0.99414 -0.68034,-0.66244 -1.02148,-1.47046 -1.02148,-2.42383 0,-0.92204 0.32698,-1.70508 0.98046,-2.34961 0.65796,-0.64453 1.47209,-0.9668 2.44336,-0.9668 0.83588,0 1.59366,0.24955 2.27344,0.74805 0.2266,0.16617 0.44505,0.36047 0.6543,0.58203 l 1.32226,-1.31054 c -0.60424,-0.65349 -1.22045,-1.11426 -1.85156,-1.38282 -0.74747,-0.31779 -1.55078,-0.47656 -2.41016,-0.47656 z m 20.19532,0.12891 0,2.6914 -0.94141,0 0,1.57813 0.94141,0 0,5.72656 1.82617,0 0,-5.72656 1.08594,0 0,-1.57813 -1.08594,0 0,-2.6914 z m -10.95703,2.5039 c -0.3357,0 -0.64575,0.0933 -0.92774,0.28125 -0.28198,0.18799 -0.50765,0.46363 -0.67773,0.82617 l 0,-0.91992 -1.57032,0 0,7.30469 1.81836,0 0,-2.95312 -0.006,-0.35743 c 0,-1.0205 0.0966,-1.70556 0.28907,-2.05468 0.19694,-0.34913 0.43481,-0.52344 0.71679,-0.52344 0.0694,0 0.14989,0.0142 0.23829,0.041 0.0884,0.0269 0.18554,0.0674 0.29296,0.12109 l 0.57032,-1.57812 c -0.2596,-0.12533 -0.50692,-0.1875 -0.74414,-0.1875 z m 4.75195,0 c -0.95337,0 -1.76277,0.35946 -2.42969,1.08008 -0.6669,0.72062 -1,1.64551 -1,2.77344 0,1.08764 0.34392,1.99837 1.03321,2.73242 0.68929,0.72957 1.50675,1.09375 2.45117,1.09375 0.42074,0 0.80989,-0.073 1.16797,-0.2207 0.36254,-0.15218 0.722,-0.39811 1.08007,-0.73828 l 0,0.77148 1.82618,0 0,-7.30469 -1.82618,0 0,0.80664 c -0.16337,-0.1656 -0.3338,-0.31134 -0.51171,-0.43554 -0.17792,-0.12421 -0.36223,-0.22775 -0.55469,-0.31055 -0.38494,-0.16561 -0.79769,-0.24805 -1.23633,-0.24805 z m 17.55078,0 c -0.43864,0 -0.8514,0.0824 -1.23633,0.24805 -0.38492,0.16561 -0.743,0.41488 -1.07422,0.74609 l 0,-0.80664 -1.81836,0 0,9.97657 1.81836,0 0,-3.44336 c 0.35808,0.34017 0.71949,0.5861 1.08203,0.73828 0.36256,0.1477 0.7531,0.2207 1.17383,0.2207 0.94442,0 1.76189,-0.36418 2.45117,-1.09375 0.6893,-0.73405 1.03516,-1.64478 1.03516,-2.73242 0,-1.12793 -0.33504,-2.05282 -1.00195,-2.77344 -0.66691,-0.72062 -1.47632,-1.08008 -2.42969,-1.08008 z m 8.04297,0 c -0.23834,0 -0.46706,0.0214 -0.6875,0.0664 -0.66132,0.13512 -1.24201,0.47321 -1.74219,1.01368 -0.66691,0.72062 -1,1.6455 -1,2.77343 0,1.08765 0.34392,1.99837 1.0332,2.73242 0.6893,0.72958 1.50676,1.09375 2.45118,1.09375 0.42073,0 0.80989,-0.073 1.16797,-0.2207 0.36254,-0.15218 0.722,-0.39811 1.08007,-0.73828 l 0,0.77148 1.82618,0 0,-7.30468 -1.82618,0 0,0.80664 c -0.16337,-0.16561 -0.3338,-0.31134 -0.51172,-0.43555 -0.17791,-0.12421 -0.36222,-0.22775 -0.55468,-0.31055 -0.38494,-0.16561 -0.7977,-0.24805 -1.23633,-0.24805 z m -15.67578,0.1875 0,7.30469 1.83789,0 0,-7.30469 z m 20.8457,0 2.7793,6.76172 -1.50391,3.21485 1.89258,0 4.58008,-9.97657 -1.88086,0 -2.09375,4.58594 -1.90039,-4.58594 z m -30.38672,1.50391 c 0.58187,0 1.06291,0.19792 1.44336,0.5918 0.38046,0.39388 0.57031,0.90739 0.57031,1.54296 0,0.64901 -0.18985,1.1753 -0.57031,1.57813 -0.38045,0.39836 -0.8601,0.59766 -1.4375,0.59766 -0.13987,0 -0.27338,-0.0136 -0.40234,-0.0391 -0.38689,-0.0764 -0.72498,-0.26679 -1.01367,-0.57227 -0.38046,-0.40731 -0.57032,-0.92554 -0.57032,-1.55664 0,-0.62663 0.18653,-1.14071 0.5625,-1.53906 0.37598,-0.40283 0.84953,-0.60352 1.41797,-0.60352 z m 16.79102,0 c 0.57292,0 1.04785,0.20068 1.42383,0.60351 0.37598,0.39836 0.56445,0.91244 0.56445,1.53907 0,0.6311 -0.19319,1.14933 -0.57813,1.55664 -0.38044,0.40731 -0.85066,0.61133 -1.41015,0.61133 -0.5774,0 -1.05705,-0.1993 -1.4375,-0.59766 -0.38045,-0.40283 -0.57031,-0.92912 -0.57031,-1.57813 0,-0.63557 0.18986,-1.14908 0.57031,-1.54296 0.38045,-0.39388 0.8601,-0.5918 1.4375,-0.5918 z m 8.80273,0 c 0.58187,0 1.06291,0.19792 1.44336,0.5918 0.38046,0.39388 0.57031,0.90739 0.57031,1.54296 0,0.64901 -0.18985,1.1753 -0.57031,1.57813 -0.38045,0.39836 -0.86011,0.59766 -1.4375,0.59766 -0.13987,0 -0.27338,-0.0136 -0.40234,-0.0391 -0.38689,-0.0764 -0.72498,-0.26679 -1.01367,-0.57227 -0.38046,-0.40731 -0.57032,-0.92554 -0.57032,-1.55664 0,-0.62663 0.18652,-1.14071 0.5625,-1.53906 0.37598,-0.40283 0.84953,-0.60352 1.41797,-0.60352 z"
       id="path11131" />
  </g>
</svg>
