<?xml version="1.0" encoding="UTF-8" standalone="no"?>
<!-- Created with Inkscape (http://www.inkscape.org/) -->

<svg
   xmlns:dc="http://purl.org/dc/elements/1.1/"
   xmlns:cc="http://creativecommons.org/ns#"
   xmlns:rdf="http://www.w3.org/1999/02/22-rdf-syntax-ns#"
   xmlns:svg="http://www.w3.org/2000/svg"
   xmlns="http://www.w3.org/2000/svg"
   xmlns:sodipodi="http://sodipodi.sourceforge.net/DTD/sodipodi-0.dtd"
   xmlns:inkscape="http://www.inkscape.org/namespaces/inkscape"
   width="137.50871mm"
   height="57.5355mm"
   viewBox="0 0 487.2356 203.86594"
   id="svg2"
   version="1.1"
   inkscape:version="0.91 r13725"
   sodipodi:docname="README-figure4.svg">
  <defs
     id="defs4" />
  <sodipodi:namedview
     id="base"
     pagecolor="#ffffff"
     bordercolor="#666666"
     borderopacity="1.0"
     inkscape:pageopacity="0.0"
     inkscape:pageshadow="2"
     inkscape:zoom="1"
     inkscape:cx="93.236803"
     inkscape:cy="32.813425"
     inkscape:document-units="px"
     inkscape:current-layer="layer1"
     showgrid="false"
     showguides="false"
     inkscape:guide-bbox="true"
     fit-margin-top="2"
     fit-margin-left="2"
     fit-margin-right="2"
     fit-margin-bottom="2"
     inkscape:window-width="1920"
     inkscape:window-height="1017"
     inkscape:window-x="-8"
     inkscape:window-y="-8"
     inkscape:window-maximized="1">
    <sodipodi:guide
       position="30.207813,81.563431"
       orientation="1,0"
       id="guide3342" />
    <sodipodi:guide
       position="191.01139,32.188431"
       orientation="0,1"
       id="guide3376" />
  </sodipodi:namedview>
  <metadata
     id="metadata7">
    <rdf:RDF>
      <cc:Work
         rdf:about="">
        <dc:format>image/svg+xml</dc:format>
        <dc:type
           rdf:resource="http://purl.org/dc/dcmitype/StillImage" />
        <dc:title></dc:title>
      </cc:Work>
    </rdf:RDF>
  </metadata>
  <g
     inkscape:label="Layer 1"
     inkscape:groupmode="layer"
     id="layer1"
     transform="translate(-169.79219,-349.70254)">
    <path
       style="fill:none;fill-rule:evenodd;stroke:#808080;stroke-width:3.66499996;stroke-linecap:butt;stroke-linejoin:miter;stroke-miterlimit:4;stroke-dasharray:10.99499989, 3.66499996;stroke-dashoffset:0;stroke-opacity:1"
       d="m 176.8788,454.14713 407.01377,0"
       id="path3340"
       inkscape:connector-curvature="0"
       sodipodi:nodetypes="cc" />
    <path
       sodipodi:nodetypes="cc"
       inkscape:connector-curvature="0"
       id="path3344"
       d="m 176.8788,412.56619 407.13535,0"
       style="fill:#000080;fill-rule:evenodd;stroke:#000080;stroke-width:3.66499996;stroke-linecap:butt;stroke-linejoin:miter;stroke-miterlimit:4;stroke-dasharray:10.99499989, 3.66499996;stroke-dashoffset:0;stroke-opacity:1" />
    <path
       style="fill:#000080;fill-rule:evenodd;stroke:#000080;stroke-width:3.66499996;stroke-linecap:butt;stroke-linejoin:miter;stroke-miterlimit:4;stroke-dasharray:10.99499989, 3.66499996;stroke-dashoffset:0;stroke-opacity:1"
       d="m 176.8788,496.03654 407.13535,0"
       id="path3346"
       inkscape:connector-curvature="0"
       sodipodi:nodetypes="cc" />
    <path
       sodipodi:nodetypes="cc"
       inkscape:connector-curvature="0"
       id="path3348"
       d="m 233.67588,528.37946 350.21669,0"
       style="fill:none;fill-rule:evenodd;stroke:#c83737;stroke-width:3.66499996;stroke-linecap:butt;stroke-linejoin:miter;stroke-miterlimit:4;stroke-dasharray:10.99499989, 3.66499996;stroke-dashoffset:0;stroke-opacity:1" />
    <path
       style="fill:none;fill-rule:evenodd;stroke:#aa00d4;stroke-width:3.66499996;stroke-linecap:butt;stroke-linejoin:miter;stroke-miterlimit:4;stroke-dasharray:10.99499989, 3.66499996;stroke-dashoffset:0;stroke-opacity:1"
       d="m 233.67588,376.91267 350.21669,0"
       id="path3350"
       inkscape:connector-curvature="0"
       sodipodi:nodetypes="cc" />
    <g
       style="font-style:normal;font-weight:normal;font-size:109.96133423px;line-height:125%;font-family:sans-serif;letter-spacing:0px;word-spacing:0px;fill:#000000;fill-opacity:1;stroke:none;stroke-width:1px;stroke-linecap:butt;stroke-linejoin:miter;stroke-opacity:1"
       id="text3336">
      <path
         d="m 264.18459,493.90338 c 0.82471,0.49482 1.64942,0.82471 2.30919,0.82471 1.15459,0 2.47413,-0.49483 3.1339,-1.64942 l 23.42176,-31.83381 23.25683,31.83381 c 0.65976,1.15459 1.9793,1.64942 3.29884,1.64942 0.65976,0 1.48447,-0.32989 1.9793,-0.82471 1.9793,-1.31954 2.30919,-3.62873 1.15459,-5.44309 L 297.83276,454.64718 322.739,420.66913 c 1.1546,-1.9793 0.82471,-4.28849 -1.15459,-5.60803 -1.48448,-1.15459 -3.95861,-0.82471 -5.27814,0.98965 l -23.25683,31.83381 -23.42176,-31.83381 c -1.1546,-1.81436 -3.79367,-2.14424 -5.44309,-0.98965 -1.64942,1.31954 -1.9793,3.62873 -0.82471,5.60803 l 24.7413,33.97805 -24.7413,33.81311 c -1.15459,1.81436 -0.82471,4.12355 0.82471,5.44309 z"
         style="font-style:normal;font-variant:normal;font-weight:normal;font-stretch:normal;font-size:164.94200134px;font-family:Quicksand;-inkscape-font-specification:Quicksand"
         id="path4339" />
      <path
         d="m 403.41111,461.57475 c 0,18.14362 14.67983,32.82345 32.65851,32.9884 10.06146,0 18.96833,-4.61838 25.07119,-11.54594 l 0,5.27814 c -0.16495,16.65914 -13.69019,30.01944 -30.51427,30.01944 -4.61838,0 -9.23676,-1.15459 -13.19536,-3.13389 -1.97931,-0.49483 -4.12355,0 -5.11321,1.9793 -0.98965,1.81436 -0.16494,4.12355 1.64942,5.27814 5.11321,2.30919 10.72123,3.79367 16.65915,3.79367 21.27751,0 38.43148,-16.82408 38.43148,-37.93666 l 0,-25.23613 0,-1.48447 0,-43.87458 c 0,-0.49482 -0.16494,-1.15459 -0.49482,-1.64942 -0.16495,-0.49482 -0.65977,-0.98965 -0.98966,-1.31953 -0.65976,-0.32989 -1.31953,-0.65977 -1.9793,-0.82471 l -0.49483,0 -0.49482,0 c -0.16494,0 -0.32989,0.16494 -0.49483,0.16494 l -0.32988,0 c -0.49483,0.16494 -1.1546,0.49483 -1.48448,0.98965 -0.16494,0 -0.16494,0.16494 -0.32988,0.16494 0,0.16495 -0.16495,0.32989 -0.16495,0.49483 -0.49482,0.49483 -0.65976,1.31954 -0.65976,1.9793 l 0,43.87458 c -0.16495,13.85512 -11.21606,24.90624 -25.07119,24.90624 -13.69018,0 -24.7413,-11.05112 -24.7413,-24.90624 l 0,-43.87458 c 0,-2.14424 -1.81436,-3.79366 -4.12355,-3.79366 -1.9793,0 -3.79366,1.64942 -3.79366,3.79366 l 0,43.87458 z"
         style="font-style:normal;font-variant:normal;font-weight:normal;font-stretch:normal;font-size:164.94200134px;font-family:Quicksand;-inkscape-font-specification:Quicksand"
         id="path4341" />
      <path
         d="m 557.90765,490.76948 c 0,2.14425 1.81436,3.95861 3.95861,3.95861 2.30919,0 4.12355,-1.81436 4.12355,-3.95861 l 0,-107.54218 c 0,-2.14425 -1.81436,-3.95861 -4.12355,-3.95861 -2.14425,0 -3.95861,1.81436 -3.95861,3.95861 l 0,107.54218 z"
         style="font-style:normal;font-variant:normal;font-weight:normal;font-stretch:normal;font-size:164.94200134px;font-family:Quicksand;-inkscape-font-specification:Quicksand"
         id="path4343" />
    </g>
    <g
       style="font-style:normal;font-weight:normal;font-size:109.96133423px;line-height:125%;font-family:sans-serif;letter-spacing:0px;word-spacing:0px;fill:#808080;fill-opacity:1;stroke:none;stroke-width:1px;stroke-linecap:butt;stroke-linejoin:miter;stroke-opacity:1"
       id="text3352">
      <path
         d="m 193.34605,446.11393 c 0,0.23825 0.18327,0.43984 0.43985,0.43984 0.23824,0 0.43984,-0.20159 0.43984,-0.43984 l 0,-11.87583 c 0,-0.0733 -0.0367,-0.16494 -0.0733,-0.23825 -0.0367,-0.055 -0.0733,-0.0916 -0.12829,-0.14661 -0.20159,-0.12829 -0.49482,-0.0916 -0.62311,0.10996 l -4.54507,6.32278 -4.56339,-6.32278 c -0.14662,-0.2016 -0.42152,-0.23825 -0.62312,-0.10996 -0.0183,0.0183 -0.0367,0.0183 -0.0367,0.0366 -0.10996,0.0733 -0.18327,0.2016 -0.18327,0.34821 l 0,11.87583 c 0,0.23825 0.2016,0.43984 0.45817,0.43984 0.23825,0 0.43985,-0.20159 0.43985,-0.43984 l 0,-10.53796 4.10522,5.68133 c 0.0916,0.14662 0.21992,0.2016 0.38487,0.2016 l 0.0367,0 c 0.12829,0 0.2749,-0.055 0.36654,-0.2016 l 4.10522,-5.69966 0,10.55629 z"
         style="font-style:normal;font-variant:normal;font-weight:normal;font-stretch:normal;font-size:18.32688904px;font-family:Quicksand;-inkscape-font-specification:Quicksand;fill:#808080;fill-opacity:1"
         id="path4307" />
      <path
         d="m 198.72957,446.11393 c 0,0.23825 0.2016,0.43984 0.43985,0.43984 0.25657,0 0.45817,-0.20159 0.45817,-0.43984 l 0,-8.10049 c 0,-0.25657 -0.2016,-0.43984 -0.45817,-0.43984 -0.23825,0 -0.43985,0.18327 -0.43985,0.43984 l 0,8.10049 z m 0,-10.61127 c 0,0.25657 0.2016,0.4765 0.43985,0.4765 0.25657,0 0.45817,-0.21993 0.45817,-0.4765 l 0,-0.42152 c 0,-0.23825 -0.2016,-0.43985 -0.45817,-0.43985 -0.23825,0 -0.43985,0.2016 -0.43985,0.43985 l 0,0.42152 z"
         style="font-style:normal;font-variant:normal;font-weight:normal;font-stretch:normal;font-size:18.32688904px;font-family:Quicksand;-inkscape-font-specification:Quicksand;fill:#808080;fill-opacity:1"
         id="path4309" />
      <path
         d="m 211.04982,446.11393 c 0,0.23825 0.2016,0.43984 0.45818,0.43984 0.23825,0 0.43984,-0.20159 0.43984,-0.43984 l 0,-4.03192 0,-0.18327 0,-7.73395 c 0,-0.23824 -0.20159,-0.43984 -0.43984,-0.43984 -0.25658,0 -0.45818,0.2016 -0.45818,0.43984 l 0,5.16819 c -0.78805,-1.06296 -2.03428,-1.75938 -3.44545,-1.75938 -2.41915,0 -4.34347,2.01595 -4.34347,4.50841 0,2.4558 1.92432,4.47176 4.34347,4.47176 1.41117,0 2.6574,-0.67809 3.44545,-1.74105 l 0,1.30121 z m -3.44545,-0.45818 c -1.88767,0 -3.44546,-1.59443 -3.44546,-3.57374 0,-1.99763 1.55779,-3.6104 3.44546,-3.6104 1.85102,0 3.37215,1.53946 3.44545,3.46379 l 0,0.29323 c -0.0733,1.90599 -1.59443,3.42712 -3.44545,3.42712 z"
         style="font-style:normal;font-variant:normal;font-weight:normal;font-stretch:normal;font-size:18.32688904px;font-family:Quicksand;-inkscape-font-specification:Quicksand;fill:#808080;fill-opacity:1"
         id="path4311" />
      <path
         d="m 216.09258,446.11393 c 0,0.23825 0.2016,0.43984 0.43985,0.43984 0.25657,0 0.45817,-0.20159 0.45817,-0.43984 l 0,-11.94914 c 0,-0.23824 -0.2016,-0.43984 -0.45817,-0.43984 -0.23825,0 -0.43985,0.2016 -0.43985,0.43984 l 0,11.94914 z"
         style="font-style:normal;font-variant:normal;font-weight:normal;font-stretch:normal;font-size:18.32688904px;font-family:Quicksand;-inkscape-font-specification:Quicksand;fill:#808080;fill-opacity:1"
         id="path4313" />
      <path
         d="m 220.52855,446.11393 c 0,0.23825 0.20159,0.43984 0.43984,0.43984 0.25658,0 0.45818,-0.20159 0.45818,-0.43984 l 0,-8.10049 c 0,-0.25657 -0.2016,-0.43984 -0.45818,-0.43984 -0.23825,0 -0.43984,0.18327 -0.43984,0.43984 l 0,8.10049 z m 0,-10.61127 c 0,0.25657 0.20159,0.4765 0.43984,0.4765 0.25658,0 0.45818,-0.21993 0.45818,-0.4765 l 0,-0.42152 c 0,-0.23825 -0.2016,-0.43985 -0.45818,-0.43985 -0.23825,0 -0.43984,0.2016 -0.43984,0.43985 l 0,0.42152 z"
         style="font-style:normal;font-variant:normal;font-weight:normal;font-stretch:normal;font-size:18.32688904px;font-family:Quicksand;-inkscape-font-specification:Quicksand;fill:#808080;fill-opacity:1"
         id="path4315" />
      <path
         d="m 232.07907,446.11393 c 0,0.25657 0.2016,0.43984 0.43985,0.43984 0.23825,0 0.43984,-0.18327 0.43984,-0.43984 l 0,-4.87496 c 0,-1.99763 -1.63109,-3.64705 -3.64705,-3.64705 -1.11794,0 -2.12592,0.51316 -2.78569,1.30121 l 0,-0.86136 c 0,-0.23825 -0.18327,-0.43985 -0.42152,-0.43985 -0.25657,0 -0.43984,0.2016 -0.43984,0.43985 l 0,3.06059 0,0.14661 0,4.87496 0,0.10996 c 0,0 0.0183,0.0183 0.0183,0.0367 0,0.0183 0,0.0367 0.0183,0.055 0.055,0.10996 0.16494,0.2016 0.29323,0.23825 l 0.10996,0 c 0.12829,0 0.25658,-0.055 0.32989,-0.16494 0.055,-0.055 0.0733,-0.12829 0.0916,-0.2016 l 0,-0.0733 0,-4.87496 c 0.0367,-1.52113 1.26456,-2.76736 2.78569,-2.76736 1.53946,0 2.76736,1.24623 2.76736,2.76736 l 0,4.87496 z"
         style="font-style:normal;font-variant:normal;font-weight:normal;font-stretch:normal;font-size:18.32688904px;font-family:Quicksand;-inkscape-font-specification:Quicksand;fill:#808080;fill-opacity:1"
         id="path4317" />
      <path
         d="m 240.62455,446.55377 c 1.52114,0 2.859,-0.80638 3.62873,-2.03428 0.12829,-0.21993 0.055,-0.4765 -0.14662,-0.62312 -0.18327,-0.10996 -0.45817,-0.0733 -0.58646,0.14662 -0.60478,1.00798 -1.7044,1.63109 -2.89565,1.63109 -1.85101,0 -3.39047,-1.48448 -3.4821,-3.44545 l 7.3674,0 c 0.23825,0 0.43985,-0.16495 0.43985,-0.4032 l 0,-0.055 0,-0.0183 c -0.18327,-2.34584 -2.01596,-4.17853 -4.32515,-4.17853 -2.41915,0 -4.3618,2.01595 -4.3618,4.50841 0,2.4558 1.94265,4.47176 4.3618,4.47176 z m 0,-8.10048 c 1.64942,0 3.07892,1.2279 3.37215,2.91397 l -6.79927,0 c 0.32988,-1.7044 1.74105,-2.91397 3.42712,-2.91397 z"
         style="font-style:normal;font-variant:normal;font-weight:normal;font-stretch:normal;font-size:18.32688904px;font-family:Quicksand;-inkscape-font-specification:Quicksand;fill:#808080;fill-opacity:1"
         id="path4319" />
    </g>
    <path
       style="fill:none;fill-rule:evenodd;stroke:#000080;stroke-width:1.83268893;stroke-linecap:butt;stroke-linejoin:miter;stroke-opacity:1"
       d="m 597.27323,415.85705 33.38115,0 -16.69059,0 0,77.56204 -16.69056,0 33.38115,0"
       id="path3356"
       inkscape:connector-curvature="0"
       sodipodi:nodetypes="cccccc" />
    <g
       transform="matrix(0,1,-1,0,0,0)"
       style="font-style:normal;font-weight:normal;font-size:109.96133423px;line-height:125%;font-family:sans-serif;letter-spacing:0px;word-spacing:0px;fill:#000080;fill-opacity:1;stroke:none;stroke-width:1px;stroke-linecap:butt;stroke-linejoin:miter;stroke-opacity:1"
       id="text3352-5">
      <path
         d="m 412.79477,-645.52438 c -0.0367,0.2749 0.0916,0.34821 0.25657,0.34821 0.16494,0 0.23825,-0.0916 0.31156,-0.32988 l 1.04463,-3.68371 c 0.0367,-0.16494 0.0916,-0.32988 0.0916,-0.43984 0,-0.21993 -0.12829,-0.31156 -0.29323,-0.31156 l -0.34821,0 c -0.29324,0 -0.45818,0.14662 -0.51316,0.4765 l -0.5498,3.94028 z m -3.29884,0 c -0.0367,0.2749 0.0916,0.34821 0.25657,0.34821 0.16494,0 0.23825,-0.0916 0.31156,-0.32988 l 1.04463,-3.68371 c 0.0367,-0.16494 0.0916,-0.32988 0.0916,-0.43984 0,-0.21993 -0.12829,-0.31156 -0.29323,-0.31156 l -0.34821,0 c -0.29324,0 -0.45818,0.14662 -0.51316,0.4765 l -0.5498,3.94028 z"
         style="font-style:normal;font-variant:normal;font-weight:normal;font-stretch:normal;font-size:18.32688904px;font-family:Quicksand;-inkscape-font-specification:Quicksand;fill:#000080;fill-opacity:1"
         id="path4346" />
      <path
         d="m 417.30604,-637.16732 c 0.0916,0.055 0.18327,0.0916 0.27491,0.0916 0.12829,0 0.2749,-0.0733 0.34821,-0.2016 l 3.97693,-5.44309 3.97694,5.44309 c 0.0916,0.12829 0.21992,0.2016 0.36654,0.2016 0.0916,0 0.16494,-0.0367 0.25657,-0.0916 0.2016,-0.14661 0.25658,-0.42152 0.0916,-0.62311 l -4.14188,-5.66301 4.14188,-5.66301 c 0.16494,-0.2016 0.10996,-0.49483 -0.0916,-0.62311 -0.20159,-0.16495 -0.45817,-0.12829 -0.62311,0.0733 l -3.97694,5.46142 -3.97693,-5.46142 c -0.12829,-0.20159 -0.42152,-0.23825 -0.62312,-0.0733 -0.20159,0.12828 -0.23825,0.42151 -0.0733,0.62311 l 4.12355,5.66301 -4.12355,5.66301 c -0.16495,0.20159 -0.12829,0.4765 0.0733,0.62311 z"
         style="font-style:normal;font-variant:normal;font-weight:normal;font-stretch:normal;font-size:18.32688904px;font-family:Quicksand;-inkscape-font-specification:Quicksand;fill:#000080;fill-opacity:1"
         id="path4348" />
      <path
         d="m 429.6011,-643.0869 3.90362,0 c 0.18327,0 0.34821,-0.14662 0.34821,-0.36654 0,-0.2016 -0.16494,-0.32988 -0.34821,-0.32988 l -3.90362,0 c -0.2016,0 -0.34822,0.12828 -0.34822,0.32988 0,0.21992 0.14662,0.36654 0.34822,0.36654 z"
         style="font-style:normal;font-variant:normal;font-weight:normal;font-stretch:normal;font-size:18.32688904px;font-family:Quicksand;-inkscape-font-specification:Quicksand;fill:#000080;fill-opacity:1"
         id="path4350" />
      <path
         d="m 444.9261,-637.51553 c 0,0.23825 0.20159,0.43985 0.43984,0.43985 0.25658,0 0.45817,-0.2016 0.45817,-0.43985 l 0,-11.94913 c 0,-0.23825 -0.20159,-0.43985 -0.45817,-0.43985 -0.23825,0 -0.43984,0.2016 -0.43984,0.43985 l 0,5.53472 -6.59768,0 0,-5.53472 c 0,-0.23825 -0.2016,-0.43985 -0.45818,-0.43985 -0.23825,0 -0.43984,0.2016 -0.43984,0.43985 l 0,11.94913 c 0,0.23825 0.20159,0.43985 0.43984,0.43985 0.25658,0 0.45818,-0.2016 0.45818,-0.43985 l 0,-5.53472 6.59768,0 0,5.53472 z"
         style="font-style:normal;font-variant:normal;font-weight:normal;font-stretch:normal;font-size:18.32688904px;font-family:Quicksand;-inkscape-font-specification:Quicksand;fill:#000080;fill-opacity:1"
         id="path4352" />
      <path
         d="m 453.94264,-637.07568 c 1.52113,0 2.85899,-0.80639 3.62872,-2.03429 0.12829,-0.21992 0.055,-0.4765 -0.14661,-0.62311 -0.18327,-0.10996 -0.45817,-0.0733 -0.58646,0.14661 -0.60479,1.00798 -1.7044,1.6311 -2.89565,1.6311 -1.85102,0 -3.39048,-1.48448 -3.48211,-3.44546 l 7.36741,0 c 0.23825,0 0.43984,-0.16494 0.43984,-0.40319 l 0,-0.055 0,-0.0183 c -0.18326,-2.34584 -2.01595,-4.17853 -4.32514,-4.17853 -2.41915,0 -4.3618,2.01596 -4.3618,4.50842 0,2.4558 1.94265,4.47176 4.3618,4.47176 z m 0,-8.10049 c 1.64942,0 3.07892,1.2279 3.37215,2.91398 l -6.79928,0 c 0.32988,-1.7044 1.74105,-2.91398 3.42713,-2.91398 z"
         style="font-style:normal;font-variant:normal;font-weight:normal;font-stretch:normal;font-size:18.32688904px;font-family:Quicksand;-inkscape-font-specification:Quicksand;fill:#000080;fill-opacity:1"
         id="path4354" />
      <path
         d="m 461.40856,-637.51553 c 0,0.23825 0.20159,0.43985 0.43984,0.43985 0.25658,0 0.45817,-0.2016 0.45817,-0.43985 l 0,-8.10048 c 0,-0.25658 -0.20159,-0.43985 -0.45817,-0.43985 -0.23825,0 -0.43984,0.18327 -0.43984,0.43985 l 0,8.10048 z m 0,-10.61127 c 0,0.25658 0.20159,0.4765 0.43984,0.4765 0.25658,0 0.45817,-0.21992 0.45817,-0.4765 l 0,-0.42152 c 0,-0.23825 -0.20159,-0.43984 -0.45817,-0.43984 -0.23825,0 -0.43984,0.20159 -0.43984,0.43984 l 0,0.42152 z"
         style="font-style:normal;font-variant:normal;font-weight:normal;font-stretch:normal;font-size:18.32688904px;font-family:Quicksand;-inkscape-font-specification:Quicksand;fill:#000080;fill-opacity:1"
         id="path4356" />
      <path
         d="m 474.38858,-645.61601 c 0,-0.23825 -0.2016,-0.43985 -0.42152,-0.43985 -0.25658,0 -0.45817,0.2016 -0.45817,0.43985 l 0,1.31953 c -0.75141,-1.06296 -1.97931,-1.75938 -3.35382,-1.75938 -2.34585,0 -4.21519,2.03429 -4.21519,4.45343 0,2.47413 1.86934,4.47177 4.21519,4.47177 1.37451,0 2.60241,-0.6781 3.35382,-1.75939 l 0,1.09962 c 0,1.85101 -1.48448,3.33549 -3.35382,3.33549 -0.54981,0 -1.00798,-0.10996 -1.46616,-0.32988 -0.21992,-0.12829 -0.4765,-0.0367 -0.58646,0.20159 -0.10996,0.2016 0,0.45818 0.18327,0.58646 0.58646,0.25658 1.20958,0.42152 1.86935,0.42152 2.34584,0 4.23351,-1.88767 4.23351,-4.21518 l 0,-7.82558 z m -4.23351,7.62398 c -1.83269,0 -3.3355,-1.59444 -3.3355,-3.6104 0,-1.99763 1.50281,-3.57374 3.3355,-3.57374 1.85101,0 3.35382,1.57611 3.35382,3.57374 0,2.01596 -1.50281,3.6104 -3.35382,3.6104 z"
         style="font-style:normal;font-variant:normal;font-weight:normal;font-stretch:normal;font-size:18.32688904px;font-family:Quicksand;-inkscape-font-specification:Quicksand;fill:#000080;fill-opacity:1"
         id="path4358" />
      <path
         d="m 485.24095,-637.51553 c 0,0.23825 0.2016,0.43985 0.43985,0.43985 0.25658,0 0.45817,-0.2016 0.45817,-0.43985 l 0,-5.00324 c 0,-2.07094 -1.68607,-3.53709 -3.75701,-3.53709 -1.13627,0 -2.16257,0.51315 -2.84067,1.31954 l 0,-4.72834 c 0,-0.23825 -0.20159,-0.43985 -0.45817,-0.43985 -0.23825,0 -0.43985,0.2016 -0.43985,0.43985 l 0,6.79928 0,0.14661 0,5.00324 c 0,0.055 0,0.0916 0.0183,0.14662 0.0183,0.055 0.0366,0.0916 0.0733,0.14661 0.0916,0.0916 0.21992,0.14662 0.34821,0.14662 l 0.055,0 0.0367,0 c 0.0183,0 0.0367,-0.0183 0.0367,-0.0183 0.12829,-0.0367 0.21992,-0.10996 0.2749,-0.21992 0.0183,-0.0183 0.0183,-0.0367 0.0367,-0.0733 0,-0.0183 0.0183,-0.0367 0.0183,-0.0733 l 0,-0.055 0,-5.00324 c 0,-1.57611 1.28288,-2.63907 2.84067,-2.63907 1.57611,0 2.85899,1.06296 2.85899,2.63907 l 0,5.00324 z"
         style="font-style:normal;font-variant:normal;font-weight:normal;font-stretch:normal;font-size:18.32688904px;font-family:Quicksand;-inkscape-font-specification:Quicksand;fill:#000080;fill-opacity:1"
         id="path4360" />
      <path
         d="m 492.57687,-646.05586 -1.1546,0 0,-3.33549 c 0,-0.21993 -0.23825,-0.43985 -0.4765,-0.43985 -0.21992,0 -0.43984,0.21992 -0.43984,0.43985 l 0,3.33549 -1.11794,0 c -0.43985,0 -0.43985,0.21992 -0.43985,0.43985 0,0.21992 0,0.43984 0.43985,0.43984 l 1.11794,0 0,6.5427 c 0,0.89802 0.67809,1.55779 1.57611,1.55779 0.21992,0 0.45817,-0.21993 0.45817,-0.43985 0,-0.21992 -0.23825,-0.45817 -0.45817,-0.45817 -0.21992,0 -0.65977,-0.21992 -0.65977,-0.65977 l 0,-6.5427 1.1546,0 c 0.21992,0 0.43984,-0.21992 0.43984,-0.43984 0,-0.21993 -0.21992,-0.43985 -0.43984,-0.43985 z"
         style="font-style:normal;font-variant:normal;font-weight:normal;font-stretch:normal;font-size:18.32688904px;font-family:Quicksand;-inkscape-font-specification:Quicksand;fill:#000080;fill-opacity:1"
         id="path4362" />
      <path
         d="m 500.09805,-645.52438 c -0.0367,0.2749 0.0916,0.34821 0.25658,0.34821 0.16494,0 0.23825,-0.0916 0.31155,-0.32988 l 1.04464,-3.68371 c 0.0367,-0.16494 0.0916,-0.32988 0.0916,-0.43984 0,-0.21993 -0.12829,-0.31156 -0.29323,-0.31156 l -0.34821,0 c -0.29323,0 -0.45817,0.14662 -0.51315,0.4765 l -0.54981,3.94028 z m -3.29884,0 c -0.0367,0.2749 0.0916,0.34821 0.25658,0.34821 0.16494,0 0.23825,-0.0916 0.31155,-0.32988 l 1.04464,-3.68371 c 0.0366,-0.16494 0.0916,-0.32988 0.0916,-0.43984 0,-0.21993 -0.12829,-0.31156 -0.29323,-0.31156 l -0.34821,0 c -0.29323,0 -0.45817,0.14662 -0.51315,0.4765 l -0.54981,3.94028 z"
         style="font-style:normal;font-variant:normal;font-weight:normal;font-stretch:normal;font-size:18.32688904px;font-family:Quicksand;-inkscape-font-specification:Quicksand;fill:#000080;fill-opacity:1"
         id="path4364" />
    </g>
    <g
       style="font-style:normal;font-weight:normal;font-size:109.96133423px;line-height:125%;font-family:sans-serif;letter-spacing:0px;word-spacing:0px;fill:#aa00d4;fill-opacity:1;stroke:none;stroke-width:1px;stroke-linecap:butt;stroke-linejoin:miter;stroke-opacity:1"
       id="text4188">
      <path
         d="m 472.43069,369.32475 c 0.0733,0.18327 0.25658,0.29323 0.42152,0.29323 0.055,0 0.0916,-0.0183 0.16494,-0.0183 0.21993,-0.0916 0.32989,-0.36653 0.23825,-0.58646 l -4.45343,-11.89415 c -0.055,-0.16494 -0.23825,-0.2749 -0.43985,-0.2749 -0.18326,0 -0.36653,0.10996 -0.43984,0.2749 l -4.45343,11.89415 c -0.0916,0.21993 0.0367,0.49483 0.25657,0.58646 0.055,0 0.12829,0.0183 0.16494,0.0183 0.18327,0 0.34821,-0.10996 0.42152,-0.29323 l 1.13627,-3.02394 5.84628,0 1.13626,3.02394 z m -4.05024,-10.81286 2.58409,6.89091 -5.18651,0 2.60242,-6.89091 z"
         style="font-style:normal;font-variant:normal;font-weight:normal;font-stretch:normal;font-size:18.32688904px;font-family:Quicksand;-inkscape-font-specification:Quicksand;fill:#aa00d4;fill-opacity:1"
         id="path4367" />
      <path
         d="m 475.35355,368.3351 c 0.73307,0.58646 1.86934,1.26455 3.31716,1.28288 0.87969,0 1.61277,-0.25658 2.23588,-0.71475 0.60479,-0.45817 1.02631,-1.06296 1.02631,-1.81436 0,-0.7514 -0.42152,-1.44782 -1.00798,-1.83269 -0.62311,-0.34821 -1.31954,-0.60479 -2.1809,-0.73307 l -0.0366,0 c -0.82471,-0.12829 -1.4295,-0.34822 -1.83269,-0.62312 -0.34821,-0.2749 -0.51315,-0.53148 -0.51315,-0.89802 0,-0.36653 0.20159,-0.73307 0.56813,-1.0263 0.38486,-0.31156 0.97132,-0.51315 1.7044,-0.51315 0.87969,0 1.53946,0.45817 2.19923,0.89801 0.20159,0.12829 0.4765,0.0733 0.60478,-0.12829 0.12829,-0.20159 0.0733,-0.47649 -0.12828,-0.62311 -0.69643,-0.43984 -1.52114,-0.97132 -2.67573,-0.97132 -0.91634,0 -1.66775,0.23824 -2.19923,0.60478 -0.56813,0.42152 -0.97132,1.04464 -0.97132,1.75938 0,0.69643 0.40319,1.28289 0.97132,1.61277 0.51316,0.36654 1.2279,0.54981 2.03429,0.69642 l 0.0367,0.0183 c 0.87969,0.14661 1.52113,0.36654 1.906,0.65977 0.45817,0.38486 0.62311,0.67809 0.64144,1.09961 0,0.40319 -0.23825,0.80638 -0.6781,1.09961 -0.40319,0.32989 -1.00797,0.54981 -1.7044,0.54981 -1.13626,0 -2.12592,-0.58646 -2.74903,-1.04463 -0.2016,-0.16494 -0.4765,-0.12829 -0.62311,0.055 -0.14662,0.18327 -0.12829,0.42152 0.055,0.58646 z"
         style="font-style:normal;font-variant:normal;font-weight:normal;font-stretch:normal;font-size:18.32688904px;font-family:Quicksand;-inkscape-font-specification:Quicksand;fill:#aa00d4;fill-opacity:1"
         id="path4369" />
      <path
         d="m 488.91888,369.61798 c 0,0 0,0 0,0 1.06296,0 2.07094,-0.36654 2.82234,-0.953 0.21992,-0.16494 0.25658,-0.43984 0.0916,-0.64144 -0.14662,-0.16494 -0.4032,-0.21992 -0.60479,-0.0733 -0.64144,0.49483 -1.44783,0.78806 -2.30919,0.78806 -2.08926,0 -3.73868,-1.61277 -3.73868,-3.62872 0,-1.97931 1.64942,-3.6104 3.73868,-3.6104 0.86136,0 1.66775,0.29323 2.30919,0.80638 0.20159,0.14662 0.45817,0.0916 0.60479,-0.0733 0.16494,-0.20159 0.12828,-0.47649 -0.055,-0.60478 -0.78806,-0.62312 -1.79604,-0.98965 -2.859,-0.98965 -2.56576,0 -4.61838,1.9793 -4.61838,4.47176 0,2.52911 2.05262,4.50841 4.61838,4.50841 z"
         style="font-style:normal;font-variant:normal;font-weight:normal;font-stretch:normal;font-size:18.32688904px;font-family:Quicksand;-inkscape-font-specification:Quicksand;fill:#aa00d4;fill-opacity:1"
         id="path4371" />
      <path
         d="m 498.828,369.61798 c 1.52113,0 2.85899,-0.80638 3.62872,-2.03428 0.12829,-0.21993 0.055,-0.4765 -0.14661,-0.62312 -0.18327,-0.10996 -0.45817,-0.0733 -0.58646,0.14662 -0.60479,1.00798 -1.7044,1.63109 -2.89565,1.63109 -1.85102,0 -3.39048,-1.48448 -3.48211,-3.44545 l 7.36741,0 c 0.23825,0 0.43985,-0.16495 0.43985,-0.4032 l 0,-0.055 0,-0.0183 c -0.18327,-2.34585 -2.01596,-4.17853 -4.32515,-4.17853 -2.41915,0 -4.3618,2.01595 -4.3618,4.50841 0,2.4558 1.94265,4.47176 4.3618,4.47176 z m 0,-8.10048 c 1.64942,0 3.07892,1.2279 3.37215,2.91397 l -6.79928,0 c 0.32989,-1.7044 1.74106,-2.91397 3.42713,-2.91397 z"
         style="font-style:normal;font-variant:normal;font-weight:normal;font-stretch:normal;font-size:18.32688904px;font-family:Quicksand;-inkscape-font-specification:Quicksand;fill:#aa00d4;fill-opacity:1"
         id="path4373" />
      <path
         d="m 512.69,369.17814 c 0,0.25657 0.2016,0.43984 0.43985,0.43984 0.23825,0 0.43984,-0.18327 0.43984,-0.43984 l 0,-4.87496 c 0,-1.99763 -1.63109,-3.64705 -3.64705,-3.64705 -1.11794,0 -2.12592,0.51316 -2.78569,1.30121 l 0,-0.86136 c 0,-0.23825 -0.18326,-0.43985 -0.42151,-0.43985 -0.25658,0 -0.43985,0.2016 -0.43985,0.43985 l 0,3.06059 0,0.14661 0,4.87496 0,0.10996 c 0,0 0.0183,0.0183 0.0183,0.0367 0,0.0183 0,0.0367 0.0183,0.055 0.055,0.10996 0.16495,0.2016 0.29323,0.23825 l 0.10997,0 c 0.12828,0 0.25657,-0.055 0.32988,-0.16494 0.055,-0.055 0.0733,-0.12829 0.0916,-0.2016 l 0,-0.0733 0,-4.87496 c 0.0367,-1.52113 1.26456,-2.76736 2.78569,-2.76736 1.53946,0 2.76736,1.24623 2.76736,2.76736 l 0,4.87496 z"
         style="font-style:normal;font-variant:normal;font-weight:normal;font-stretch:normal;font-size:18.32688904px;font-family:Quicksand;-inkscape-font-specification:Quicksand;fill:#aa00d4;fill-opacity:1"
         id="path4375" />
      <path
         d="m 524.34132,369.17814 c 0,0.23825 0.20159,0.43984 0.45817,0.43984 0.23825,0 0.43985,-0.20159 0.43985,-0.43984 l 0,-4.03192 0,-0.18327 0,-7.73395 c 0,-0.23825 -0.2016,-0.43984 -0.43985,-0.43984 -0.25658,0 -0.45817,0.20159 -0.45817,0.43984 l 0,5.16819 c -0.78806,-1.06296 -2.03429,-1.75938 -3.44546,-1.75938 -2.41915,0 -4.34347,2.01595 -4.34347,4.50841 0,2.4558 1.92432,4.47176 4.34347,4.47176 1.41117,0 2.6574,-0.67809 3.44546,-1.74105 l 0,1.30121 z m -3.44546,-0.45818 c -1.88767,0 -3.44545,-1.59444 -3.44545,-3.57374 0,-1.99763 1.55778,-3.6104 3.44545,-3.6104 1.85102,0 3.37215,1.53946 3.44546,3.46378 l 0,0.29324 c -0.0733,1.90599 -1.59444,3.42712 -3.44546,3.42712 z"
         style="font-style:normal;font-variant:normal;font-weight:normal;font-stretch:normal;font-size:18.32688904px;font-family:Quicksand;-inkscape-font-specification:Quicksand;fill:#aa00d4;fill-opacity:1"
         id="path4377" />
      <path
         d="m 532.68979,369.61798 c 1.52113,0 2.85899,-0.80638 3.62872,-2.03428 0.12829,-0.21993 0.055,-0.4765 -0.14661,-0.62312 -0.18327,-0.10996 -0.45817,-0.0733 -0.58646,0.14662 -0.60479,1.00798 -1.7044,1.63109 -2.89565,1.63109 -1.85102,0 -3.39048,-1.48448 -3.48211,-3.44545 l 7.36741,0 c 0.23825,0 0.43984,-0.16495 0.43984,-0.4032 l 0,-0.055 0,-0.0183 c -0.18326,-2.34585 -2.01595,-4.17853 -4.32514,-4.17853 -2.41915,0 -4.3618,2.01595 -4.3618,4.50841 0,2.4558 1.94265,4.47176 4.3618,4.47176 z m 0,-8.10048 c 1.64942,0 3.07892,1.2279 3.37215,2.91397 l -6.79928,0 c 0.32988,-1.7044 1.74106,-2.91397 3.42713,-2.91397 z"
         style="font-style:normal;font-variant:normal;font-weight:normal;font-stretch:normal;font-size:18.32688904px;font-family:Quicksand;-inkscape-font-specification:Quicksand;fill:#aa00d4;fill-opacity:1"
         id="path4379" />
      <path
         d="m 539.74364,369.17814 c 0,0.25657 0.20159,0.43984 0.45817,0.43984 0.21992,0 0.42152,-0.18327 0.42152,-0.43984 l 0,-3.94029 c 0,-0.0367 0,-0.0733 0.0367,-0.14661 0.12829,-0.36654 0.4765,-1.28288 1.08129,-2.08927 0.62311,-0.80638 1.4295,-1.46615 2.60242,-1.46615 0.23825,0 0.43984,-0.20159 0.43984,-0.43984 0,-0.25658 -0.20159,-0.43985 -0.43984,-0.43985 -1.72273,0 -2.91398,1.13627 -3.59207,2.19923 -0.055,0.0733 -0.0916,0.14661 -0.12829,0.21992 l 0,-1.9793 c 0,-0.25658 -0.2016,-0.43985 -0.42152,-0.43985 -0.25658,0 -0.45817,0.18327 -0.45817,0.43985 l 0,8.08216 z"
         style="font-style:normal;font-variant:normal;font-weight:normal;font-stretch:normal;font-size:18.32688904px;font-family:Quicksand;-inkscape-font-specification:Quicksand;fill:#aa00d4;fill-opacity:1"
         id="path4381" />
      <path
         d="m 560.54895,369.61798 c 0.25658,0 0.45817,-0.20159 0.45817,-0.43984 0,-0.25658 -0.20159,-0.45818 -0.45817,-0.45818 l -6.13951,0 0,-11.49096 c 0,-0.23825 -0.20159,-0.43984 -0.45817,-0.43984 -0.23825,0 -0.43984,0.20159 -0.43984,0.43984 l 0,11.94914 c 0,0.23825 0.20159,0.43984 0.43984,0.43984 l 0.0367,0 6.56102,0 z"
         style="font-style:normal;font-variant:normal;font-weight:normal;font-stretch:normal;font-size:18.32688904px;font-family:Quicksand;-inkscape-font-specification:Quicksand;fill:#aa00d4;fill-opacity:1"
         id="path4383" />
      <path
         d="m 563.63703,369.17814 c 0,0.23825 0.2016,0.43984 0.43985,0.43984 0.25658,0 0.45817,-0.20159 0.45817,-0.43984 l 0,-8.10049 c 0,-0.25658 -0.20159,-0.43984 -0.45817,-0.43984 -0.23825,0 -0.43985,0.18326 -0.43985,0.43984 l 0,8.10049 z m 0,-10.61127 c 0,0.25657 0.2016,0.4765 0.43985,0.4765 0.25658,0 0.45817,-0.21993 0.45817,-0.4765 l 0,-0.42152 c 0,-0.23825 -0.20159,-0.43985 -0.45817,-0.43985 -0.23825,0 -0.43985,0.2016 -0.43985,0.43985 l 0,0.42152 z"
         style="font-style:normal;font-variant:normal;font-weight:normal;font-stretch:normal;font-size:18.32688904px;font-family:Quicksand;-inkscape-font-specification:Quicksand;fill:#aa00d4;fill-opacity:1"
         id="path4385" />
      <path
         d="m 575.18755,369.17814 c 0,0.25657 0.2016,0.43984 0.43985,0.43984 0.23825,0 0.43984,-0.18327 0.43984,-0.43984 l 0,-4.87496 c 0,-1.99763 -1.63109,-3.64705 -3.64705,-3.64705 -1.11794,0 -2.12592,0.51316 -2.78568,1.30121 l 0,-0.86136 c 0,-0.23825 -0.18327,-0.43985 -0.42152,-0.43985 -0.25658,0 -0.43985,0.2016 -0.43985,0.43985 l 0,3.06059 0,0.14661 0,4.87496 0,0.10996 c 0,0 0.0183,0.0183 0.0183,0.0367 0,0.0183 0,0.0367 0.0183,0.055 0.055,0.10996 0.16494,0.2016 0.29323,0.23825 l 0.10996,0 c 0.12829,0 0.25657,-0.055 0.32988,-0.16494 0.055,-0.055 0.0733,-0.12829 0.0916,-0.2016 l 0,-0.0733 0,-4.87496 c 0.0367,-1.52113 1.26455,-2.76736 2.78568,-2.76736 1.53946,0 2.76736,1.24623 2.76736,2.76736 l 0,4.87496 z"
         style="font-style:normal;font-variant:normal;font-weight:normal;font-stretch:normal;font-size:18.32688904px;font-family:Quicksand;-inkscape-font-specification:Quicksand;fill:#aa00d4;fill-opacity:1"
         id="path4387" />
      <path
         d="m 583.73304,369.61798 c 1.52113,0 2.85899,-0.80638 3.62872,-2.03428 0.12829,-0.21993 0.055,-0.4765 -0.14661,-0.62312 -0.18327,-0.10996 -0.45817,-0.0733 -0.58646,0.14662 -0.60479,1.00798 -1.7044,1.63109 -2.89565,1.63109 -1.85102,0 -3.39047,-1.48448 -3.48211,-3.44545 l 7.36741,0 c 0.23825,0 0.43985,-0.16495 0.43985,-0.4032 l 0,-0.055 0,-0.0183 c -0.18327,-2.34585 -2.01596,-4.17853 -4.32515,-4.17853 -2.41915,0 -4.3618,2.01595 -4.3618,4.50841 0,2.4558 1.94265,4.47176 4.3618,4.47176 z m 0,-8.10048 c 1.64942,0 3.07892,1.2279 3.37215,2.91397 l -6.79928,0 c 0.32989,-1.7044 1.74106,-2.91397 3.42713,-2.91397 z"
         style="font-style:normal;font-variant:normal;font-weight:normal;font-stretch:normal;font-size:18.32688904px;font-family:Quicksand;-inkscape-font-specification:Quicksand;fill:#aa00d4;fill-opacity:1"
         id="path4389" />
    </g>
    <g
       style="font-style:normal;font-weight:normal;font-size:109.96133423px;line-height:125%;font-family:sans-serif;letter-spacing:0px;word-spacing:0px;fill:#c83737;fill-opacity:1;stroke:none;stroke-width:1px;stroke-linecap:butt;stroke-linejoin:miter;stroke-opacity:1"
       id="text4192">
      <path
         d="m 237.08558,546.48187 c 3.53709,0 6.41441,-2.85899 6.41441,-6.39608 0,-3.53709 -2.87732,-6.43274 -6.41441,-6.43274 l -2.34584,0 -0.055,0 c -0.23824,0 -0.43984,0.2016 -0.43984,0.43985 l 0,11.94913 c 0,0.23825 0.18327,0.42152 0.40319,0.43984 l 0.0733,0 2.36417,0 z m -1.94265,-0.89802 0,-11.03278 1.94265,0 c 3.04226,0.0183 5.51639,2.47413 5.51639,5.53472 0,3.04226 -2.47413,5.49806 -5.51639,5.49806 l -1.94265,0 z"
         style="font-style:normal;font-variant:normal;font-weight:normal;font-stretch:normal;font-size:18.32688904px;font-family:Quicksand;-inkscape-font-specification:Quicksand;fill:#c83737;fill-opacity:1"
         id="path4263" />
      <path
         d="m 250.93612,546.48187 c 1.52113,0 2.859,-0.80638 3.62873,-2.03428 0.12829,-0.21992 0.055,-0.4765 -0.14662,-0.62312 -0.18327,-0.10996 -0.45817,-0.0733 -0.58646,0.14662 -0.60479,1.00798 -1.7044,1.63109 -2.89565,1.63109 -1.85101,0 -3.39047,-1.48448 -3.48211,-3.44545 l 7.36741,0 c 0.23825,0 0.43985,-0.16495 0.43985,-0.40319 l 0,-0.055 0,-0.0183 c -0.18327,-2.34584 -2.01596,-4.17853 -4.32515,-4.17853 -2.41915,0 -4.3618,2.01595 -4.3618,4.50841 0,2.4558 1.94265,4.47176 4.3618,4.47176 z m 0,-8.10048 c 1.64942,0 3.07892,1.2279 3.37215,2.91397 l -6.79928,0 c 0.32989,-1.7044 1.74106,-2.91397 3.42713,-2.91397 z"
         style="font-style:normal;font-variant:normal;font-weight:normal;font-stretch:normal;font-size:18.32688904px;font-family:Quicksand;-inkscape-font-specification:Quicksand;fill:#c83737;fill-opacity:1"
         id="path4265" />
      <path
         d="m 257.81558,545.19899 c 0.73307,0.58646 1.86934,1.26456 3.31717,1.28288 0.87969,0 1.61276,-0.25657 2.23588,-0.71475 0.60478,-0.45817 1.0263,-1.06296 1.0263,-1.81436 0,-0.7514 -0.42152,-1.44782 -1.00798,-1.83269 -0.62311,-0.34821 -1.31953,-0.60478 -2.1809,-0.73307 l -0.0367,0 c -0.82471,-0.12829 -1.4295,-0.34821 -1.83269,-0.62312 -0.34821,-0.2749 -0.51315,-0.53148 -0.51315,-0.89801 0,-0.36654 0.20159,-0.73308 0.56813,-1.02631 0.38487,-0.31156 0.97133,-0.51315 1.7044,-0.51315 0.87969,0 1.53946,0.45817 2.19923,0.89801 0.20159,0.12829 0.4765,0.0733 0.60479,-0.12828 0.12828,-0.2016 0.0733,-0.4765 -0.12829,-0.62312 -0.69642,-0.43984 -1.52113,-0.97132 -2.67573,-0.97132 -0.91634,0 -1.66774,0.23825 -2.19922,0.60478 -0.56814,0.42152 -0.97133,1.04464 -0.97133,1.75939 0,0.69642 0.40319,1.28288 0.97133,1.61276 0.51315,0.36654 1.2279,0.54981 2.03428,0.69642 l 0.0367,0.0183 c 0.87969,0.14662 1.52114,0.36654 1.906,0.65977 0.45817,0.38486 0.62311,0.67809 0.64144,1.09961 0,0.40319 -0.23825,0.80638 -0.67809,1.09962 -0.4032,0.32988 -1.00798,0.5498 -1.7044,0.5498 -1.13627,0 -2.12592,-0.58646 -2.74904,-1.04463 -0.20159,-0.16494 -0.4765,-0.12829 -0.62311,0.055 -0.14662,0.18327 -0.12829,0.42152 0.055,0.58646 z"
         style="font-style:normal;font-variant:normal;font-weight:normal;font-stretch:normal;font-size:18.32688904px;font-family:Quicksand;-inkscape-font-specification:Quicksand;fill:#c83737;fill-opacity:1"
         id="path4267" />
      <path
         d="m 271.38091,546.48187 c 0,0 0,0 0,0 1.06296,0 2.07094,-0.36654 2.82234,-0.953 0.21993,-0.16494 0.25658,-0.43984 0.0916,-0.64144 -0.14662,-0.16494 -0.40319,-0.21992 -0.60479,-0.0733 -0.64144,0.49482 -1.44782,0.78805 -2.30919,0.78805 -2.08926,0 -3.73868,-1.61276 -3.73868,-3.62872 0,-1.97931 1.64942,-3.6104 3.73868,-3.6104 0.86137,0 1.66775,0.29323 2.30919,0.80638 0.2016,0.14662 0.45817,0.0916 0.60479,-0.0733 0.16494,-0.2016 0.12829,-0.4765 -0.055,-0.60479 -0.78806,-0.62312 -1.79604,-0.98965 -2.859,-0.98965 -2.56576,0 -4.61837,1.9793 -4.61837,4.47176 0,2.52911 2.05261,4.50841 4.61837,4.50841 z"
         style="font-style:normal;font-variant:normal;font-weight:normal;font-stretch:normal;font-size:18.32688904px;font-family:Quicksand;-inkscape-font-specification:Quicksand;fill:#c83737;fill-opacity:1"
         id="path4269" />
      <path
         d="m 281.29003,546.48187 c 1.52113,0 2.859,-0.80638 3.62873,-2.03428 0.12828,-0.21992 0.055,-0.4765 -0.14662,-0.62312 -0.18327,-0.10996 -0.45817,-0.0733 -0.58646,0.14662 -0.60479,1.00798 -1.7044,1.63109 -2.89565,1.63109 -1.85101,0 -3.39047,-1.48448 -3.48211,-3.44545 l 7.36741,0 c 0.23825,0 0.43985,-0.16495 0.43985,-0.40319 l 0,-0.055 0,-0.0183 c -0.18327,-2.34584 -2.01596,-4.17853 -4.32515,-4.17853 -2.41915,0 -4.3618,2.01595 -4.3618,4.50841 0,2.4558 1.94265,4.47176 4.3618,4.47176 z m 0,-8.10048 c 1.64942,0 3.07892,1.2279 3.37215,2.91397 l -6.79928,0 c 0.32989,-1.7044 1.74106,-2.91397 3.42713,-2.91397 z"
         style="font-style:normal;font-variant:normal;font-weight:normal;font-stretch:normal;font-size:18.32688904px;font-family:Quicksand;-inkscape-font-specification:Quicksand;fill:#c83737;fill-opacity:1"
         id="path4271" />
      <path
         d="m 295.15203,546.04203 c 0,0.25657 0.2016,0.43984 0.43985,0.43984 0.23825,0 0.43984,-0.18327 0.43984,-0.43984 l 0,-4.87496 c 0,-1.99763 -1.63109,-3.64705 -3.64705,-3.64705 -1.11794,0 -2.12592,0.51316 -2.78568,1.30121 l 0,-0.86136 c 0,-0.23825 -0.18327,-0.43985 -0.42152,-0.43985 -0.25658,0 -0.43985,0.2016 -0.43985,0.43985 l 0,3.06059 0,0.14661 0,4.87496 0,0.10996 c 0,0 0.0183,0.0183 0.0183,0.0367 0,0.0183 0,0.0367 0.0183,0.055 0.055,0.10996 0.16494,0.2016 0.29323,0.23825 l 0.10996,0 c 0.12829,0 0.25657,-0.055 0.32988,-0.16494 0.055,-0.055 0.0733,-0.12829 0.0916,-0.2016 l 0,-0.0733 0,-4.87496 c 0.0367,-1.52113 1.26455,-2.76736 2.78568,-2.76736 1.53946,0 2.76736,1.24623 2.76736,2.76736 l 0,4.87496 z"
         style="font-style:normal;font-variant:normal;font-weight:normal;font-stretch:normal;font-size:18.32688904px;font-family:Quicksand;-inkscape-font-specification:Quicksand;fill:#c83737;fill-opacity:1"
         id="path4273" />
      <path
         d="m 306.80335,546.04203 c 0,0.23825 0.2016,0.43984 0.45817,0.43984 0.23825,0 0.43985,-0.20159 0.43985,-0.43984 l 0,-4.03192 0,-0.18327 0,-7.73394 c 0,-0.23825 -0.2016,-0.43985 -0.43985,-0.43985 -0.25657,0 -0.45817,0.2016 -0.45817,0.43985 l 0,5.16818 c -0.78805,-1.06296 -2.03428,-1.75938 -3.44545,-1.75938 -2.41915,0 -4.34348,2.01595 -4.34348,4.50841 0,2.4558 1.92433,4.47176 4.34348,4.47176 1.41117,0 2.6574,-0.67809 3.44545,-1.74105 l 0,1.30121 z m -3.44545,-0.45818 c -1.88767,0 -3.44546,-1.59443 -3.44546,-3.57374 0,-1.99763 1.55779,-3.6104 3.44546,-3.6104 1.85101,0 3.37214,1.53946 3.44545,3.46379 l 0,0.29323 c -0.0733,1.90599 -1.59444,3.42712 -3.44545,3.42712 z"
         style="font-style:normal;font-variant:normal;font-weight:normal;font-stretch:normal;font-size:18.32688904px;font-family:Quicksand;-inkscape-font-specification:Quicksand;fill:#c83737;fill-opacity:1"
         id="path4275" />
      <path
         d="m 315.15183,546.48187 c 1.52113,0 2.85899,-0.80638 3.62872,-2.03428 0.12829,-0.21992 0.055,-0.4765 -0.14662,-0.62312 -0.18326,-0.10996 -0.45817,-0.0733 -0.58646,0.14662 -0.60478,1.00798 -1.7044,1.63109 -2.89564,1.63109 -1.85102,0 -3.39048,-1.48448 -3.48211,-3.44545 l 7.36741,0 c 0.23825,0 0.43984,-0.16495 0.43984,-0.40319 l 0,-0.055 0,-0.0183 c -0.18327,-2.34584 -2.01596,-4.17853 -4.32514,-4.17853 -2.41915,0 -4.3618,2.01595 -4.3618,4.50841 0,2.4558 1.94265,4.47176 4.3618,4.47176 z m 0,-8.10048 c 1.64942,0 3.07891,1.2279 3.37214,2.91397 l -6.79927,0 c 0.32988,-1.7044 1.74105,-2.91397 3.42713,-2.91397 z"
         style="font-style:normal;font-variant:normal;font-weight:normal;font-stretch:normal;font-size:18.32688904px;font-family:Quicksand;-inkscape-font-specification:Quicksand;fill:#c83737;fill-opacity:1"
         id="path4277" />
      <path
         d="m 322.20567,546.04203 c 0,0.25657 0.20159,0.43984 0.45817,0.43984 0.21992,0 0.42152,-0.18327 0.42152,-0.43984 l 0,-3.94028 c 0,-0.0367 0,-0.0733 0.0367,-0.14662 0.12829,-0.36654 0.4765,-1.28288 1.08129,-2.08926 0.62311,-0.80639 1.4295,-1.46616 2.60242,-1.46616 0.23825,0 0.43984,-0.20159 0.43984,-0.43984 0,-0.25658 -0.20159,-0.43985 -0.43984,-0.43985 -1.72273,0 -2.91398,1.13627 -3.59207,2.19923 -0.055,0.0733 -0.0916,0.14662 -0.12829,0.21992 l 0,-1.9793 c 0,-0.25658 -0.2016,-0.43985 -0.42152,-0.43985 -0.25658,0 -0.45817,0.18327 -0.45817,0.43985 l 0,8.08216 z"
         style="font-style:normal;font-variant:normal;font-weight:normal;font-stretch:normal;font-size:18.32688904px;font-family:Quicksand;-inkscape-font-specification:Quicksand;fill:#c83737;fill-opacity:1"
         id="path4279" />
      <path
         d="m 343.01098,546.48187 c 0.25658,0 0.45817,-0.20159 0.45817,-0.43984 0,-0.25658 -0.20159,-0.45818 -0.45817,-0.45818 l -6.13951,0 0,-11.49095 c 0,-0.23825 -0.20159,-0.43985 -0.45817,-0.43985 -0.23825,0 -0.43984,0.2016 -0.43984,0.43985 l 0,11.94913 c 0,0.23825 0.20159,0.43984 0.43984,0.43984 l 0.0367,0 6.56103,0 z"
         style="font-style:normal;font-variant:normal;font-weight:normal;font-stretch:normal;font-size:18.32688904px;font-family:Quicksand;-inkscape-font-specification:Quicksand;fill:#c83737;fill-opacity:1"
         id="path4281" />
      <path
         d="m 346.09906,546.04203 c 0,0.23825 0.2016,0.43984 0.43985,0.43984 0.25657,0 0.45817,-0.20159 0.45817,-0.43984 l 0,-8.10049 c 0,-0.25657 -0.2016,-0.43984 -0.45817,-0.43984 -0.23825,0 -0.43985,0.18327 -0.43985,0.43984 l 0,8.10049 z m 0,-10.61127 c 0,0.25657 0.2016,0.4765 0.43985,0.4765 0.25657,0 0.45817,-0.21993 0.45817,-0.4765 l 0,-0.42152 c 0,-0.23825 -0.2016,-0.43985 -0.45817,-0.43985 -0.23825,0 -0.43985,0.2016 -0.43985,0.43985 l 0,0.42152 z"
         style="font-style:normal;font-variant:normal;font-weight:normal;font-stretch:normal;font-size:18.32688904px;font-family:Quicksand;-inkscape-font-specification:Quicksand;fill:#c83737;fill-opacity:1"
         id="path4283" />
      <path
         d="m 357.64959,546.04203 c 0,0.25657 0.20159,0.43984 0.43984,0.43984 0.23825,0 0.43985,-0.18327 0.43985,-0.43984 l 0,-4.87496 c 0,-1.99763 -1.63109,-3.64705 -3.64705,-3.64705 -1.11794,0 -2.12592,0.51316 -2.78569,1.30121 l 0,-0.86136 c 0,-0.23825 -0.18327,-0.43985 -0.42152,-0.43985 -0.25657,0 -0.43984,0.2016 -0.43984,0.43985 l 0,3.06059 0,0.14661 0,4.87496 0,0.10996 c 0,0 0.0183,0.0183 0.0183,0.0367 0,0.0183 0,0.0367 0.0183,0.055 0.055,0.10996 0.16494,0.2016 0.29323,0.23825 l 0.10996,0 c 0.12829,0 0.25658,-0.055 0.32989,-0.16494 0.055,-0.055 0.0733,-0.12829 0.0916,-0.2016 l 0,-0.0733 0,-4.87496 c 0.0367,-1.52113 1.26456,-2.76736 2.78569,-2.76736 1.53946,0 2.76736,1.24623 2.76736,2.76736 l 0,4.87496 z"
         style="font-style:normal;font-variant:normal;font-weight:normal;font-stretch:normal;font-size:18.32688904px;font-family:Quicksand;-inkscape-font-specification:Quicksand;fill:#c83737;fill-opacity:1"
         id="path4285" />
      <path
         d="m 366.19507,546.48187 c 1.52113,0 2.85899,-0.80638 3.62872,-2.03428 0.12829,-0.21992 0.055,-0.4765 -0.14661,-0.62312 -0.18327,-0.10996 -0.45817,-0.0733 -0.58646,0.14662 -0.60479,1.00798 -1.7044,1.63109 -2.89565,1.63109 -1.85102,0 -3.39048,-1.48448 -3.48211,-3.44545 l 7.36741,0 c 0.23825,0 0.43984,-0.16495 0.43984,-0.40319 l 0,-0.055 0,-0.0183 c -0.18326,-2.34584 -2.01595,-4.17853 -4.32514,-4.17853 -2.41915,0 -4.3618,2.01595 -4.3618,4.50841 0,2.4558 1.94265,4.47176 4.3618,4.47176 z m 0,-8.10048 c 1.64942,0 3.07892,1.2279 3.37215,2.91397 l -6.79928,0 c 0.32988,-1.7044 1.74105,-2.91397 3.42713,-2.91397 z"
         style="font-style:normal;font-variant:normal;font-weight:normal;font-stretch:normal;font-size:18.32688904px;font-family:Quicksand;-inkscape-font-specification:Quicksand;fill:#c83737;fill-opacity:1"
         id="path4287" />
    </g>
    <g
       style="color:#000000;font-style:normal;font-variant:normal;font-weight:normal;font-stretch:normal;font-size:18.32688904px;line-height:125%;font-family:Quicksand;-inkscape-font-specification:Quicksand;text-indent:0;text-align:start;text-decoration:none;text-decoration-line:none;text-decoration-style:solid;text-decoration-color:#000000;letter-spacing:0px;word-spacing:0px;text-transform:none;direction:ltr;block-progression:tb;writing-mode:lr-tb;baseline-shift:baseline;text-anchor:start;white-space:normal;clip-rule:nonzero;display:inline;overflow:visible;visibility:visible;opacity:1;isolation:auto;mix-blend-mode:normal;color-interpolation:sRGB;color-interpolation-filters:linearRGB;solid-color:#000000;solid-opacity:1;fill:#000080;fill-opacity:1;fill-rule:nonzero;stroke:none;stroke-width:1px;stroke-linecap:butt;stroke-linejoin:miter;stroke-miterlimit:4;stroke-dasharray:none;stroke-dashoffset:0;stroke-opacity:1;color-rendering:auto;image-rendering:auto;shape-rendering:auto;text-rendering:auto;enable-background:accumulate"
       id="text4196">
      <path
         d="m 183.44953,489.17273 c 0,0.23825 0.18327,0.43985 0.42152,0.43985 l 0.0183,0 0.055,0 3.61039,0 c 2.01596,0 3.66538,-1.63109 3.66538,-3.66538 0,-1.61276 -1.06296,-2.96895 -2.51078,-3.46378 0.73307,-0.58646 1.2279,-1.48448 1.2279,-2.49246 0,-1.77771 -1.4295,-3.2072 -3.18888,-3.2072 l -2.80401,0 -0.055,0 c -0.23825,0 -0.43985,0.20159 -0.43985,0.43984 l 0,11.94913 z m 0.89802,-0.45817 0,-5.53472 3.2072,0 c 1.52113,0 2.74904,1.24623 2.76736,2.76736 -0.0183,1.53946 -1.24623,2.76736 -2.76736,2.76736 l -3.2072,0 z m 0,-6.45106 0,-4.58173 2.40082,0 c 1.26456,0 2.29086,1.02631 2.29086,2.30919 0,1.24623 -1.0263,2.27254 -2.29086,2.27254 l -2.40082,0 z"
         style="color:#000000;font-style:normal;font-variant:normal;font-weight:normal;font-stretch:normal;font-size:18.32688904px;line-height:125%;font-family:Quicksand;-inkscape-font-specification:Quicksand;text-indent:0;text-align:start;text-decoration-line:none;text-decoration-style:solid;text-decoration-color:#000000;letter-spacing:0px;word-spacing:0px;text-transform:none;direction:ltr;block-progression:tb;writing-mode:lr-tb;text-anchor:start;white-space:normal;clip-rule:nonzero;display:inline;overflow:visible;visibility:visible;isolation:auto;mix-blend-mode:normal;color-interpolation:sRGB;color-interpolation-filters:linearRGB;solid-color:#000000;solid-opacity:1;fill:#000080;fill-opacity:1;fill-rule:nonzero;stroke:none;stroke-width:1px;stroke-linecap:butt;stroke-linejoin:miter;stroke-miterlimit:4;stroke-dasharray:none;stroke-dashoffset:0;stroke-opacity:1;color-rendering:auto;image-rendering:auto;shape-rendering:auto;text-rendering:auto;enable-background:accumulate"
         id="path4290" />
      <path
         d="m 201.22203,480.6324 c -0.23825,0 -0.43985,0.18327 -0.43985,0.43985 l 0,1.31954 c -0.76972,-1.06296 -1.99763,-1.75939 -3.37214,-1.75939 -2.36417,0 -4.25184,2.03429 -4.25184,4.49009 0,2.4558 1.88767,4.49009 4.25184,4.49009 1.37451,0 2.60242,-0.71475 3.37214,-1.77771 l 0,1.33786 c 0,0.23825 0.2016,0.43985 0.43985,0.43985 0.23825,0 0.43985,-0.2016 0.43985,-0.43985 l 0,-8.10048 c 0,-0.25658 -0.2016,-0.43985 -0.43985,-0.43985 z m -3.81199,8.10049 c -1.83269,0 -3.37215,-1.59444 -3.37215,-3.6104 0,-2.01596 1.53946,-3.62872 3.37215,-3.62872 1.85101,0 3.37214,1.61276 3.37214,3.62872 0,2.01596 -1.52113,3.6104 -3.37214,3.6104 z"
         style="color:#000000;font-style:normal;font-variant:normal;font-weight:normal;font-stretch:normal;font-size:18.32688904px;line-height:125%;font-family:Quicksand;-inkscape-font-specification:Quicksand;text-indent:0;text-align:start;text-decoration-line:none;text-decoration-style:solid;text-decoration-color:#000000;letter-spacing:0px;word-spacing:0px;text-transform:none;direction:ltr;block-progression:tb;writing-mode:lr-tb;text-anchor:start;white-space:normal;clip-rule:nonzero;display:inline;overflow:visible;visibility:visible;isolation:auto;mix-blend-mode:normal;color-interpolation:sRGB;color-interpolation-filters:linearRGB;solid-color:#000000;solid-opacity:1;fill:#000080;fill-opacity:1;fill-rule:nonzero;stroke:none;stroke-width:1px;stroke-linecap:butt;stroke-linejoin:miter;stroke-miterlimit:4;stroke-dasharray:none;stroke-dashoffset:0;stroke-opacity:1;color-rendering:auto;image-rendering:auto;shape-rendering:auto;text-rendering:auto;enable-background:accumulate"
         id="path4292" />
      <path
         d="m 204.90831,488.3297 c 0.73308,0.58646 1.86934,1.26455 3.31717,1.28288 0.87969,0 1.61277,-0.25658 2.23588,-0.71475 0.60479,-0.45817 1.02631,-1.06296 1.02631,-1.81436 0,-0.7514 -0.42152,-1.44783 -1.00798,-1.83269 -0.62312,-0.34821 -1.31954,-0.60479 -2.1809,-0.73308 l -0.0367,0 c -0.82471,-0.12828 -1.42949,-0.34821 -1.83269,-0.62311 -0.34821,-0.2749 -0.51315,-0.53148 -0.51315,-0.89802 0,-0.36654 0.2016,-0.73307 0.56813,-1.0263 0.38487,-0.31156 0.97133,-0.51316 1.70441,-0.51316 0.87969,0 1.53945,0.45818 2.19922,0.89802 0.2016,0.12829 0.4765,0.0733 0.60479,-0.12829 0.12829,-0.20159 0.0733,-0.4765 -0.12829,-0.62311 -0.69642,-0.43985 -1.52113,-0.97133 -2.67572,-0.97133 -0.91635,0 -1.66775,0.23825 -2.19923,0.60479 -0.56813,0.42152 -0.97133,1.04463 -0.97133,1.75938 0,0.69642 0.4032,1.28288 0.97133,1.61277 0.51315,0.36654 1.2279,0.54981 2.03428,0.69642 l 0.0367,0.0183 c 0.87969,0.14661 1.52113,0.36654 1.90599,0.65977 0.45818,0.38486 0.62312,0.67809 0.64144,1.09961 0,0.40319 -0.23824,0.80638 -0.67809,1.09961 -0.40319,0.32989 -1.00798,0.54981 -1.7044,0.54981 -1.13627,0 -2.12592,-0.58646 -2.74903,-1.04463 -0.2016,-0.16495 -0.4765,-0.12829 -0.62312,0.055 -0.14661,0.18327 -0.12829,0.42152 0.055,0.58646 z"
         style="color:#000000;font-style:normal;font-variant:normal;font-weight:normal;font-stretch:normal;font-size:18.32688904px;line-height:125%;font-family:Quicksand;-inkscape-font-specification:Quicksand;text-indent:0;text-align:start;text-decoration-line:none;text-decoration-style:solid;text-decoration-color:#000000;letter-spacing:0px;word-spacing:0px;text-transform:none;direction:ltr;block-progression:tb;writing-mode:lr-tb;text-anchor:start;white-space:normal;clip-rule:nonzero;display:inline;overflow:visible;visibility:visible;isolation:auto;mix-blend-mode:normal;color-interpolation:sRGB;color-interpolation-filters:linearRGB;solid-color:#000000;solid-opacity:1;fill:#000080;fill-opacity:1;fill-rule:nonzero;stroke:none;stroke-width:1px;stroke-linecap:butt;stroke-linejoin:miter;stroke-miterlimit:4;stroke-dasharray:none;stroke-dashoffset:0;stroke-opacity:1;color-rendering:auto;image-rendering:auto;shape-rendering:auto;text-rendering:auto;enable-background:accumulate"
         id="path4294" />
      <path
         d="m 218.21707,489.61258 c 1.52113,0 2.85899,-0.80638 3.62872,-2.03429 0.12829,-0.21992 0.055,-0.47649 -0.14661,-0.62311 -0.18327,-0.10996 -0.45817,-0.0733 -0.58646,0.14662 -0.60479,1.00797 -1.7044,1.63109 -2.89565,1.63109 -1.85102,0 -3.39047,-1.48448 -3.48211,-3.44546 l 7.36741,0 c 0.23825,0 0.43985,-0.16494 0.43985,-0.40319 l 0,-0.055 0,-0.0183 c -0.18327,-2.34584 -2.01596,-4.17853 -4.32515,-4.17853 -2.41915,0 -4.3618,2.01596 -4.3618,4.50842 0,2.4558 1.94265,4.47176 4.3618,4.47176 z m 0,-8.10049 c 1.64942,0 3.07892,1.22791 3.37215,2.91398 l -6.79928,0 c 0.32989,-1.7044 1.74106,-2.91398 3.42713,-2.91398 z"
         style="color:#000000;font-style:normal;font-variant:normal;font-weight:normal;font-stretch:normal;font-size:18.32688904px;line-height:125%;font-family:Quicksand;-inkscape-font-specification:Quicksand;text-indent:0;text-align:start;text-decoration-line:none;text-decoration-style:solid;text-decoration-color:#000000;letter-spacing:0px;word-spacing:0px;text-transform:none;direction:ltr;block-progression:tb;writing-mode:lr-tb;text-anchor:start;white-space:normal;clip-rule:nonzero;display:inline;overflow:visible;visibility:visible;isolation:auto;mix-blend-mode:normal;color-interpolation:sRGB;color-interpolation-filters:linearRGB;solid-color:#000000;solid-opacity:1;fill:#000080;fill-opacity:1;fill-rule:nonzero;stroke:none;stroke-width:1px;stroke-linecap:butt;stroke-linejoin:miter;stroke-miterlimit:4;stroke-dasharray:none;stroke-dashoffset:0;stroke-opacity:1;color-rendering:auto;image-rendering:auto;shape-rendering:auto;text-rendering:auto;enable-background:accumulate"
         id="path4296" />
      <path
         d="m 225.79295,489.17273 c 0,0.23825 0.20159,0.43985 0.43984,0.43985 0.25658,0 0.45817,-0.2016 0.45817,-0.43985 l 0,-11.94913 c 0,-0.23825 -0.20159,-0.43984 -0.45817,-0.43984 -0.23825,0 -0.43984,0.20159 -0.43984,0.43984 l 0,11.94913 z"
         style="color:#000000;font-style:normal;font-variant:normal;font-weight:normal;font-stretch:normal;font-size:18.32688904px;line-height:125%;font-family:Quicksand;-inkscape-font-specification:Quicksand;text-indent:0;text-align:start;text-decoration-line:none;text-decoration-style:solid;text-decoration-color:#000000;letter-spacing:0px;word-spacing:0px;text-transform:none;direction:ltr;block-progression:tb;writing-mode:lr-tb;text-anchor:start;white-space:normal;clip-rule:nonzero;display:inline;overflow:visible;visibility:visible;isolation:auto;mix-blend-mode:normal;color-interpolation:sRGB;color-interpolation-filters:linearRGB;solid-color:#000000;solid-opacity:1;fill:#000080;fill-opacity:1;fill-rule:nonzero;stroke:none;stroke-width:1px;stroke-linecap:butt;stroke-linejoin:miter;stroke-miterlimit:4;stroke-dasharray:none;stroke-dashoffset:0;stroke-opacity:1;color-rendering:auto;image-rendering:auto;shape-rendering:auto;text-rendering:auto;enable-background:accumulate"
         id="path4298" />
      <path
         d="m 230.22892,489.17273 c 0,0.23825 0.20159,0.43985 0.43984,0.43985 0.25658,0 0.45817,-0.2016 0.45817,-0.43985 l 0,-8.10048 c 0,-0.25658 -0.20159,-0.43985 -0.45817,-0.43985 -0.23825,0 -0.43984,0.18327 -0.43984,0.43985 l 0,8.10048 z m 0,-10.61126 c 0,0.25657 0.20159,0.47649 0.43984,0.47649 0.25658,0 0.45817,-0.21992 0.45817,-0.47649 l 0,-0.42152 c 0,-0.23825 -0.20159,-0.43985 -0.45817,-0.43985 -0.23825,0 -0.43984,0.2016 -0.43984,0.43985 l 0,0.42152 z"
         style="color:#000000;font-style:normal;font-variant:normal;font-weight:normal;font-stretch:normal;font-size:18.32688904px;line-height:125%;font-family:Quicksand;-inkscape-font-specification:Quicksand;text-indent:0;text-align:start;text-decoration-line:none;text-decoration-style:solid;text-decoration-color:#000000;letter-spacing:0px;word-spacing:0px;text-transform:none;direction:ltr;block-progression:tb;writing-mode:lr-tb;text-anchor:start;white-space:normal;clip-rule:nonzero;display:inline;overflow:visible;visibility:visible;isolation:auto;mix-blend-mode:normal;color-interpolation:sRGB;color-interpolation-filters:linearRGB;solid-color:#000000;solid-opacity:1;fill:#000080;fill-opacity:1;fill-rule:nonzero;stroke:none;stroke-width:1px;stroke-linecap:butt;stroke-linejoin:miter;stroke-miterlimit:4;stroke-dasharray:none;stroke-dashoffset:0;stroke-opacity:1;color-rendering:auto;image-rendering:auto;shape-rendering:auto;text-rendering:auto;enable-background:accumulate"
         id="path4300" />
      <path
         d="m 241.77943,489.17273 c 0,0.25658 0.2016,0.43985 0.43985,0.43985 0.23825,0 0.43984,-0.18327 0.43984,-0.43985 l 0,-4.87495 c 0,-1.99763 -1.63109,-3.64705 -3.64705,-3.64705 -1.11794,0 -2.12592,0.51315 -2.78568,1.30121 l 0,-0.86136 c 0,-0.23825 -0.18327,-0.43985 -0.42152,-0.43985 -0.25658,0 -0.43985,0.2016 -0.43985,0.43985 l 0,3.06059 0,0.14661 0,4.87495 0,0.10997 c 0,0 0.0183,0.0183 0.0183,0.0367 0,0.0183 0,0.0367 0.0183,0.055 0.055,0.10996 0.16494,0.2016 0.29323,0.23825 l 0.10996,0 c 0.12829,0 0.25657,-0.055 0.32988,-0.16494 0.055,-0.055 0.0733,-0.12829 0.0916,-0.2016 l 0,-0.0733 0,-4.87495 c 0.0366,-1.52113 1.26455,-2.76736 2.78568,-2.76736 1.53946,0 2.76736,1.24623 2.76736,2.76736 l 0,4.87495 z"
         style="color:#000000;font-style:normal;font-variant:normal;font-weight:normal;font-stretch:normal;font-size:18.32688904px;line-height:125%;font-family:Quicksand;-inkscape-font-specification:Quicksand;text-indent:0;text-align:start;text-decoration-line:none;text-decoration-style:solid;text-decoration-color:#000000;letter-spacing:0px;word-spacing:0px;text-transform:none;direction:ltr;block-progression:tb;writing-mode:lr-tb;text-anchor:start;white-space:normal;clip-rule:nonzero;display:inline;overflow:visible;visibility:visible;isolation:auto;mix-blend-mode:normal;color-interpolation:sRGB;color-interpolation-filters:linearRGB;solid-color:#000000;solid-opacity:1;fill:#000080;fill-opacity:1;fill-rule:nonzero;stroke:none;stroke-width:1px;stroke-linecap:butt;stroke-linejoin:miter;stroke-miterlimit:4;stroke-dasharray:none;stroke-dashoffset:0;stroke-opacity:1;color-rendering:auto;image-rendering:auto;shape-rendering:auto;text-rendering:auto;enable-background:accumulate"
         id="path4302" />
      <path
         d="m 250.32492,489.61258 c 1.52113,0 2.859,-0.80638 3.62872,-2.03429 0.12829,-0.21992 0.055,-0.47649 -0.14661,-0.62311 -0.18327,-0.10996 -0.45817,-0.0733 -0.58646,0.14662 -0.60479,1.00797 -1.7044,1.63109 -2.89565,1.63109 -1.85101,0 -3.39047,-1.48448 -3.48211,-3.44546 l 7.36741,0 c 0.23825,0 0.43985,-0.16494 0.43985,-0.40319 l 0,-0.055 0,-0.0183 c -0.18327,-2.34584 -2.01596,-4.17853 -4.32515,-4.17853 -2.41915,0 -4.3618,2.01596 -4.3618,4.50842 0,2.4558 1.94265,4.47176 4.3618,4.47176 z m 0,-8.10049 c 1.64942,0 3.07892,1.22791 3.37215,2.91398 l -6.79928,0 c 0.32989,-1.7044 1.74106,-2.91398 3.42713,-2.91398 z"
         style="color:#000000;font-style:normal;font-variant:normal;font-weight:normal;font-stretch:normal;font-size:18.32688904px;line-height:125%;font-family:Quicksand;-inkscape-font-specification:Quicksand;text-indent:0;text-align:start;text-decoration-line:none;text-decoration-style:solid;text-decoration-color:#000000;letter-spacing:0px;word-spacing:0px;text-transform:none;direction:ltr;block-progression:tb;writing-mode:lr-tb;text-anchor:start;white-space:normal;clip-rule:nonzero;display:inline;overflow:visible;visibility:visible;isolation:auto;mix-blend-mode:normal;color-interpolation:sRGB;color-interpolation-filters:linearRGB;solid-color:#000000;solid-opacity:1;fill:#000080;fill-opacity:1;fill-rule:nonzero;stroke:none;stroke-width:1px;stroke-linecap:butt;stroke-linejoin:miter;stroke-miterlimit:4;stroke-dasharray:none;stroke-dashoffset:0;stroke-opacity:1;color-rendering:auto;image-rendering:auto;shape-rendering:auto;text-rendering:auto;enable-background:accumulate"
         id="path4304" />
    </g>
    <g
       style="color:#000000;font-style:normal;font-variant:normal;font-weight:normal;font-stretch:normal;font-size:18.32688904px;line-height:125%;font-family:Quicksand;-inkscape-font-specification:Quicksand;text-indent:0;text-align:start;text-decoration:none;text-decoration-line:none;text-decoration-style:solid;text-decoration-color:#000000;letter-spacing:0px;word-spacing:0px;text-transform:none;direction:ltr;block-progression:tb;writing-mode:lr-tb;baseline-shift:baseline;text-anchor:start;white-space:normal;clip-rule:nonzero;display:inline;overflow:visible;visibility:visible;opacity:1;isolation:auto;mix-blend-mode:normal;color-interpolation:sRGB;color-interpolation-filters:linearRGB;solid-color:#000000;solid-opacity:1;fill:#000080;fill-opacity:1;fill-rule:nonzero;stroke:none;stroke-width:1px;stroke-linecap:butt;stroke-linejoin:miter;stroke-miterlimit:4;stroke-dasharray:none;stroke-dashoffset:0;stroke-opacity:1;color-rendering:auto;image-rendering:auto;shape-rendering:auto;text-rendering:auto;enable-background:accumulate"
       id="text4216">
      <path
         d="m 193.34605,405.75751 c 0,0.23825 0.18327,0.43985 0.43985,0.43985 0.23824,0 0.43984,-0.2016 0.43984,-0.43985 l 0,-11.87582 c 0,-0.0733 -0.0367,-0.16494 -0.0733,-0.23825 -0.0367,-0.055 -0.0733,-0.0916 -0.12829,-0.14662 -0.20159,-0.12829 -0.49482,-0.0916 -0.62311,0.10996 l -4.54507,6.32278 -4.56339,-6.32278 c -0.14662,-0.20159 -0.42152,-0.23825 -0.62312,-0.10996 -0.0183,0.0183 -0.0367,0.0183 -0.0367,0.0367 -0.10996,0.0733 -0.18327,0.20159 -0.18327,0.34821 l 0,11.87582 c 0,0.23825 0.2016,0.43985 0.45817,0.43985 0.23825,0 0.43985,-0.2016 0.43985,-0.43985 l 0,-10.53796 4.10522,5.68134 c 0.0916,0.14661 0.21992,0.20159 0.38487,0.20159 l 0.0367,0 c 0.12829,0 0.2749,-0.055 0.36654,-0.20159 l 4.10522,-5.69967 0,10.55629 z"
         style="color:#000000;font-style:normal;font-variant:normal;font-weight:normal;font-stretch:normal;font-size:18.32688904px;line-height:125%;font-family:Quicksand;-inkscape-font-specification:Quicksand;text-indent:0;text-align:start;text-decoration-line:none;text-decoration-style:solid;text-decoration-color:#000000;letter-spacing:0px;word-spacing:0px;text-transform:none;direction:ltr;block-progression:tb;writing-mode:lr-tb;text-anchor:start;white-space:normal;clip-rule:nonzero;display:inline;overflow:visible;visibility:visible;isolation:auto;mix-blend-mode:normal;color-interpolation:sRGB;color-interpolation-filters:linearRGB;solid-color:#000000;solid-opacity:1;fill:#000080;fill-opacity:1;fill-rule:nonzero;stroke:none;stroke-width:1px;stroke-linecap:butt;stroke-linejoin:miter;stroke-miterlimit:4;stroke-dasharray:none;stroke-dashoffset:0;stroke-opacity:1;color-rendering:auto;image-rendering:auto;shape-rendering:auto;text-rendering:auto;enable-background:accumulate"
         id="path4322" />
      <path
         d="m 202.4316,406.19736 c 1.52114,0 2.859,-0.80639 3.62873,-2.03429 0.12829,-0.21992 0.055,-0.4765 -0.14662,-0.62311 -0.18327,-0.10996 -0.45817,-0.0733 -0.58646,0.14661 -0.60478,1.00798 -1.7044,1.6311 -2.89565,1.6311 -1.85101,0 -3.39047,-1.48448 -3.4821,-3.44546 l 7.36741,0 c 0.23824,0 0.43984,-0.16494 0.43984,-0.40319 l 0,-0.055 0,-0.0183 c -0.18327,-2.34584 -2.01596,-4.17853 -4.32515,-4.17853 -2.41914,0 -4.36179,2.01596 -4.36179,4.50842 0,2.4558 1.94265,4.47176 4.36179,4.47176 z m 0,-8.10049 c 1.64942,0 3.07892,1.2279 3.37215,2.91398 l -6.79927,0 c 0.32988,-1.7044 1.74105,-2.91398 3.42712,-2.91398 z"
         style="color:#000000;font-style:normal;font-variant:normal;font-weight:normal;font-stretch:normal;font-size:18.32688904px;line-height:125%;font-family:Quicksand;-inkscape-font-specification:Quicksand;text-indent:0;text-align:start;text-decoration-line:none;text-decoration-style:solid;text-decoration-color:#000000;letter-spacing:0px;word-spacing:0px;text-transform:none;direction:ltr;block-progression:tb;writing-mode:lr-tb;text-anchor:start;white-space:normal;clip-rule:nonzero;display:inline;overflow:visible;visibility:visible;isolation:auto;mix-blend-mode:normal;color-interpolation:sRGB;color-interpolation-filters:linearRGB;solid-color:#000000;solid-opacity:1;fill:#000080;fill-opacity:1;fill-rule:nonzero;stroke:none;stroke-width:1px;stroke-linecap:butt;stroke-linejoin:miter;stroke-miterlimit:4;stroke-dasharray:none;stroke-dashoffset:0;stroke-opacity:1;color-rendering:auto;image-rendering:auto;shape-rendering:auto;text-rendering:auto;enable-background:accumulate"
         id="path4324" />
      <path
         d="m 216.9717,397.21718 c -0.23825,0 -0.43985,0.18327 -0.43985,0.43985 l 0,1.31953 c -0.76972,-1.06296 -1.99763,-1.75938 -3.37214,-1.75938 -2.36417,0 -4.25184,2.03429 -4.25184,4.49009 0,2.4558 1.88767,4.49009 4.25184,4.49009 1.37451,0 2.60242,-0.71475 3.37214,-1.77771 l 0,1.33786 c 0,0.23825 0.2016,0.43985 0.43985,0.43985 0.23825,0 0.43985,-0.2016 0.43985,-0.43985 l 0,-8.10048 c 0,-0.25658 -0.2016,-0.43985 -0.43985,-0.43985 z m -3.81199,8.10049 c -1.83269,0 -3.37215,-1.59444 -3.37215,-3.6104 0,-2.01596 1.53946,-3.62872 3.37215,-3.62872 1.85101,0 3.37214,1.61276 3.37214,3.62872 0,2.01596 -1.52113,3.6104 -3.37214,3.6104 z"
         style="color:#000000;font-style:normal;font-variant:normal;font-weight:normal;font-stretch:normal;font-size:18.32688904px;line-height:125%;font-family:Quicksand;-inkscape-font-specification:Quicksand;text-indent:0;text-align:start;text-decoration-line:none;text-decoration-style:solid;text-decoration-color:#000000;letter-spacing:0px;word-spacing:0px;text-transform:none;direction:ltr;block-progression:tb;writing-mode:lr-tb;text-anchor:start;white-space:normal;clip-rule:nonzero;display:inline;overflow:visible;visibility:visible;isolation:auto;mix-blend-mode:normal;color-interpolation:sRGB;color-interpolation-filters:linearRGB;solid-color:#000000;solid-opacity:1;fill:#000080;fill-opacity:1;fill-rule:nonzero;stroke:none;stroke-width:1px;stroke-linecap:butt;stroke-linejoin:miter;stroke-miterlimit:4;stroke-dasharray:none;stroke-dashoffset:0;stroke-opacity:1;color-rendering:auto;image-rendering:auto;shape-rendering:auto;text-rendering:auto;enable-background:accumulate"
         id="path4326" />
      <path
         d="m 227.46155,405.75751 c 0,0.25658 0.2016,0.43985 0.43985,0.43985 0.23825,0 0.43985,-0.18327 0.43985,-0.43985 l 0,-4.87495 c 0,-1.99763 -1.6311,-3.64705 -3.64706,-3.64705 -1.11794,0 -2.12591,0.51315 -2.78568,1.30121 l 0,-0.86137 c 0,-0.23825 -0.18327,-0.43984 -0.42152,-0.43984 -0.25658,0 -0.43985,0.20159 -0.43985,0.43984 l 0,3.06059 0,0.14662 0,4.87495 0,0.10996 c 0,0 0.0183,0.0183 0.0183,0.0367 0,0.0183 0,0.0367 0.0183,0.055 0.055,0.10996 0.16494,0.20159 0.29323,0.23825 l 0.10996,0 c 0.12829,0 0.25658,-0.055 0.32988,-0.16494 0.055,-0.055 0.0733,-0.12829 0.0916,-0.2016 l 0,-0.0733 0,-4.87495 c 0.0366,-1.52113 1.26455,-2.76736 2.78568,-2.76736 1.53946,0 2.76736,1.24623 2.76736,2.76736 l 0,4.87495 z"
         style="color:#000000;font-style:normal;font-variant:normal;font-weight:normal;font-stretch:normal;font-size:18.32688904px;line-height:125%;font-family:Quicksand;-inkscape-font-specification:Quicksand;text-indent:0;text-align:start;text-decoration-line:none;text-decoration-style:solid;text-decoration-color:#000000;letter-spacing:0px;word-spacing:0px;text-transform:none;direction:ltr;block-progression:tb;writing-mode:lr-tb;text-anchor:start;white-space:normal;clip-rule:nonzero;display:inline;overflow:visible;visibility:visible;isolation:auto;mix-blend-mode:normal;color-interpolation:sRGB;color-interpolation-filters:linearRGB;solid-color:#000000;solid-opacity:1;fill:#000080;fill-opacity:1;fill-rule:nonzero;stroke:none;stroke-width:1px;stroke-linecap:butt;stroke-linejoin:miter;stroke-miterlimit:4;stroke-dasharray:none;stroke-dashoffset:0;stroke-opacity:1;color-rendering:auto;image-rendering:auto;shape-rendering:auto;text-rendering:auto;enable-background:accumulate"
         id="path4328" />
      <path
         d="m 232.41497,405.75751 c 0,0.23825 0.20159,0.43985 0.43984,0.43985 0.25658,0 0.45818,-0.2016 0.45818,-0.43985 l 0,-11.94913 c 0,-0.23825 -0.2016,-0.43985 -0.45818,-0.43985 -0.23825,0 -0.43984,0.2016 -0.43984,0.43985 l 0,11.94913 z"
         style="color:#000000;font-style:normal;font-variant:normal;font-weight:normal;font-stretch:normal;font-size:18.32688904px;line-height:125%;font-family:Quicksand;-inkscape-font-specification:Quicksand;text-indent:0;text-align:start;text-decoration-line:none;text-decoration-style:solid;text-decoration-color:#000000;letter-spacing:0px;word-spacing:0px;text-transform:none;direction:ltr;block-progression:tb;writing-mode:lr-tb;text-anchor:start;white-space:normal;clip-rule:nonzero;display:inline;overflow:visible;visibility:visible;isolation:auto;mix-blend-mode:normal;color-interpolation:sRGB;color-interpolation-filters:linearRGB;solid-color:#000000;solid-opacity:1;fill:#000080;fill-opacity:1;fill-rule:nonzero;stroke:none;stroke-width:1px;stroke-linecap:butt;stroke-linejoin:miter;stroke-miterlimit:4;stroke-dasharray:none;stroke-dashoffset:0;stroke-opacity:1;color-rendering:auto;image-rendering:auto;shape-rendering:auto;text-rendering:auto;enable-background:accumulate"
         id="path4330" />
      <path
         d="m 236.85093,405.75751 c 0,0.23825 0.2016,0.43985 0.43985,0.43985 0.25657,0 0.45817,-0.2016 0.45817,-0.43985 l 0,-8.10048 c 0,-0.25658 -0.2016,-0.43985 -0.45817,-0.43985 -0.23825,0 -0.43985,0.18327 -0.43985,0.43985 l 0,8.10048 z m 0,-10.61127 c 0,0.25658 0.2016,0.4765 0.43985,0.4765 0.25657,0 0.45817,-0.21992 0.45817,-0.4765 l 0,-0.42152 c 0,-0.23824 -0.2016,-0.43984 -0.45817,-0.43984 -0.23825,0 -0.43985,0.2016 -0.43985,0.43984 l 0,0.42152 z"
         style="color:#000000;font-style:normal;font-variant:normal;font-weight:normal;font-stretch:normal;font-size:18.32688904px;line-height:125%;font-family:Quicksand;-inkscape-font-specification:Quicksand;text-indent:0;text-align:start;text-decoration-line:none;text-decoration-style:solid;text-decoration-color:#000000;letter-spacing:0px;word-spacing:0px;text-transform:none;direction:ltr;block-progression:tb;writing-mode:lr-tb;text-anchor:start;white-space:normal;clip-rule:nonzero;display:inline;overflow:visible;visibility:visible;isolation:auto;mix-blend-mode:normal;color-interpolation:sRGB;color-interpolation-filters:linearRGB;solid-color:#000000;solid-opacity:1;fill:#000080;fill-opacity:1;fill-rule:nonzero;stroke:none;stroke-width:1px;stroke-linecap:butt;stroke-linejoin:miter;stroke-miterlimit:4;stroke-dasharray:none;stroke-dashoffset:0;stroke-opacity:1;color-rendering:auto;image-rendering:auto;shape-rendering:auto;text-rendering:auto;enable-background:accumulate"
         id="path4332" />
      <path
         d="m 248.40145,405.75751 c 0,0.25658 0.2016,0.43985 0.43985,0.43985 0.23825,0 0.43984,-0.18327 0.43984,-0.43985 l 0,-4.87495 c 0,-1.99763 -1.63109,-3.64705 -3.64705,-3.64705 -1.11794,0 -2.12592,0.51315 -2.78568,1.30121 l 0,-0.86137 c 0,-0.23825 -0.18327,-0.43984 -0.42152,-0.43984 -0.25658,0 -0.43985,0.20159 -0.43985,0.43984 l 0,3.06059 0,0.14662 0,4.87495 0,0.10996 c 0,0 0.0183,0.0183 0.0183,0.0367 0,0.0183 0,0.0367 0.0183,0.055 0.055,0.10996 0.16494,0.20159 0.29323,0.23825 l 0.10996,0 c 0.12829,0 0.25657,-0.055 0.32988,-0.16494 0.055,-0.055 0.0733,-0.12829 0.0916,-0.2016 l 0,-0.0733 0,-4.87495 c 0.0367,-1.52113 1.26455,-2.76736 2.78568,-2.76736 1.53946,0 2.76736,1.24623 2.76736,2.76736 l 0,4.87495 z"
         style="color:#000000;font-style:normal;font-variant:normal;font-weight:normal;font-stretch:normal;font-size:18.32688904px;line-height:125%;font-family:Quicksand;-inkscape-font-specification:Quicksand;text-indent:0;text-align:start;text-decoration-line:none;text-decoration-style:solid;text-decoration-color:#000000;letter-spacing:0px;word-spacing:0px;text-transform:none;direction:ltr;block-progression:tb;writing-mode:lr-tb;text-anchor:start;white-space:normal;clip-rule:nonzero;display:inline;overflow:visible;visibility:visible;isolation:auto;mix-blend-mode:normal;color-interpolation:sRGB;color-interpolation-filters:linearRGB;solid-color:#000000;solid-opacity:1;fill:#000080;fill-opacity:1;fill-rule:nonzero;stroke:none;stroke-width:1px;stroke-linecap:butt;stroke-linejoin:miter;stroke-miterlimit:4;stroke-dasharray:none;stroke-dashoffset:0;stroke-opacity:1;color-rendering:auto;image-rendering:auto;shape-rendering:auto;text-rendering:auto;enable-background:accumulate"
         id="path4334" />
      <path
         d="m 256.94694,406.19736 c 1.52113,0 2.85899,-0.80639 3.62872,-2.03429 0.12829,-0.21992 0.055,-0.4765 -0.14661,-0.62311 -0.18327,-0.10996 -0.45818,-0.0733 -0.58646,0.14661 -0.60479,1.00798 -1.7044,1.6311 -2.89565,1.6311 -1.85102,0 -3.39048,-1.48448 -3.48211,-3.44546 l 7.36741,0 c 0.23825,0 0.43984,-0.16494 0.43984,-0.40319 l 0,-0.055 0,-0.0183 c -0.18327,-2.34584 -2.01595,-4.17853 -4.32514,-4.17853 -2.41915,0 -4.3618,2.01596 -4.3618,4.50842 0,2.4558 1.94265,4.47176 4.3618,4.47176 z m 0,-8.10049 c 1.64942,0 3.07892,1.2279 3.37215,2.91398 l -6.79928,0 c 0.32988,-1.7044 1.74105,-2.91398 3.42713,-2.91398 z"
         style="color:#000000;font-style:normal;font-variant:normal;font-weight:normal;font-stretch:normal;font-size:18.32688904px;line-height:125%;font-family:Quicksand;-inkscape-font-specification:Quicksand;text-indent:0;text-align:start;text-decoration-line:none;text-decoration-style:solid;text-decoration-color:#000000;letter-spacing:0px;word-spacing:0px;text-transform:none;direction:ltr;block-progression:tb;writing-mode:lr-tb;text-anchor:start;white-space:normal;clip-rule:nonzero;display:inline;overflow:visible;visibility:visible;isolation:auto;mix-blend-mode:normal;color-interpolation:sRGB;color-interpolation-filters:linearRGB;solid-color:#000000;solid-opacity:1;fill:#000080;fill-opacity:1;fill-rule:nonzero;stroke:none;stroke-width:1px;stroke-linecap:butt;stroke-linejoin:miter;stroke-miterlimit:4;stroke-dasharray:none;stroke-dashoffset:0;stroke-opacity:1;color-rendering:auto;image-rendering:auto;shape-rendering:auto;text-rendering:auto;enable-background:accumulate"
         id="path4336" />
    </g>
  </g>
</svg>
